<svg version="1.0" xmlns="http://www.w3.org/2000/svg" width="500px" height="500px" viewBox="0 0 500 500" preserveAspectRatio="xMidYMid meet">
 <g fill="#000000">
  
 </g>
 <g fill="#045365">
  <path d="M86 351 c0 -1.7 0.7 -2 4 -2 3.3 0 4 0.3 4 2 0 1.7 -0.7 2 -4 2 -3.3 0 -4 -0.3 -4 -2z" data-index="1"></path>
  <path d="M113 351 c0 -1.3 0.7 -2 2 -2 1.3 0 2 0.7 2 2 0 1.3 -0.7 2 -2 2 -1.3 0 -2 -0.7 -2 -2z" data-index="2"></path>
  <path d="M187.6 351.4 c-1.1 -2.9 -0.6 -4.4 1.4 -4.4 1.1 0 2 0.5 2 1 0 0.6 1.1 1 2.4 1 1.9 0 2.3 0.4 1.9 2 -0.7 2.5 -6.8 2.9 -7.7 0.4z" data-index="3" style="opacity: 1;"></path>
  <path d="M248 351 c0 -1.3 0.7 -2 2 -2 1.3 0 2 0.7 2 2 0 1.3 -0.7 2 -2 2 -1.3 0 -2 -0.7 -2 -2z" data-index="4"></path>
  <path d="M269 350.6 c0 -2 0.5 -2.6 2.1 -2.6 1.5 0 2 0.5 1.7 2.2 -0.5 3.4 -3.8 3.7 -3.8 0.4z" data-index="5"></path>
  <path d="M395.7 352.3 c-1.6 -1.5 -0.6 -3.3 1.8 -3.3 1.8 0 2.5 0.5 2.5 2 0 2 -2.8 2.8 -4.3 1.3z" data-index="6"></path>
  <path d="M160 349 c0 -2.7 0.3 -3 3 -3 2.7 0 2.9 0.2 1.9 1.9 -0.7 1 -2 2.3 -3 3 -1.7 1 -1.9 0.8 -1.9 -1.9z" data-index="7"></path>
  <path d="M316 330.1 c0 -0.4 -1.2 -2 -2.6 -3.5 l-2.7 -2.6 3.7 0 c3.5 0 3.6 0.1 3.6 3.5 0 1.9 -0.4 3.5 -1 3.5 -0.5 0 -1 -0.4 -1 -0.9z" data-index="8"></path>
  <path d="M414 318.5 c0 -1.8 0.5 -2.5 2 -2.5 2.3 0 2.4 0.4 1 3.1 -1.5 2.7 -3 2.4 -3 -0.6z" data-index="9"></path>
  <path d="M382.6 318.4 c-0.9 -2.3 -0.8 -2.4 1.4 -2.4 1.3 0 2 0.7 2 2 0 2.4 -2.5 2.7 -3.4 0.4z" data-index="10"></path>
  <path d="M238.5 287 c0.3 -0.5 1.3 -1 2.1 -1 0.8 0 1.4 0.5 1.4 1 0 0.6 -0.9 1 -2.1 1 -1.1 0 -1.7 -0.4 -1.4 -1z" data-index="11"></path>
  <path d="M251 285 c0 -1.7 0.7 -2 4 -2 4.5 0 5.7 2.3 1.8 3.4 -4.2 1.1 -5.8 0.7 -5.8 -1.4z" data-index="12"></path>
  <path d="M262 284 c0 -1.6 0.7 -2 3.5 -2 4 0 4.9 2.4 1.3 3.4 -3.8 1 -4.8 0.7 -4.8 -1.4z" data-index="13"></path>
  <path d="M272 281.5 c0 -1.6 0.6 -2.5 1.5 -2.5 0.8 0 1.5 -0.4 1.5 -1 0 -0.5 0.7 -1 1.5 -1 0.8 0 1.5 -0.4 1.5 -1 0 -0.5 1.6 -1 3.5 -1 3.3 0 3.5 -0.2 3.5 -3.5 0 -1.9 0.3 -3.5 0.8 -3.5 0.4 0 4.3 -5.6 8.7 -12.5 4.4 -6.8 8.6 -12.5 9.3 -12.5 0.6 0 1.2 -1.1 1.2 -2.5 0 -1.6 0.6 -2.5 1.5 -2.5 0.8 0 1.5 -0.9 1.5 -2 0 -1.6 0.7 -2 3.1 -2 l3 0 -4 5.7 c-2.3 3.1 -4.1 6 -4.1 6.5 0 1.4 18 9.5 22.8 10.3 13.3 2.2 33.7 -9 40.7 -22.4 2.9 -5.6 3.1 -4.4 0.6 3.2 -2.1 6.5 -7.2 15.3 -11.8 20.5 l-3.2 3.7 -0.1 -3.2 0 -3.2 -4.5 1.9 c-7.5 3.2 -16.8 4.3 -30.1 3.6 l-12.2 -0.6 -2.1 2.7 c-4.4 5.5 -3.9 10.5 1.5 13 2 1 3.4 2.4 3.4 3.5 0 3.7 -6.1 1.6 -13.5 -4.7 -2.9 -2.5 -5.7 -4.5 -6.4 -4.5 -0.6 0 -2.6 1.6 -4.3 3.6 -3.1 3.5 -9.8 8.5 -13 9.7 -1.4 0.5 -1.8 0.1 -1.8 -1.8z" data-index="14" style="opacity: 1;"></path>
  <path d="M319 279.2 c0 -1.6 1.1 -2.2 6 -3.3 3.3 -0.7 6 -1.6 6 -2 0 -0.4 2 -1.5 4.5 -2.6 2.5 -1 4.5 -2.1 4.5 -2.5 0 -0.5 0.9 -0.8 2 -0.8 1.1 0 2 -0.7 2 -1.5 0 -1 1.1 -1.5 3.5 -1.5 1.9 0 3.5 0.2 3.5 0.5 0 0.3 -2.7 2.5 -5.9 4.9 -6.1 4.5 -15.9 8.9 -22.4 10.1 -3.3 0.6 -3.7 0.5 -3.7 -1.3z" data-index="15"></path>
  <path d="M280.5 256 c0.4 -0.6 -0.1 -3.3 -1 -6 -0.9 -2.7 -1.3 -5.5 -1 -6.1 0.6 -0.8 0.2 -0.8 -1.4 0 -1.8 1 -2.1 0.9 -2.1 -1 0 -1.4 3.2 -5.4 8.7 -11 6.9 -7.1 9.2 -8.9 11.5 -8.9 1.6 0 2.7 0.4 2.3 1 -1 1.7 2.6 11.2 4.1 10.6 0.9 -0.3 1.4 0.2 1.4 1.4 0 1.5 -0.7 2 -2.9 2 -3.4 0 -4.8 1.5 -5.3 5.5 -0.2 2.2 -0.9 3.1 -2.5 3.3 -1.6 0.2 -2.3 1 -2.3 2.5 0 2.9 -4.8 7.7 -7.7 7.7 -1.4 0 -2.1 -0.4 -1.8 -1z" data-index="16" style="opacity: 1;"></path>
  <path d="M142.8 242.3 c-4.1 -4.4 -6.2 -7.9 -5.3 -9.3 0.3 -0.5 -0.3 -1.8 -1.4 -2.9 -2.3 -2.3 -3.6 -11.6 -2.6 -19.7 1.5 -12.3 7.1 -22.3 15.2 -27.4 2.6 -1.7 4.9 -2.8 5.1 -2.5 0.4 0.4 -6.5 9.4 -8.3 10.7 -0.5 0.4 -0.7 0.8 -0.3 0.8 0.3 0 -0.5 3 -1.8 6.8 -1.3 3.7 -2.4 8.3 -2.4 10.2 0 5.1 -1 7.8 -2.9 8.3 -1.5 0.4 -1.5 0.5 0.1 0.6 1.7 0.1 2.1 1.6 3.3 10.6 0.4 2.8 2 7.6 3.6 10.8 1.6 3.2 2.9 6 2.9 6.2 0 1.4 -2 0.1 -5.2 -3.2z" data-index="17" style="opacity: 1;"></path>
  <path d="M207.5 233.4 c3.8 -3.4 4 -3.4 4.3 -1.4 0.6 3.8 -0.5 5 -4.5 5 l-3.8 -0.1 4 -3.5z" data-index="18"></path>
  <path d="M216.5 225.4 c3.8 -3.4 4 -3.4 4.3 -1.4 0.6 3.8 -0.5 5 -4.5 5 l-3.8 -0.1 4 -3.5z" data-index="19"></path>
  <path d="M320 222.6 c0 -3.3 0.2 -3.6 3.1 -3.6 l3 0 -2.1 3 c-3.1 4.4 -4 4.5 -4 0.6z" data-index="20"></path>
  <path d="M121.9 217.8 c-7.4 -14.5 -11.4 -38.8 -6.3 -38.8 1 0 1.4 1.3 1.4 5 0 6.3 2.1 19 3.2 19 0.4 0 0.8 -0.9 0.8 -2 0 -1.2 0.7 -2 1.8 -2 1.5 0 1.7 1.2 1.7 11.5 0 6.3 -0.1 11.5 -0.2 11.5 -0.2 0 -1.2 -1.9 -2.4 -4.2z" data-index="21"></path>
  <path d="M262.5 217.1 c0.3 -0.5 0 -4.2 -0.7 -8.1 -1 -6 -1.5 -7.1 -3 -6.7 -1.3 0.4 -1.8 -0.1 -1.8 -1.7 0 -2.1 3.9 -6 17.4 -17.3 2.6 -2.3 7.3 -3.2 6.1 -1.3 -0.9 1.5 4.8 13.1 6.3 12.5 0.7 -0.3 1.2 0.5 1.2 1.9 0 3.5 -19.7 21.6 -23.4 21.6 -1.5 0 -2.5 -0.4 -2.1 -0.9z" data-index="22"></path>
  <path d="M227.1 215.3 c0.7 -1 3.8 -4.5 7 -7.8 5.3 -5.7 14.9 -17.2 14.9 -17.9 0 -1.7 -13.3 -12.8 -20.7 -17.2 -13.5 -8.2 -21.3 -10.6 -35.5 -11.2 -10.7 -0.4 -11.8 -0.6 -11.8 -2.3 0 -1.7 0.9 -1.9 10.4 -1.9 12.5 0 22.8 1.3 35.6 4.5 5.2 1.3 12.1 2.6 15.2 2.8 5 0.5 5.8 0.3 7.1 -1.6 4 -6.3 2.6 -14.5 -3.7 -20.9 -6.4 -6.6 -9.7 -9.1 -14.3 -11.2 -2.4 -1.1 -4.3 -2.3 -4.3 -2.8 0 -0.4 -0.8 -0.8 -1.8 -0.8 -1.1 0 -4.4 -0.9 -7.5 -1.9 -3.1 -1.1 -7.7 -2.3 -10.2 -2.6 -3.5 -0.6 -4.5 -1.1 -4.5 -2.6 0 -2.4 1.5 -2.4 11.3 0.1 10 2.5 19.9 6.7 27 11.4 8.3 5.5 25 24 27 29.9 0.3 0.9 0.8 0.8 2 -0.2 3.3 -2.7 1.9 3.5 -2 9.2 -9.8 14.2 -16.9 23.6 -18 23.7 -0.7 0 -1.3 0.9 -1.3 2 0 1.3 -0.7 2 -1.9 2 -1.4 0 -2.1 0.8 -2.3 2.8 -0.2 2.1 -0.9 2.8 -3 3 -2.4 0.3 -2.8 0.8 -2.8 3.3 0 1.9 -0.5 2.9 -1.5 2.9 -0.8 0 -1.5 0.4 -1.5 1 0 2.3 -4.5 6 -7.3 6 -2.6 0 -2.8 -0.2 -1.6 -1.7z" data-index="23"></path>
  <path d="M125 191.5 c0 -2.4 0.5 -3.5 1.5 -3.5 0.9 0 1.5 -0.9 1.5 -2.5 0 -2.1 0.5 -2.5 2.9 -2.5 l2.9 0 -3.5 6 c-2 3.3 -4 6 -4.5 6 -0.4 0 -0.8 -1.6 -0.8 -3.5z" data-index="24"></path>
  <path d="M138.2 175.9 c0.2 -2.6 0.8 -3.5 2.6 -3.7 1.2 -0.2 2.2 -0.9 2.2 -1.5 0 -3.9 22.8 -12.7 32.7 -12.7 5.6 0 6 2.6 0.6 3.6 -12.3 2.1 -26.7 8.3 -35.1 15.1 l-3.4 2.7 0.4 -3.5z" data-index="25"></path>
  <path d="M114 176.1 c0 -5.2 7.1 -23.1 9.2 -23.1 1.6 0 0.8 5.6 -1.7 11.5 -1.4 3.3 -2.8 7.7 -3.1 9.8 -0.5 2.7 -1.1 3.7 -2.5 3.7 -1.2 0 -1.9 -0.7 -1.9 -1.9z" data-index="26"></path>
  <path d="M304.8 158.3 c-1.1 -0.3 -1.8 -1.4 -1.8 -2.9 l0 -2.4 4.7 1.8 c5.7 2.1 6.9 4.2 2.1 4.1 -1.8 -0.1 -4.1 -0.3 -5 -0.6z" data-index="27"></path>
  <path d="M277 155.1 c0 -1.1 5.9 -3.9 9.9 -4.7 2.7 -0.6 3.1 -0.4 3.1 1.5 0 1.7 -0.6 2.1 -3 2.1 -1.6 0 -3 0.5 -3 1 0 0.6 -1.6 1 -3.5 1 -1.9 0 -3.5 -0.4 -3.5 -0.9z" data-index="28"></path>
  <path d="M293.3 154.3 c-1.5 -0.3 -2.3 -1.2 -2.3 -2.5 0 -1.8 0.4 -1.9 3.7 -1.3 4.5 0.8 7.3 2.2 7.3 3.5 0 1 -4.4 1.1 -8.7 0.3z" data-index="29"></path>
  <path d="M127.2 146.3 c7.6 -10.7 26 -22 42.7 -26.2 10.6 -2.6 12.1 -2.7 12.1 -0.1 0 1.4 -0.7 2 -2.3 2 -1.2 0 -5.4 0.9 -9.2 2.1 -3.9 1.1 -8.1 2.3 -9.5 2.6 -1.4 0.3 -2.7 0.9 -3 1.3 -0.9 1.3 -6.9 4 -9 4 -1.1 0 -2 0.7 -2 1.5 0 0.8 -0.8 1.5 -1.9 1.5 -1 0 -2.1 0.9 -2.4 2 -0.3 1.2 -1.4 2 -2.6 2 -1.2 0 -2.1 0.5 -2.1 1.2 0 1.6 -5.1 6.8 -6.7 6.8 -0.7 0 -1.3 0.9 -1.3 2 0 1.6 -0.7 2 -3.1 2 l-3 0 3.3 -4.7z" data-index="30"></path>
 </g>
 <g fill="#02676c">
  <path d="M144.8 351.9 c-2.9 -1.6 -2.1 -2.9 1.7 -2.9 2.8 0 3.5 0.4 3.5 2 0 2.2 -2.4 2.6 -5.2 0.9z" data-index="31"></path>
  <path d="M188 351.1 c-0.6 -1.1 -1 -8.9 -1 -18 0 -15.4 0.1 -16.1 2 -16.1 1.9 0 2 0.7 2 18 0 17.5 -0.6 20.6 -3 16.1z" data-index="32"></path>
  <path d="M291 351 c0 -1.3 0.7 -2 2 -2 1.3 0 2 0.7 2 2 0 1.3 -0.7 2 -2 2 -1.3 0 -2 -0.7 -2 -2z" data-index="33"></path>
  <path d="M303 351 c0 -1.6 0.7 -2 3.5 -2 4 0 4.9 2.4 1.3 3.4 -3.8 1 -4.8 0.7 -4.8 -1.4z" data-index="34"></path>
  <path d="M403 346.6 c0 -3.2 0.3 -3.6 2.5 -3.6 2.4 0 2.5 0.1 1.2 3.2 -1.9 4.6 -3.7 4.8 -3.7 0.4z" data-index="35"></path>
  <path d="M319.9 342.3 c-0.1 -1.7 -0.3 -2.1 -0.6 -1 -0.3 1.1 -1.4 1.7 -3.5 1.7 -2.5 0 -2.8 -0.3 -1.9 -1.4 2.1 -2.5 3 -7.4 2 -11 -1 -3.8 -3.8 -6 -8.7 -7 -3.2 -0.8 -4.6 -3.6 -1.7 -3.6 0.8 0 1.5 -0.9 1.5 -2 0 -2.1 1 -2.4 4.8 -1.4 2.5 0.7 3.1 3.4 0.7 3.4 -0.8 0 -1.5 0.5 -1.5 1 0 0.6 1.1 1 2.5 1 2.2 0 2.5 0.4 2.5 3.5 0 2.8 0.4 3.5 2 3.5 1.7 0 2 0.7 2.1 4.8 0.1 2.6 0.3 3.9 0.6 3 0.6 -2.2 4.3 -2.4 4.3 -0.3 0 2.5 -2.8 8.5 -3.9 8.5 -0.6 0 -1.2 -1.2 -1.2 -2.7z" data-index="36"></path>
  <path d="M206 342.1 c0 -1.6 0.6 -2.1 2.5 -2.1 2.1 0 2.5 -0.5 2.5 -3 0 -2.5 0.4 -3 2.5 -3 1.4 0 2.5 -0.4 2.5 -1 0 -0.5 -1.4 -1 -3 -1 l-3.1 0 5.1 -7.4 c6.1 -9.1 7 -9.8 7 -5.2 0 2.9 -0.4 3.6 -2 3.6 -1.5 0 -2 0.7 -2 2.5 0 2 0.5 2.5 2.5 2.5 2.2 0 2.5 0.4 2.5 3.5 0 2.4 -0.5 3.5 -1.5 3.5 -0.8 0 -1.5 -0.7 -1.5 -1.6 0 -2.6 -1.7 -1.2 -5.7 4.6 -4.1 5.9 -8.3 8 -8.3 4.1z" data-index="37"></path>
  <path d="M201.8 339 l-2.8 -3.5 2.6 -0.3 c3.3 -0.4 3.6 -0.1 3.2 3.9 l-0.3 3.4 -2.7 -3.5z" data-index="38"></path>
  <path d="M405.9 339.8 c-0.1 -1.7 -0.3 -1.8 -0.6 -0.5 -0.3 1.2 -1.5 1.7 -3.9 1.7 -2.9 0 -3.4 -0.3 -3.4 -2.2 0.1 -2.2 0.1 -2.2 1.2 -0.4 0.9 1.6 1.4 1 3.7 -4.9 2.5 -6.5 5.1 -9.6 5.1 -6.1 0 1 0.9 1.6 2.5 1.6 l2.4 0 -2.2 6.2 c-2.3 6.4 -4.6 8.7 -4.8 4.6z" data-index="39"></path>
  <path d="M105 338.5 c0 -1.8 -0.5 -2.5 -2 -2.5 -1.1 0 -2 -0.7 -2 -1.5 0 -0.8 -0.4 -1.5 -1 -1.5 -0.5 0 -1 -0.9 -1 -2 0 -1.1 -0.4 -2 -1 -2 -0.5 0 -1 1.2 -1 2.7 0 2.5 -0.1 2.5 -1.3 0.9 -1.3 -1.8 -1.4 -1.8 -2 -0.2 -0.4 1 -0.5 2.2 -0.1 2.7 0.3 0.5 -0.4 0.9 -1.5 0.9 -1.7 0 -2.1 -0.6 -2.1 -3.5 0 -3.2 0.2 -3.5 3 -3.5 2.3 0 3 -0.4 3 -2 0 -1.1 -0.7 -2 -1.5 -2 -1 0 -1.5 -1.1 -1.5 -3.5 0 -1.9 0.2 -3.5 0.5 -3.5 0.3 0 3.7 4.3 7.6 9.6 7.5 10.1 9.5 10.8 8.2 3.2 -0.5 -3.4 -0.3 -3.8 1.6 -3.8 1.9 0 2.1 0.6 2.1 5.4 0 7.5 -0.6 8.6 -4.6 8.6 -3 0 -3.4 -0.3 -3.4 -2.5z" data-index="40"></path>
  <path d="M254 339.3 c0 -1 -0.3 -4.2 -0.6 -7 -0.6 -4.4 -0.4 -5.3 0.8 -5.3 0.9 0 1.8 0.9 2.1 2 0.3 1.1 1.2 2 2.1 2 0.9 0 1.6 0.7 1.6 1.5 0 1.1 1.2 1.5 5.1 1.5 4.3 0 5 0.3 4.7 1.8 -0.3 1.4 -1.6 1.8 -7.1 2 -5.1 0.2 -6.7 0.6 -6.7 1.7 0 0.8 -0.4 1.5 -1 1.5 -0.5 0 -1 -0.8 -1 -1.7z" data-index="41"></path>
  <path d="M192 332.5 c0 -3.3 0.2 -3.5 3.5 -3.5 3.1 0 3.5 0.3 3.5 2.6 0 2.3 -0.2 2.5 -1.6 1.4 -1.3 -1.1 -1.6 -1 -2.1 0.8 -0.9 3.6 -3.3 2.7 -3.3 -1.3z" data-index="42"></path>
  <path d="M114 325.4 c0 -8.6 0.2 -9.5 1.8 -9.2 3.2 0.6 2.9 18.8 -0.3 18.8 -1.2 0 -1.5 -1.9 -1.5 -9.6z" data-index="43"></path>
  <path d="M388.6 333.1 c-0.3 -0.4 -1 -2 -1.5 -3.5 -1 -2.4 -0.8 -2.6 1.4 -2.6 2.2 0 2.5 0.4 2.5 3.5 0 3.3 -1.2 4.6 -2.4 2.6z" data-index="44"></path>
  <path d="M296 323.5 c0 -3.3 0.2 -3.5 3.5 -3.5 3.9 0 5 2.4 1.5 3.3 -1.1 0.3 -2 1.2 -2 2.1 0 0.9 -0.7 1.6 -1.5 1.6 -1 0 -1.5 -1.1 -1.5 -3.5z" data-index="45"></path>
  <path d="M254 322.5 c0 -3.5 0 -3.5 4.5 -3.5 3.8 0 4.5 0.3 4.5 2 0 1.6 -0.7 2 -3.5 2 -2.4 0 -3.5 0.5 -3.5 1.5 0 0.8 -0.4 1.5 -1 1.5 -0.5 0 -1 -1.6 -1 -3.5z" data-index="46"></path>
  <path d="M349 322.5 l0 -3.5 7.5 0 c6.8 0 7.5 0.2 7.5 2 0 1.8 -0.7 2 -6.5 2 -5.1 0 -6.5 0.3 -6.5 1.5 0 0.8 -0.4 1.5 -1 1.5 -0.5 0 -1 -1.6 -1 -3.5z" data-index="47" style="opacity: 1;"></path>
  <path d="M384.6 323.1 c-0.3 -0.4 -1 -2 -1.5 -3.5 -1 -2.4 -0.8 -2.6 1.4 -2.6 2.2 0 2.5 0.4 2.5 3.5 0 3.3 -1.2 4.6 -2.4 2.6z" data-index="48"></path>
  <path d="M408.1 319 c0.6 -1.6 1.7 -3 2.5 -3 0.9 0 1.4 1.1 1.4 3 0 2.5 -0.4 3 -2.4 3 -2.3 0 -2.4 -0.2 -1.5 -3z" data-index="49"></path>
  <path d="M342.4 318.8 c0.5 -3.4 3.6 -3.6 3.6 -0.4 0 1.9 -0.5 2.6 -2 2.6 -1.5 0 -1.9 -0.6 -1.6 -2.2z" data-index="50"></path>
  <path d="M249 286 c0 -0.5 -0.7 -1 -1.5 -1 -2.4 0 -1.8 -1.4 1.4 -3.3 3.6 -2.1 4.1 -2.1 4.1 -0.2 0 0.8 0.9 1.5 2 1.5 2.7 0 2.5 2.6 -0.2 3.4 -3.4 0.9 -5.8 0.7 -5.8 -0.4z" data-index="51"></path>
  <path d="M261 284.1 c0 -1.8 3.9 -3.1 9.8 -3.1 4.4 0 2.3 2.8 -2.8 3.9 -6.7 1.4 -7 1.4 -7 -0.8z" data-index="52"></path>
  <path d="M305.1 279.1 c-3.4 -1.8 -6 -5.3 -6.1 -8.1 0 -3.2 2.2 -9.1 4.4 -11.7 l2.4 -2.9 11.4 0.9 c20.9 1.7 33.2 -2 44.9 -13.5 3.5 -3.5 6.9 -7.2 7.6 -8.3 1 -1.7 1.1 -1.6 0.3 1 -1.4 5.1 -5.6 12.7 -10.6 19.5 l-4.9 6.5 -0.3 -3.2 c-0.3 -3.3 -0.3 -3.3 -3.2 -1.8 -1.6 0.8 -3.7 1.5 -4.8 1.5 -1 0 -2.2 0.4 -2.7 0.9 -1.9 1.6 -13.7 3.2 -23.1 3 -6 -0.1 -9.9 0.2 -10.7 1 -0.6 0.6 -2.4 1.1 -3.9 1.1 -2.7 0 -2.8 0.2 -2.8 4.5 0 3.3 0.4 4.5 1.5 4.5 0.8 0 1.5 0.7 1.5 1.5 0 1 1 1.5 3 1.5 2.3 0 3 0.4 3 2 0 2.5 -2.3 2.5 -6.9 0.1z" data-index="53"></path>
  <path d="M318 279 c0 -1.6 0.9 -2.1 5 -2.6 2.8 -0.4 5 -1 5 -1.5 0 -0.5 1.6 -0.9 3.6 -0.9 5.4 0 3.8 2.2 -3.7 4.7 -8.1 2.8 -9.9 2.9 -9.9 0.3z" data-index="54"></path>
  <path d="M259.5 275 c0.3 -0.5 1.9 -1.9 3.5 -3 l3 -2.1 0 3 c0 2.9 -0.3 3.1 -3.6 3.1 -2 0 -3.3 -0.4 -2.9 -1z" data-index="55"></path>
  <path d="M338 271.5 c0 -1.6 0.6 -2.5 1.5 -2.5 0.8 0 1.5 -0.4 1.5 -1 0 -0.5 0.9 -1 2 -1 1.1 0 2 -0.7 2 -1.5 0 -1 1.1 -1.5 3.5 -1.5 1.9 0 3.5 0.2 3.5 0.5 0 0.8 -12.1 9.5 -13.1 9.5 -0.5 0 -0.9 -1.1 -0.9 -2.5z" data-index="56"></path>
  <path d="M290 264.5 c0 -2.8 0.4 -3.5 2 -3.5 1.6 0 2 -0.7 2 -3 0 -2.5 0.4 -3 2.5 -3 1.4 0 2.5 0.3 2.5 0.6 0 1.1 -7.5 12.4 -8.2 12.4 -0.5 0 -0.8 -1.6 -0.8 -3.5z" data-index="57"></path>
  <path d="M280.1 256.8 c0.6 -1.3 2.5 -3.8 4.2 -5.5 2.9 -3.1 3 -3.4 1.4 -5.1 -0.9 -1 -1.7 -2.1 -1.7 -2.5 0 -0.3 2.4 -2.4 5.3 -4.6 6.3 -4.7 13.7 -6.1 13.7 -2.6 0 3.2 -11.9 14.5 -15.3 14.5 -2.5 0 -2.7 0.3 -2.7 4 0 3.8 -0.2 4 -3 4 -2.9 0 -3 -0.2 -1.9 -2.2z" data-index="58" style="opacity: 1;"></path>
  <path d="M179 254.1 c0 -1.4 7.3 -5.1 10 -5.1 3.1 0 2.4 1.9 -1.3 3.5 -5.3 2.2 -8.7 2.8 -8.7 1.6z" data-index="59"></path>
  <path d="M300 249.8 c0 -3.4 0.3 -3.8 2.5 -3.8 3.1 0 3.2 1.1 0 4.7 l-2.4 2.8 -0.1 -3.7z" data-index="60"></path>
  <path d="M142.4 241.3 c-3.8 -4.1 -7 -10.2 -8 -14.9 -0.5 -2.8 -0.3 -3.2 2.1 -3.8 1.5 -0.4 2.9 -0.5 3.1 -0.3 0.2 0.2 0.9 3 1.5 6.2 0.9 4.8 3 10.7 5.6 15.8 1.1 1.9 -1.3 0.3 -4.3 -3z" data-index="61"></path>
  <path d="M203.5 237 c0.3 -0.5 1.9 -1.9 3.5 -3 l3 -2.1 0 3 c0 2.9 -0.3 3.1 -3.6 3.1 -2 0 -3.3 -0.4 -2.9 -1z" data-index="62"></path>
  <path d="M313 230.8 c0 -3.4 0.3 -3.8 2.4 -3.8 2.1 0 2.5 -0.6 2.8 -3.2 0.3 -2.9 0.7 -3.3 3.7 -3.6 l3.3 -0.3 -2.1 2.8 c-1.1 1.5 -3.9 4.8 -6 7.3 l-4 4.5 -0.1 -3.7z" data-index="63"></path>
  <path d="M121.2 215.5 c-0.7 -1.4 -1.2 -3.9 -1.2 -5.4 0 -1.6 -0.6 -3.1 -1.4 -3.4 -1.4 -0.5 -3.6 -6.4 -3.6 -9.4 0 -0.7 0.8 -1.3 1.9 -1.3 1.4 0 2.1 1 2.7 3.8 0.5 2.6 0.9 3.1 1.1 1.7 1 -4.7 3.5 -11.5 4.4 -11.5 0.5 0 0.9 -0.9 0.9 -1.9 0 -1.1 0.7 -2.6 1.5 -3.5 0.8 -0.8 1.5 -1.9 1.5 -2.3 0 -1.8 6.7 -7.3 8.8 -7.3 1.5 0 2.2 -0.6 2.2 -2 0 -1.1 0.8 -2.4 1.8 -2.7 0.9 -0.4 2.1 -1.2 2.5 -2 0.4 -0.7 1.5 -1.3 2.2 -1.3 0.8 0 1.5 -0.4 1.5 -0.9 0 -0.9 9.1 -5.1 11.2 -5.1 0.7 0 2.6 -0.7 4.2 -1.5 1.7 -0.9 7.1 -1.8 13.3 -2.2 8.9 -0.5 10.3 -0.4 10.3 0.9 0 1.8 -2.9 2.8 -8.5 2.8 -4.9 0 -19.6 4.1 -24.8 6.8 -8 4.3 -19.2 14 -23.1 20.2 -4.4 6.8 -6.8 15 -6.8 22.8 0.1 7.6 -0.7 8.9 -2.6 4.7z" data-index="64"></path>
  <path d="M137.3 206.5 c0.4 -3.8 0.2 -6.5 -0.3 -6.5 -2.6 0 5.3 -12.4 9.9 -15.5 3.8 -2.6 5.5 -1.7 2.7 1.4 -3.5 3.9 -9.6 20.8 -9.6 26.8 0 0.2 -0.7 0.3 -1.6 0.3 -1.5 0 -1.6 -0.9 -1.1 -6.5z" data-index="65"></path>
  <path d="M232.6 209.3 c1 -1 2.6 -2.7 3.6 -3.7 1.8 -1.9 1.8 -1.9 1.8 1.7 0 3.6 -0.1 3.7 -3.6 3.7 -3.4 0 -3.5 -0.1 -1.8 -1.7z" data-index="66"></path>
  <path d="M277.5 202.8 c8.8 -8.3 9.5 -8.7 9.5 -6.1 0 2.5 -8.2 10.3 -10.8 10.3 -1.3 0 -2.2 0.6 -2.2 1.5 0 0.9 -0.9 1.5 -2.2 1.5 -1.7 0 -0.5 -1.5 5.7 -7.2z" data-index="67"></path>
  <path d="M267.5 205 c-0.8 -1.3 0.3 -3 2 -3 0.7 0 1.5 -0.7 1.9 -1.5 0.6 -1.6 7.6 -2.2 7.6 -0.7 0 1.5 -3.6 4.2 -5.4 4.2 -0.9 0 -2.6 0.5 -3.6 1 -1.3 0.7 -2.1 0.7 -2.5 0z" data-index="68"></path>
  <path d="M242 199 c3.1 -4.4 4 -4.5 4 -0.6 0 3.3 -0.2 3.6 -3.1 3.6 l-3 0 2.1 -3z" data-index="69"></path>
  <path d="M279.4 197.5 c-0.7 -1.8 0.5 -4.6 2.3 -5.2 2.1 -0.7 2.4 3 0.4 5.1 -1.9 1.9 -2.1 1.9 -2.7 0.1z" data-index="70"></path>
  <path d="M265 193.2 c0 -2.3 1.2 -4 5.9 -8.1 3.8 -3.2 6.9 -5.1 8.5 -5.1 2.5 0 2.5 0.1 0.9 2.8 -0.9 1.5 -3.6 4.3 -6.1 6.2 -2.5 1.9 -5.5 4.3 -6.8 5.3 l-2.4 1.9 0 -3z" data-index="71"></path>
  <path d="M249.7 188.8 c0.6 -0.7 4.4 -6 8.6 -11.8 4.2 -5.8 8.5 -11.6 9.6 -13 l2 -2.5 0.1 3.7 c0 2 -0.7 4.3 -1.5 5.2 -0.8 0.8 -1.5 1.9 -1.5 2.5 0 0.6 -0.7 1.1 -1.5 1.1 -0.8 0 -1.5 0.9 -1.5 2 0 1.1 -0.7 2.3 -1.5 2.6 -0.8 0.4 -1.5 1.2 -1.5 2 0 0.8 -0.7 1.4 -1.5 1.4 -0.8 0 -1.5 0.9 -1.5 2 0 1.1 -0.7 2 -1.5 2 -0.8 0 -1.5 0.9 -1.5 2 0 1.6 -0.7 2 -3.1 2 -2.4 0 -2.9 -0.3 -2.2 -1.2z" data-index="72"></path>
  <path d="M114 178 c0 -3.7 2.4 -11 3.6 -11 1.5 0 1.7 2.3 0.8 8.3 -0.5 2.7 -1.1 3.7 -2.5 3.7 -1.1 0 -1.9 -0.4 -1.9 -1z" data-index="73"></path>
  <path d="M244.5 169 c-1.9 -1.3 -3.9 -1.8 -5.6 -1.5 -1.4 0.3 -6.5 -0.6 -11.5 -2 -9.6 -2.8 -25.3 -5.5 -32.1 -5.5 -3.6 0 -4.3 -0.3 -4.3 -1.9 0 -2.6 2 -3.2 14 -3.8 11.3 -0.6 17.8 0.5 29.1 5.1 4.9 2 6 2.1 7 1 0.7 -0.8 3 -1.4 5.5 -1.4 3.2 0 4.4 -0.4 4.4 -1.5 0 -0.9 0.9 -1.5 2.1 -1.5 1.9 0 2 0.4 1.4 3.6 -0.6 3.5 -5.1 11.4 -6.4 11.4 -0.3 0 -1.9 -0.9 -3.6 -2z" data-index="74" style="opacity: 1;"></path>
  <path d="M276.3 155.5 c3.6 -3.2 4.7 -3.1 4.7 0 0 2.2 -0.4 2.5 -3.7 2.5 l-3.8 -0.1 2.8 -2.4z" data-index="75"></path>
  <path d="M121 156.2 c0 -0.5 1.5 -2.9 3.3 -5.3 l3.2 -4.4 0.3 3.5 c0.2 1.9 -0.1 3.6 -0.7 3.8 -0.6 0.2 -1.1 1 -1.1 1.8 0 0.8 -1 1.4 -2.5 1.4 -1.4 0 -2.5 -0.4 -2.5 -0.8z" data-index="76"></path>
  <path d="M251 150.5 c0 -1.9 -0.4 -3.5 -1 -3.5 -0.5 0 -1 -0.9 -1 -2 0 -1.1 -0.6 -2 -1.3 -2 -1.7 0 -5.7 -4.6 -5.7 -6.5 0 -0.9 -1 -1.5 -2.5 -1.5 -2.1 0 -2.5 -0.5 -2.5 -3.1 l0 -3 3.2 2.2 c6.7 4.8 12.5 11.7 13.7 16.3 1.5 6 1.4 6.6 -0.9 6.6 -1.6 0 -2 -0.7 -2 -3.5z" data-index="77"></path>
  <path d="M139 135.5 c0 -0.7 8.1 -6.5 9.2 -6.5 0.4 0 0.8 1.1 0.8 2.5 0 1.6 -0.6 2.5 -1.5 2.5 -0.8 0 -1.5 0.5 -1.5 1 0 0.6 -1.6 1 -3.5 1 -1.9 0 -3.5 -0.2 -3.5 -0.5z" data-index="78"></path>
  <path d="M154 126.9 c0 -1.2 5.3 -3.5 14 -6 8.1 -2.4 9 -2.4 9 0 0 1.9 -3.4 3.1 -8.6 3.1 -1.3 0 -2.4 0.5 -2.4 1 0 0.6 -1.1 1 -2.5 1 -1.4 0 -2.5 0.5 -2.5 1 0 0.6 -1.6 1 -3.5 1 -1.9 0 -3.5 -0.5 -3.5 -1.1z" data-index="79"></path>
  <path d="M224 125.5 c0 -2.4 0.1 -2.5 3.2 -1.2 4.6 1.9 4.8 3.7 0.4 3.7 -3.2 0 -3.6 -0.3 -3.6 -2.5z" data-index="80"></path>
  <path d="M212 122 c0 -2.1 1 -2.4 4.8 -1.4 3.6 1 2.7 3.4 -1.3 3.4 -2.8 0 -3.5 -0.4 -3.5 -2z" data-index="81"></path>
  <path d="M202 120 c0 -2.1 1 -2.4 4.8 -1.4 3.6 1 2.7 3.4 -1.3 3.4 -2.8 0 -3.5 -0.4 -3.5 -2z" data-index="82"></path>
 </g>
 <g fill="#027f7a">
  <path d="M398 351 c0 -1.6 0.7 -2 3.5 -2 3.7 0 4.3 0.8 2.3 2.8 -2 2 -5.8 1.5 -5.8 -0.8z" data-index="83"></path>
  <path d="M315 347.9 c0 -2.9 2.6 -5.1 5.6 -4.7 l2.7 0.3 -3.1 3.3 c-3.5 3.7 -5.2 4.1 -5.2 1.1z" data-index="84"></path>
  <path d="M102.2 341.5 l-2.2 -3.5 3 0 c2.8 0 3 0.3 3 3.5 0 4.4 -0.9 4.4 -3.8 0z" data-index="85"></path>
  <path d="M164 341.5 c0 -2.8 0.4 -3.5 2 -3.5 2.1 0 2.4 1 1.4 4.8 -1 3.6 -3.4 2.7 -3.4 -1.3z" data-index="86"></path>
  <path d="M137.6 341.8 c-1 -3.8 -0.7 -4.8 1.4 -4.8 1.6 0 2 0.7 2 3.5 0 4 -2.4 4.9 -3.4 1.3z" data-index="87"></path>
  <path d="M205.3 343.3 c-2.3 -0.9 -1.4 -3.3 1.2 -3.3 1.6 0 2.5 -0.6 2.5 -1.5 0 -0.8 0.9 -1.5 2 -1.5 1.6 0 2 -0.7 2 -3 0 -2.7 0.3 -3 3 -3 l3 0 -4 5.9 c-4.6 6.7 -6.3 7.8 -9.7 6.4z" data-index="88"></path>
  <path d="M90 335.5 c0 -4 2.4 -4.9 3.4 -1.2 1 3.7 0.7 4.7 -1.4 4.7 -1.6 0 -2 -0.7 -2 -3.5z" data-index="89"></path>
  <path d="M199.8 336 l-2.8 -3.5 2.6 -0.3 c3.3 -0.4 3.6 -0.1 3.2 3.9 l-0.3 3.4 -2.7 -3.5z" data-index="90"></path>
  <path d="M385.5 325.8 c-1.3 -3.2 -1.3 -3.3 1.1 -3.6 1.6 -0.2 2.4 -1 2.4 -2.3 0 -3 2.2 -1.8 3.7 1.9 1.3 3.1 1.2 3.2 -1.2 3.2 -1.8 0 -2.5 0.5 -2.5 2 0 3.1 -1.9 2.4 -3.5 -1.2z" data-index="91"></path>
  <path d="M318 325 c0 -1.3 -0.7 -2 -2 -2 -1.5 0 -2 -0.7 -2 -2.5 0 -3.4 1.6 -3.1 5.6 0.9 4 4 4.3 5.6 0.9 5.6 -1.8 0 -2.5 -0.5 -2.5 -2z" data-index="92"></path>
  <path d="M353.3 322.3 c-0.7 -0.2 -1.3 -1.1 -1.3 -1.9 0 -1.1 1.7 -1.4 7.6 -1.4 6.6 0 7.5 0.2 7.2 1.8 -0.3 1.4 -1.5 1.7 -6.3 1.9 -3.3 0.1 -6.6 -0.1 -7.2 -0.4z" data-index="93"></path>
  <path d="M383.1 319.1 c-1.1 -2 -0.5 -3.1 1.6 -3.1 0.7 0 1.3 1.1 1.3 2.5 0 2.9 -1.5 3.3 -2.9 0.6z" data-index="94"></path>
  <path d="M305.3 278.9 c-4.2 -2.1 -7 -6.7 -5.9 -10 0.2 -0.8 0.7 -2.6 1 -4.1 0.5 -2 1.3 -2.8 2.8 -2.8 1.2 0 3.2 -1 4.4 -2.1 2 -1.9 2.7 -2 5.5 -1 5.7 2 24.4 0.6 27.4 -2 0.5 -0.5 1.8 -0.9 2.9 -0.9 1.1 0 4.3 -1.3 7.3 -3 2.9 -1.6 5.6 -3 5.9 -3 0.3 0 0.4 1.3 0.2 3 -0.3 2 0 3 1 3.2 2.1 0.4 -5.4 8.5 -12.7 13.6 l-6.1 4.3 0 -3 c0 -2.9 0.3 -3.1 3.5 -3.1 3.1 0 3.5 -0.3 3.5 -2.5 0 -2.2 0.4 -2.5 3.5 -2.5 3.2 0 3.5 -0.2 3.5 -3 l0 -3 -3.7 1.7 c-2.1 0.8 -4.7 1.9 -5.8 2.4 -4.2 1.6 -14.2 2.9 -22.1 2.9 -4.6 0 -8.6 0.5 -8.9 1 -0.3 0.6 -1.5 1 -2.5 1 -1 0 -2.2 0.9 -2.5 2 -0.3 1.1 -1.5 2 -2.6 2 -3.6 0 -1.5 4 2.9 5.4 1.5 0.5 2.2 1.5 2.2 3.2 0 1.3 -0.1 2.4 -0.2 2.4 -0.2 0 -2.2 -0.9 -4.5 -2.1z" data-index="95" style="opacity: 1;"></path>
  <path d="M317 279 c0 -1.6 0.7 -2 3.5 -2 4 0 4.9 2.4 1.3 3.4 -3.8 1 -4.8 0.7 -4.8 -1.4z" data-index="96"></path>
  <path d="M279 277.1 c0 -2.9 0.3 -3.1 3.6 -3.1 3.9 0 3.8 0.9 -0.6 4 l-3 2.1 0 -3z" data-index="97"></path>
  <path d="M325 277 c0 -1.5 0.7 -2 2.5 -2 1.4 0 2.5 -0.4 2.5 -1 0 -0.5 1.6 -1 3.5 -1 4.8 0 4.4 1.7 -1.1 4 -5.8 2.5 -7.4 2.5 -7.4 0z" data-index="98"></path>
  <path d="M295 256.5 c0 -3.2 0.2 -3.5 3 -3.5 l3 0 -2.2 3.5 c-2.9 4.4 -3.8 4.4 -3.8 0z" data-index="99"></path>
  <path d="M280.8 256.3 c0.6 -0.2 1.2 -1 1.2 -1.7 0 -1.2 10.1 -11.6 11.3 -11.6 0.4 0 0.7 1.6 0.7 3.5 0 2.8 -0.4 3.5 -2 3.5 -1.1 0 -2 0.6 -2 1.3 0 2.2 -4.7 5.7 -7.6 5.6 -1.6 0 -2.3 -0.3 -1.6 -0.6z" data-index="100"></path>
  <path d="M359 251.3 c0 -3.1 0.6 -4.5 2.8 -6.4 1.5 -1.4 4 -4.1 5.6 -6 2.5 -3 2.7 -3.1 2.1 -0.9 -1 3.5 -7.1 14.4 -9 16 -1.3 1.1 -1.5 0.7 -1.5 -2.7z" data-index="101"></path>
  <path d="M303 244.5 c0 -3.1 0.3 -3.5 2.5 -3.5 3 0 3 0.3 0.8 4.1 -2.3 3.8 -3.3 3.7 -3.3 -0.6z" data-index="102"></path>
  <path d="M140.6 239 c-1.4 -1.7 -2.8 -4.6 -3.2 -6.5 -0.3 -1.9 -1 -3.5 -1.4 -3.5 -1.3 0 -2.3 -6.2 -1.2 -6.9 0.5 -0.3 1.2 -3.4 1.3 -6.9 0.3 -4.8 0.1 -6.2 -1 -6.2 -1.8 0 -0.9 -4.6 2.3 -11.4 2.6 -5.8 6.4 -10.6 10.6 -13.6 2.9 -2 2.9 -2 -1.5 6.5 -2.4 4.8 -4.9 11.2 -5.6 14.3 -1.6 8.1 -0.7 24.4 1.9 31.5 2.3 6.4 1.6 7.2 -2.2 2.7z" data-index="103"></path>
  <path d="M317 225.6 c0 -3.3 0.2 -3.6 3.1 -3.6 l3 0 -2.1 3 c-3.1 4.4 -4 4.5 -4 0.6z" data-index="104"></path>
  <path d="M120.5 213.8 c-1.3 -2.9 -2 -5.5 -1.6 -5.8 0.5 -0.3 1.2 -2.9 1.6 -5.7 0.6 -4.6 1 -5.3 2.9 -5.3 2.3 0 2.3 0 0.9 5.3 -0.9 3.2 -1.2 7.4 -0.9 11 0.3 3.1 0.3 5.7 0 5.7 -0.3 0 -1.6 -2.3 -2.9 -5.2z" data-index="105"></path>
  <path d="M114.6 195.8 c-1 -3.8 -0.7 -4.8 1.4 -4.8 1.6 0 2 0.7 2 3.5 0 4 -2.4 4.9 -3.4 1.3z" data-index="106"></path>
  <path d="M246 194 c3.1 -4.4 4 -4.5 4 -0.6 0 3.3 -0.2 3.6 -3.1 3.6 l-3 0 2.1 -3z" data-index="107"></path>
  <path d="M125 190.5 c0 -1.9 0.4 -3.5 0.9 -3.5 0.5 0 1.1 -1 1.3 -2.2 0.2 -1.8 1.1 -2.4 3.5 -2.6 l3.2 -0.3 -3.6 6 c-2 3.4 -4 6.1 -4.5 6.1 -0.4 0 -0.8 -1.6 -0.8 -3.5z" data-index="108"></path>
  <path d="M256.1 180.6 c1.7 -2.5 4.4 -6 6 -7.8 l2.8 -3.3 0.1 3.8 c0 2.6 -0.4 3.7 -1.5 3.7 -0.8 0 -1.5 0.9 -1.5 2 0 1.1 -0.7 2 -1.5 2 -0.8 0 -1.5 0.9 -1.5 2 0 1.6 -0.7 2 -3.1 2 l-3 0 3.2 -4.4z" data-index="109"></path>
  <path d="M136.2 176.9 c0.2 -2.9 0.7 -3.4 3.1 -3.7 1.9 -0.2 2.7 -0.9 2.7 -2.3 0 -1.2 0.7 -1.9 2 -1.9 1.1 0 2 -0.6 2 -1.3 0 -1.7 4.9 -5.3 9.7 -7.1 2.1 -0.8 7.9 -3.2 12.8 -5.3 l9 -3.8 20 0.3 c11 0.2 20.2 0.7 20.5 1.2 0.3 0.4 2.5 1.1 5 1.4 2.5 0.4 5.4 1.1 6.5 1.5 6.3 2.6 7.3 2.9 8.1 2.1 0.5 -0.5 2.3 -1 3.9 -1.2 2.4 -0.2 3.1 -0.8 3.3 -3 0.2 -1.6 0.8 -2.8 1.3 -2.8 0.5 0 0.9 -0.9 0.9 -2 0 -1.2 0.7 -2 1.8 -2.1 1 0 1.2 -0.3 0.5 -0.6 -0.7 -0.2 -1.3 -2.1 -1.3 -4 0 -3.1 0.2 -3.4 1.6 -2.2 4.1 3.4 6.5 14.1 4.4 20.3 -1.2 3.8 -2.8 4.4 -6 2.4 -1.6 -1 -2.3 -0.9 -4.5 1.2 -2.4 2.2 -2.8 2.3 -5.8 1.1 -17.9 -7.4 -26.9 -9.1 -37.2 -7.1 -3.3 0.6 -11.7 1.5 -18.6 2 -7.7 0.6 -13.7 1.5 -15.5 2.5 -1.6 0.8 -3.6 1.5 -4.4 1.5 -2.9 0 -11.6 4.8 -17.5 9.5 -3.3 2.6 -6.6 5.3 -7.3 5.8 -1.1 0.9 -1.3 0.4 -1 -2.4z" data-index="110"></path>
  <path d="M116.3 168.1 c1.6 -7.9 5.7 -13.3 5.7 -7.5 0 5.1 -2.2 10.4 -4.3 10.4 -1.6 0 -1.9 -0.5 -1.4 -2.9z" data-index="111"></path>
  <path d="M266 167.1 c0 -0.6 1.1 -2.3 2.5 -3.8 l2.4 -2.8 0.1 3.8 c0 3.3 -0.3 3.7 -2.5 3.7 -1.4 0 -2.5 -0.4 -2.5 -0.9z" data-index="112"></path>
  <path d="M305 161.6 c0 -2.3 0.4 -2.6 3.5 -2.6 3.7 0 5 2.3 1.8 3.3 -1 0.2 -2.6 0.8 -3.5 1.2 -1.5 0.6 -1.8 0.2 -1.8 -1.9z" data-index="113"></path>
  <path d="M284 152.6 c0 -0.8 1.4 -1.7 3.1 -2.1 4.2 -0.9 9.9 0.2 9.9 2 0 1.2 -1.5 1.5 -6.5 1.5 -4.9 0 -6.5 -0.3 -6.5 -1.4z" data-index="114"></path>
  <path d="M127 147 c3.1 -4.4 4 -4.5 4 -0.6 0 3.3 -0.2 3.6 -3.1 3.6 l-3 0 2.1 -3z" data-index="115"></path>
  <path d="M134.5 139 c0.3 -0.5 1.9 -1.9 3.5 -3 l3 -2.1 0 3 c0 2.9 -0.3 3.1 -3.6 3.1 -2 0 -3.3 -0.4 -2.9 -1z" data-index="116"></path>
  <path d="M234 130.5 c0 -3.1 1.1 -3.2 4.7 0 l2.8 2.4 -3.7 0.1 c-3.4 0 -3.8 -0.3 -3.8 -2.5z" data-index="117"></path>
  <path d="M221 126 c0 -0.5 -1.3 -1 -3 -1 -2.4 0 -3 -0.4 -3 -2.1 0 -1.8 0.4 -2.1 2.9 -1.6 4.6 0.9 10.1 3.5 10.1 4.6 0 0.6 -1.6 1.1 -3.5 1.1 -1.9 0 -3.5 -0.4 -3.5 -1z" data-index="118"></path>
  <path d="M207 121 c0 -2.1 1 -2.4 4.8 -1.4 3.6 1 2.7 3.4 -1.3 3.4 -2.8 0 -3.5 -0.4 -3.5 -2z" data-index="119"></path>
  <path d="M176 120.6 c0 -1.3 2.8 -2.6 5.8 -2.6 0.6 0 1.2 0.9 1.2 2 0 1.6 -0.7 2 -3.5 2 -2.3 0 -3.5 -0.5 -3.5 -1.4z" data-index="120"></path>
 </g>
 <g fill="#a6194b">
  <path d="M148.8 353.3 c-1 -0.2 -1.8 -1.1 -1.8 -1.9 0 -1 1.4 -1.4 5.5 -1.4 4 0 5.5 0.4 5.5 1.4 0 2.1 -4.8 3.1 -9.2 1.9z" data-index="121"></path>
  <path d="M192 347 c0 -4.6 0.3 -6 1.5 -6 1.9 0 3.1 6.5 1.6 9.6 -1.8 4.1 -3.1 2.7 -3.1 -3.6z" data-index="122"></path>
  <path d="M220 351 c0 -1.3 0.7 -2 2 -2 1.3 0 2 0.7 2 2 0 1.3 -0.7 2 -2 2 -1.3 0 -2 -0.7 -2 -2z" data-index="123"></path>
  <path d="M364 350 c0 -2.3 0.4 -3 2 -3 2 0 2.5 1.5 1.4 4.4 -1.1 2.8 -3.4 1.8 -3.4 -1.4z" data-index="124"></path>
  <path d="M396.4 352.2 c-0.6 -0.4 -1.8 -2.6 -2.7 -4.9 -1.6 -4.2 -1.6 -4.3 0.3 -4.3 1.6 0 2 -0.7 2 -3.5 0 -4 1.4 -4.6 3.1 -1.3 l1.2 2.1 1.3 -2.4 c1.3 -2.4 1.3 -2.3 1.4 1.4 0 3.5 -0.2 3.7 -3 3.7 -2.5 0 -3 0.4 -3 2.5 0 1.4 0.5 2.5 1 2.5 0.6 0 1 1.1 1 2.5 0 2.6 -0.7 3 -2.6 1.7z" data-index="125"></path>
  <path d="M106.8 347.6 c-1.8 -2.5 -5.3 -7.2 -7.7 -10.5 -2.5 -3.3 -4.8 -5.8 -5.3 -5.5 -0.4 0.3 -0.8 0 -0.8 -0.5 0 -0.6 1.6 -1.1 3.5 -1.1 2.8 0 3.5 0.4 3.5 2 0 1.1 0.7 2 1.5 2 1 0 1.5 1.1 1.5 3.5 0 3.1 0.3 3.5 2.5 3.5 1.8 0 2.5 0.5 2.5 2 0 1.1 0.7 2 1.5 2 1 0 1.5 1.1 1.5 3.5 0 1.9 -0.2 3.5 -0.5 3.5 -0.2 0 -1.9 -2 -3.7 -4.4z" data-index="126"></path>
  <path d="M342.6 348.8 c-0.3 -1.3 -0.6 -8.3 -0.6 -15.5 0 -12.6 0.1 -13.3 2 -13.3 1.9 0 2 0.7 2 15.5 0 12.5 -0.3 15.5 -1.4 15.5 -0.7 0 -1.6 -1 -2 -2.2z" data-index="127"></path>
  <path d="M316.4 336.8 c0.3 -1.3 0.5 -2.9 0.5 -3.5 0.1 -0.7 0.8 -1.3 1.6 -1.3 1 0 1.5 1.1 1.5 3.5 0 2.8 -0.4 3.5 -2 3.5 -1.5 0 -1.9 -0.5 -1.6 -2.2z" data-index="128"></path>
  <path d="M266.3 337.3 c-1.5 -0.6 -1.7 -3.3 -0.3 -3.3 0.6 0 1 -0.7 1 -1.5 0 -0.8 0.9 -1.5 2 -1.5 1.5 0 2 0.7 2 2.9 0 1.7 -0.6 3.1 -1.6 3.5 -0.9 0.3 -1.6 0.6 -1.7 0.5 -0.1 0 -0.8 -0.3 -1.4 -0.6z" data-index="129"></path>
  <path d="M358 336.1 c0 -1.7 0.6 -2.1 3.6 -2.1 2.8 0 3.5 0.3 3.2 1.8 -0.2 1.1 -1.4 1.8 -3.6 2 -2.7 0.3 -3.2 0 -3.2 -1.7z" data-index="130"></path>
  <path d="M392 329.4 c0 -4.4 1.8 -4.2 3.7 0.4 1.3 3.1 1.2 3.2 -1.2 3.2 -2.2 0 -2.5 -0.4 -2.5 -3.6z" data-index="131"></path>
  <path d="M109 322.5 c0 -5.8 0.2 -6.5 2 -6.5 1.8 0 2 0.7 2 6.5 0 5.8 -0.2 6.5 -2 6.5 -1.8 0 -2 -0.7 -2 -6.5z" data-index="132"></path>
  <path d="M114 318.5 c0 -1.4 0.6 -2.5 1.3 -2.5 2 0 2.5 0.9 2 3.1 -0.8 2.8 -3.3 2.4 -3.3 -0.6z" data-index="133"></path>
  <path d="M192 318.5 c0 -1.5 0.6 -2.5 1.4 -2.5 0.7 0 2.1 1.1 3 2.5 1.6 2.5 1.6 2.5 -1.4 2.5 -2.5 0 -3 -0.4 -3 -2.5z" data-index="134"></path>
  <path d="M187 318 c0 -1.3 0.7 -2 2 -2 1.3 0 2 0.7 2 2 0 1.3 -0.7 2 -2 2 -1.3 0 -2 -0.7 -2 -2z" data-index="135"></path>
  <path d="M387 318 c0 -1.3 0.7 -2 1.9 -2 1 0 2.1 0.9 2.4 2 0.4 1.6 0 2 -1.9 2 -1.7 0 -2.4 -0.6 -2.4 -2z" data-index="136"></path>
  <path d="M169 292.6 c-14.4 -2.7 -23.5 -7.3 -33.7 -16.9 -8.5 -8.1 -13.2 -14.5 -19.1 -26.3 -6.4 -12.7 -9.3 -25.3 -9.7 -41.4 -0.3 -11 -0.2 -12.7 0.6 -9 4 17.2 10.2 31.3 18 40.7 2.2 2.7 3.4 5 2.9 5.3 -0.6 0.4 -0.3 1.4 0.9 2.4 1.1 1 2 1.3 2.2 0.7 0.2 -0.6 2.4 0.6 4.9 2.5 8.5 6.8 21 12 33.3 13.9 5.2 0.8 5.1 3.5 -0.3 3.5 -6.2 0 -13.9 -2 -22 -5.6 -8.6 -3.9 -6.9 -2.1 4.6 5 11.6 7.1 27.1 11.9 38.4 11.7 5.8 0 16.4 -2.9 26.5 -7.1 15.9 -6.7 40.3 -25.6 59 -45.7 3.7 -4 7.4 -7.3 8.1 -7.3 0.8 0 1.4 -0.6 1.4 -1.4 0 -1.4 15.8 -16.9 24 -23.5 2.5 -2 5.8 -4.9 7.5 -6.4 1.6 -1.5 6.4 -4.4 10.5 -6.5 7.3 -3.6 7.6 -3.7 19.1 -3.7 11.6 0 11.6 0 10.1 -2.1 -3.6 -4.6 -15.1 -7.4 -22.9 -5.5 -4.9 1.2 -21.5 9 -22.1 10.4 -0.2 0.4 -0.8 0.7 -1.4 0.7 -0.6 0 -1.9 1.1 -3 2.5 -1.1 1.4 -2.8 2.5 -3.9 2.5 -1 0 -1.9 0.6 -1.9 1.3 0 2 -3.3 4.7 -5.8 4.7 -1.5 0 -2.2 0.6 -2.2 1.9 0 2.7 -3.8 5.1 -8 5 l-3.5 0 3.9 -3.2 c2.2 -1.8 7.6 -6.4 12.1 -10.3 28.1 -24.3 53 -26.7 67.9 -6.4 5 6.7 10.1 18.9 11.1 26.5 l0.7 5 -2.7 -5.2 c-5 -9.9 -15.1 -16.3 -25.4 -16.3 -7.6 0 -11 1.2 -20.6 7.6 -8.5 5.6 -27.5 21.9 -30.1 25.9 -4.1 6.3 -41.9 40.5 -54.9 49.7 -15.5 10.9 -30.3 17.2 -48 20.2 -10.4 1.8 -17.3 1.9 -26.5 0.2z" data-index="137" style="opacity: 1;"></path>
  <path d="M239 287.2 c0 -0.7 5.7 -3.2 7.3 -3.2 1.8 0 0.4 2.8 -1.5 3.4 -3.2 0.8 -5.8 0.7 -5.8 -0.2z" data-index="138"></path>
  <path d="M178 266.5 c0 -0.9 1.4 -1.6 3.8 -2 17 -2.5 29.6 -7.8 45.2 -19 10.5 -7.6 23.7 -18.2 31.6 -25.4 8.6 -7.9 8.4 -7.8 8.4 -4.2 0 2.1 -0.5 3.1 -1.5 3.1 -0.8 0 -1.5 0.6 -1.5 1.3 0 1.8 -5.2 6.7 -7.2 6.7 -0.9 0 -1.8 0.9 -2.1 2 -0.3 1.1 -1.3 2 -2.4 2 -1 0 -2.3 1 -2.8 2.3 -0.6 1.2 -2 2.3 -3.1 2.5 -1.2 0.2 -2.4 1.2 -2.7 2.3 -0.3 1.1 -1.4 1.9 -2.5 1.9 -1.1 0 -2.2 0.8 -2.4 1.8 -0.3 0.9 -1.8 2.4 -3.4 3.2 -1.6 0.8 -3.3 2.1 -3.7 2.7 -0.4 0.7 -1.5 1.3 -2.2 1.3 -0.8 0 -1.5 0.4 -1.5 0.9 0 1.4 -6.4 5.1 -8.9 5.1 -1.1 0 -2.1 0.6 -2.1 1.4 0 1.8 -11.9 7.2 -21.5 9.6 -9.5 2.4 -17.5 2.7 -17.5 0.5z" data-index="139"></path>
  <path d="M370 260.6 c0 -0.2 1.4 -2.1 3.1 -4.2 7.7 -9.7 10.9 -19.2 11.6 -34.9 0.7 -14.4 -0.7 -21.2 -6.8 -32.9 -2.2 -4.3 -3.8 -8 -3.5 -8.3 1.2 -1.2 10.9 9.5 13.6 15.1 9.7 19.7 7.6 41.5 -5.3 56.3 -4.5 5.2 -12.7 10.9 -12.7 8.9z" data-index="140"></path>
  <path d="M175.3 254.6 c8.5 -3.7 9.7 -3.9 9.7 -2.3 0 1.4 -4.6 3.1 -11.5 4.2 -3.8 0.6 -3.7 0.5 1.8 -1.9z" data-index="141"></path>
  <path d="M189.3 247.5 c3.6 -3.2 4.7 -3.1 4.7 0 0 2.2 -0.4 2.5 -3.7 2.5 l-3.8 -0.1 2.8 -2.4z" data-index="142"></path>
  <path d="M200.5 239.4 c3.8 -3.4 4 -3.4 4.3 -1.4 0.6 3.8 -0.5 5 -4.5 5 l-3.8 -0.1 4 -3.5z" data-index="143"></path>
  <path d="M212.5 229 c0.3 -0.5 1.9 -1.9 3.5 -3 l3 -2.1 0 3 c0 2.9 -0.3 3.1 -3.6 3.1 -2 0 -3.3 -0.4 -2.9 -1z" data-index="144"></path>
  <path d="M322.6 214.3 c5.2 -4.7 5.4 -4.8 5.4 -1.4 0 2.9 -0.2 3.1 -3.7 3.1 -3.6 0 -3.6 0 -1.7 -1.7z" data-index="145"></path>
  <path d="M329 213 c0.1 -4 1.1 -5.6 5.8 -8.9 l3.2 -2.2 0 2.8 c-0.1 1.9 -1.4 4.2 -4.5 7.3 l-4.5 4.5 0 -3.5z" data-index="146"></path>
  <path d="M230.1 212.3 c4.1 -5.2 4.9 -5.4 4.9 -1.3 0 2.7 -0.3 3 -3.1 3 -2.9 0 -3 -0.2 -1.8 -1.7z" data-index="147"></path>
  <path d="M339 203.6 c0 -2 0.8 -2.7 5.1 -4.1 2.8 -0.9 5.2 -1.5 5.4 -1.3 0.3 0.2 -2 2.1 -5 4.1 -5.5 3.7 -5.5 3.7 -5.5 1.3z" data-index="148"></path>
  <path d="M283 176.1 c0 -2.9 0.3 -3.1 3.6 -3.1 3.9 0 3.8 0.9 -0.6 4 l-3 2.1 0 -3z" data-index="149"></path>
  <path d="M303 162.6 c0 -2.1 0.5 -2.6 2.5 -2.6 1.4 0 2.5 -0.4 2.5 -0.9 0 -1.6 5.5 -2.2 8.6 -1 l2.9 1.1 -5 1.4 c-4.3 1.3 -6.3 2 -10.7 4.2 -0.5 0.2 -0.8 -0.8 -0.8 -2.2z" data-index="150"></path>
 </g>
 <g fill="#038b81">
  <path d="M164 318 c0 -1.3 0.7 -2 2 -2 1.3 0 2 0.7 2 2 0 1.3 -0.7 2 -2 2 -1.3 0 -2 -0.7 -2 -2z" data-index="151"></path>
  <path d="M248 285 c0 -1.6 0.7 -2 3.5 -2 4 0 4.9 2.4 1.3 3.4 -3.8 1 -4.8 0.7 -4.8 -1.4z" data-index="152"></path>
  <path d="M306.5 279.3 c-5.4 -2.8 -6.5 -4.3 -6.5 -9 0 -3.9 0.2 -4.4 1.9 -3.8 1.4 0.4 2.1 0 2.6 -1.5 0.3 -1.1 1.4 -2 2.4 -2 1 0 2.4 -0.6 3 -1.4 0.8 -1 2.9 -1.2 8 -0.8 6.5 0.4 18.1 -1 22.6 -2.7 11.2 -4.4 21.8 -11.9 26.4 -18.6 3.5 -5.2 3.7 -3.5 0.4 3.2 -2.3 4.7 -3.4 5.9 -5.6 6.1 -2.1 0.3 -2.7 0.9 -2.7 2.8 0 1.7 -0.5 2.4 -2 2.4 -2.5 0 -2.7 2.7 -0.2 3.2 1.3 0.3 0.6 1.4 -3.3 5.4 -6.6 6.5 -14.6 11.8 -22.8 14.9 l-6.7 2.5 0 -2.4 c0 -2 0.9 -2.6 6 -4.2 3.3 -1.1 6 -2.2 6 -2.6 0 -0.5 1.4 -0.8 3 -0.8 2.3 0 3 -0.4 3 -2 0 -1.5 0.7 -2 2.5 -2 1.7 0 2.5 -0.5 2.5 -1.8 0 -1 0.6 -2.4 1.3 -3.1 0.9 -0.9 0.2 -0.9 -2.8 0.2 -5.5 2 -17.2 3.7 -25.5 3.7 -3.8 0 -7.2 0.5 -7.5 1 -0.3 0.6 -1.4 1 -2.3 1 -2 0 -4.2 4.3 -3.5 6.9 0.3 1.1 1.7 2.1 3.4 2.5 2.1 0.4 2.9 1.1 2.9 2.6 0 2.4 -2.3 2.6 -6.5 0.3z" data-index="153" style="opacity: 1;"></path>
  <path d="M280 276.1 c0 -2.4 0.4 -3.1 2 -3.1 1.3 0 2 -0.7 2 -2 0 -1.3 0.7 -2 2 -2 1.5 0 2 -0.7 2 -2.5 0 -1.6 0.6 -2.5 1.5 -2.5 0.9 0 1.5 -0.9 1.5 -2.5 0 -1.4 0.5 -2.5 1 -2.5 0.6 0 1 -0.7 1 -1.5 0 -0.8 0.9 -1.5 2 -1.5 1.6 0 2 -0.7 2 -3 0 -1.6 0.5 -3 1 -3 0.6 0 1 -0.7 1 -1.5 0 -1 1 -1.5 3 -1.5 l3 0 -6.5 9.8 c-8.9 13.5 -12.3 17.9 -15.6 20.3 l-2.9 2 0 -3z" data-index="154" style="opacity: 1;"></path>
  <path d="M283.1 253.3 c0.8 -0.9 2.2 -2.5 3.2 -3.5 1.6 -1.7 1.7 -1.6 1.7 1.7 0 3.3 -0.2 3.5 -3.1 3.5 -2.8 0 -3 -0.2 -1.8 -1.7z" data-index="155"></path>
  <path d="M142.2 240.8 c-4.8 -5 -7.3 -11.6 -6.6 -17.2 0.4 -2.7 1.2 -4.6 2 -4.6 1.3 0 1.8 1.8 2.9 10.5 0.4 2.7 1.8 7.1 3.1 9.7 1.3 2.6 2.3 4.8 2.1 4.8 -0.2 0 -1.7 -1.5 -3.5 -3.2z" data-index="156"></path>
  <path d="M121.7 216.5 c-2.1 -4.3 -2.1 -4.5 -0.3 -4.5 0.8 0 1.7 1.5 2.1 3.6 0.9 4.8 0.2 5.1 -1.8 0.9z" data-index="157"></path>
  <path d="M136 211.5 c0 -2.5 -0.4 -4.5 -0.9 -4.5 -1.4 0 2.2 -9.9 5.2 -14.6 2.3 -3.7 4.7 -6.1 9.1 -9.4 1.5 -1.1 1.3 -0.5 -0.7 2.5 -3.6 5.3 -8.7 18.6 -8.7 22.7 0 4.8 -1 7.8 -2.6 7.8 -1 0 -1.4 -1.3 -1.4 -4.5z" data-index="158"></path>
  <path d="M116.6 203.2 c-2.1 -7.5 -2 -8.2 0.4 -8.2 1.6 0 2 0.7 2 3.5 0 2.6 0.3 3.3 1.5 2.9 0.8 -0.4 1.5 -1.8 1.5 -3.4 0 -3.4 1.9 -9 3.1 -9 0.5 0 0.9 -0.9 0.9 -2 0 -1.1 0.7 -2 1.5 -2 0.9 0 1.5 -0.9 1.5 -2.2 0 -2.2 5.7 -8.8 7.6 -8.8 0.5 0 1.5 -0.9 2.2 -2 0.7 -1.1 1.8 -2 2.5 -2 0.7 0 1.8 -0.9 2.5 -2 0.7 -1.1 1.6 -2 2.1 -2 0.5 0 2.3 -1.3 4.1 -3 1.8 -1.6 4 -3 5 -3 1 0 4 -1.1 6.7 -2.4 2.6 -1.4 8.3 -3.6 12.6 -5.1 7.4 -2.5 8.3 -2.5 22.2 -1.9 8 0.4 14.5 1 14.5 1.4 0 0.3 1.6 0.4 3.6 0.2 3.6 -0.4 7.4 0.4 17.1 3.9 3.1 1.1 5.5 1.4 5.8 0.9 0.4 -0.6 1.7 -1 3.1 -1 1.9 0 2.4 -0.5 2.4 -2.4 0 -1.3 0.6 -2.6 1.4 -2.9 1.5 -0.6 0.9 -5.6 -1 -8.9 -1.8 -3 -6.3 -7.8 -7.3 -7.8 -0.6 0 -1.1 -1.4 -1.1 -3 l0 -3.1 4.3 2.9 c5.3 3.7 12.4 11.4 13.7 14.8 1.5 4 1.3 5.3 -1 4.7 -2.1 -0.6 -2.9 2 -1 3.2 2 1.2 1 2.6 -1 1.5 -1.7 -0.9 -2 -0.8 -2 1.2 0 3.4 -1.5 5.1 -3.7 4.4 -1.1 -0.4 -3.3 0 -4.8 0.8 -2.5 1.3 -3.3 1.3 -6.9 0 -2.3 -0.9 -4.8 -1.9 -5.7 -2.4 -0.9 -0.4 -4.1 -1.1 -7.2 -1.5 -3.5 -0.4 -5.4 -1.1 -5 -1.7 0.4 -0.7 -4.3 -0.9 -14 -0.6 -8 0.2 -14.4 0.1 -14.1 -0.3 1 -1.7 -7.6 0.4 -15.6 3.7 -4.7 2 -10.3 4.2 -12.5 5.1 -4.2 1.5 -14.8 9.5 -22.8 17.2 -5.4 5.1 -10.2 14.4 -12.2 23.6 -0.7 3 -2 4.5 -4.1 4.5 -0.6 0 -1.9 -2.6 -2.8 -5.8z" data-index="159"></path>
  <path d="M250.1 188.5 c5 -6.9 5.9 -7.4 5.9 -3.1 0 2.5 -0.4 3.6 -1.5 3.6 -0.8 0 -1.5 0.9 -1.5 2 0 1.6 -0.7 2 -3.1 2 l-3 0 3.2 -4.5z" data-index="160"></path>
  <path d="M114 179 c0 -3.7 2.4 -11 3.6 -11 1.5 0 1.7 2.3 0.8 8.3 -0.5 2.7 -1.1 3.7 -2.5 3.7 -1.1 0 -1.9 -0.4 -1.9 -1z" data-index="161"></path>
  <path d="M268 164 c3.1 -4.4 4 -4.5 4 -0.6 0 3.3 -0.2 3.6 -3.1 3.6 l-3 0 2.1 -3z" data-index="162"></path>
  <path d="M119.1 160.3 c1.4 -3.8 4.2 -8.3 5.1 -8.3 0.4 0 0.8 1.6 0.8 3.5 0 1.9 -0.4 3.5 -1 3.5 -0.5 0 -1 0.9 -1 2 0 1.5 -0.7 2 -2.5 2 -2.2 0 -2.4 -0.2 -1.4 -2.7z" data-index="163"></path>
  <path d="M285 152.6 c0 -1.3 2.8 -2.6 5.8 -2.6 0.6 0 1.2 0.9 1.2 2 0 1.6 -0.7 2 -3.5 2 -2.3 0 -3.5 -0.5 -3.5 -1.4z" data-index="164"></path>
  <path d="M133.5 140 c0.3 -0.5 1.9 -1.9 3.5 -3 l3 -2.1 0 3 c0 2.9 -0.3 3.1 -3.6 3.1 -2 0 -3.3 -0.4 -2.9 -1z" data-index="165"></path>
  <path d="M150 129 c0 -0.6 1.9 -2 4.3 -3 l4.2 -1.9 0.3 2.1 c0.2 1.1 -0.2 2.5 -1 2.9 -1.9 1.2 -7.8 1.1 -7.8 -0.1z" data-index="166"></path>
  <path d="M226 126.5 c0 -2.4 0.1 -2.5 3.2 -1.2 4.6 1.9 4.8 3.7 0.4 3.7 -3.2 0 -3.6 -0.3 -3.6 -2.5z" data-index="167"></path>
  <path d="M160 124.7 c0 -1.2 6 -3.7 8.9 -3.7 2.1 0 1.1 3.8 -1.1 4.4 -4 1 -7.8 0.7 -7.8 -0.7z" data-index="168"></path>
  <path d="M218 125 c0 -0.5 -1 -1 -2.1 -1 -1.2 0 -5 -0.5 -8.5 -1.2 -5.3 -0.9 -6.4 -1.5 -6.4 -3.1 0 -1.7 0.5 -1.8 3.8 -1.3 6.3 1.2 16.6 3.8 18.5 4.8 2.8 1.4 2 2.8 -1.8 2.8 -1.9 0 -3.5 -0.4 -3.5 -1z" data-index="169"></path>
  <path d="M171 121.6 c0 -1.4 1.1 -1.8 9.3 -3.2 3.2 -0.5 3.7 -0.4 3.7 1.4 0 1.5 -0.9 2.1 -4.6 2.6 -6.9 0.9 -8.4 0.8 -8.4 -0.8z" data-index="170"></path>
 </g>
 <g fill="#029e87">
  <path d="M307.7 279.6 c-1.6 -0.7 -3.3 -1.9 -3.8 -2.7 -2.2 -3.5 0.1 -12.9 3.2 -12.9 0.8 0 2.1 -0.6 2.7 -1.2 0.8 -0.8 4.4 -1.3 9.5 -1.3 11.7 -0.1 19.4 -1.4 25.5 -4.2 6.7 -3.1 16.5 -10.9 21.5 -16.9 4.5 -5.6 4.6 -5 0.6 3 -5.1 9.9 -10.8 17.4 -11.9 15.6 -0.3 -0.5 -2.2 0.1 -4.5 1.5 l-4 2.4 2.9 0.1 c2.9 0 2.9 0 1 2.1 -9.1 10.1 -34 18.6 -42.7 14.5z m19.8 -6 c11.2 -4.7 15.3 -6.9 16 -8.5 0.4 -0.9 0 -1.1 -1.2 -0.6 -8.5 3.6 -10.3 3.9 -21.5 4 l-11.8 0 0 2.7 c0 4.9 0.9 5.8 5.9 5.8 2.9 0 7.5 -1.2 12.6 -3.4z" data-index="171" style="opacity: 1;"></path>
  <path d="M287 249 c1.2 -1.7 2.6 -2.7 3.2 -2.4 0.6 0.4 0.8 0.3 0.5 -0.3 -0.4 -0.6 0.5 -2.1 1.8 -3.3 l2.5 -2.3 0 3.5 c0 4.2 -3.4 7.8 -7.4 7.8 l-2.7 0 2.1 -3z" data-index="172"></path>
  <path d="M301 247.8 c0 -3.4 0.3 -3.8 2.5 -3.8 3.1 0 3.2 1.1 0 4.7 l-2.4 2.8 -0.1 -3.7z" data-index="173"></path>
  <path d="M141 238.9 c-9 -12.4 -9.5 -29.4 -1.4 -45 1.9 -3.7 7.3 -9.9 8.7 -9.9 0.5 0 0.3 0.8 -0.6 1.8 -1 1 -1.7 2.5 -1.7 3.3 0 0.8 -0.4 1.9 -0.9 2.5 -0.5 0.5 -1.8 3.6 -3.1 6.9 -4.2 11.7 -3.7 30.9 1.2 40.8 2.4 4.9 1.5 4.7 -2.2 -0.4z" data-index="174"></path>
  <path d="M120.6 213.8 c-2.2 -5.1 -3.3 -8.4 -5.1 -15.8 -2 -7.7 -1.9 -10 0.4 -10 1.5 0 2 1 2.6 5.5 l0.6 5.5 7.1 -14.2 c5.9 -11.8 8.2 -15.5 13.7 -21.1 11.5 -12 23.5 -17.5 43.2 -19.8 17.2 -2 38.1 0.7 51.7 6.8 3 1.3 5.6 2.3 5.7 2.1 0.1 -0.2 0.5 -4 0.8 -8.5 l0.6 -8.3 -2.5 0 c-1.7 0 -2.8 -0.7 -3.1 -1.9 -0.3 -1.1 -1.7 -2.1 -3.3 -2.4 -1.5 -0.4 -3.4 -1.2 -4.1 -1.9 -1.4 -1.3 -3.3 -1.9 -17.8 -5.8 -11 -3 -27.9 -2.8 -39.1 0.4 -8.9 2.5 -15.1 4.7 -16 5.6 -0.3 0.3 -2.7 1.7 -5.5 3 -2.7 1.4 -5.6 3.3 -6.3 4.3 -0.7 0.9 -2.2 1.7 -3.3 1.7 -1 0 -1.9 0.5 -1.9 1.1 0 1.6 -2.6 3.9 -4.4 3.9 -1 0 -1.6 0.9 -1.6 2.1 0 1.2 -0.8 2.3 -2 2.6 -1.1 0.3 -2 1.4 -2 2.4 0 1.1 -0.4 1.9 -0.9 1.9 -0.5 0 -1.2 1.1 -1.5 2.5 -0.4 1.4 -1.1 2.5 -1.6 2.5 -0.6 0 -1 0.7 -1 1.5 0 0.8 -0.4 1.5 -0.9 1.5 -0.5 0 -1.1 1.5 -1.4 3.3 -0.2 1.7 -1.3 6.5 -2.3 10.4 -1.5 5.8 -2.3 7.3 -3.8 7.3 -1.6 0 -1.7 -0.5 -1.1 -4.7 5 -34.7 37.7 -59.4 78.4 -59.3 22.7 0.1 47.9 10 53.6 21 0.8 1.6 1.8 5.3 2.1 8.4 0.6 4.6 0.4 5.7 -1 6.2 -0.9 0.3 -1.3 1 -1 1.5 0.3 0.5 0.2 1.9 -0.1 3 -0.5 1.5 -1.3 1.9 -2.7 1.6 -1.1 -0.3 -3.1 0.1 -4.4 1 -2.2 1.4 -2.9 1.3 -9.1 -1 -12.5 -4.6 -15.4 -5.1 -28.4 -5.2 -7 0 -12.5 -0.3 -12.2 -0.7 1.6 -2.7 -15.3 1.9 -25 6.8 -2.7 1.3 -5.6 2.4 -6.5 2.4 -1.9 0 -18.8 13.2 -23.9 18.5 -6.3 6.7 -10.3 16.7 -11.2 28.3 l-0.6 8.3 -1.9 -4.3z" data-index="175" style="opacity: 1;"></path>
  <path d="M256.2 180.8 c1.4 -1.8 5.3 -7.2 8.7 -12 3.3 -4.8 6.6 -9 7.1 -9.3 0.6 -0.4 1 0.9 1 2.9 0 2.5 -0.4 3.6 -1.5 3.6 -0.8 0 -1.5 0.9 -1.5 2 0 1.1 -0.4 2 -1 2 -0.5 0 -1 0.7 -1 1.5 0 0.9 -0.9 1.5 -2.5 1.5 -2.2 0 -2.5 0.4 -2.5 3.5 0 2.4 -0.5 3.5 -1.5 3.5 -0.8 0 -1.5 0.9 -1.5 2 0 1.6 -0.7 2 -3.1 2 l-3.1 0 2.4 -3.2z" data-index="176"></path>
 </g>
 <g fill="#ce1e4e">
  <path d="M150.8 353.3 c-3.6 -0.9 -2 -3.3 2.2 -3.3 2.9 0 4 0.4 4 1.5 0 0.8 -0.4 1.5 -0.9 1.5 -0.5 0 -1.5 0.2 -2.3 0.4 -0.7 0.2 -2.1 0.2 -3 -0.1z" data-index="177"></path>
  <path d="M110.8 351.9 c-2.9 -1.6 -2.1 -2.9 1.7 -2.9 2.8 0 3.5 0.4 3.5 2 0 2.2 -2.4 2.6 -5.2 0.9z" data-index="178"></path>
  <path d="M269 350 c0 -2.3 0.4 -3 2 -3 2 0 2.5 1.5 1.4 4.4 -1.1 2.8 -3.4 1.8 -3.4 -1.4z" data-index="179"></path>
  <path d="M364 349.5 c0 -2.4 0.5 -3.5 1.4 -3.5 2.1 0 2.8 1.5 2 4.5 -1 3.9 -3.4 3.2 -3.4 -1z" data-index="180"></path>
  <path d="M192 347 c0 -2.7 0.4 -4 1.4 -4 1.6 0 2.6 3.2 1.9 6 -1 3.7 -3.3 2.3 -3.3 -2z" data-index="181" style="opacity: 1;"></path>
  <path d="M298.1 345.3 c0.1 -2.1 0.3 -3 0.6 -2 0.3 1.3 1.5 1.7 4.9 1.7 3.7 0 4.4 0.3 4.4 2 0 1.7 -0.7 2 -5 2 l-5 0 0.1 -3.7z" data-index="182"></path>
  <path d="M204.5 342.3 c-2.1 -2.1 -1.9 -2.3 2 -2.3 2.3 0 3.5 0.5 3.5 1.4 0 2 -3.8 2.7 -5.5 0.9z" data-index="183"></path>
  <path d="M391.6 341.1 c-0.3 -0.4 -1 -2 -1.5 -3.5 -1 -2.4 -0.8 -2.6 1.4 -2.6 2.2 0 2.5 0.4 2.5 3.5 0 3.3 -1.2 4.6 -2.4 2.6z" data-index="184"></path>
  <path d="M348 337.5 l0 -3.5 8 0 c6.1 0 8 0.3 8 1.4 0 1.7 -3.1 2.6 -8.7 2.6 -3.2 0 -4.3 0.4 -4.3 1.5 0 0.8 -0.7 1.5 -1.5 1.5 -1 0 -1.5 -1.1 -1.5 -3.5z" data-index="185"></path>
  <path d="M395 337.5 c0 -4.2 1.6 -4.6 3.2 -0.7 1.6 3.7 1.8 3.8 2.8 2.2 0.8 -1.3 1 -1.2 1 0.3 0 1.3 -0.8 1.7 -3.5 1.7 -3.3 0 -3.5 -0.2 -3.5 -3.5z" data-index="186"></path>
  <path d="M97.8 335 l-2.8 -3.5 2.6 -0.3 c3.3 -0.4 3.6 -0.1 3.2 3.9 l-0.3 3.4 -2.7 -3.5z" data-index="187"></path>
  <path d="M265.8 337.3 c-3.4 -0.8 -2 -3.3 1.7 -3.3 1.9 0 3.5 0.4 3.5 1 0 1.3 -3.2 2.7 -5.2 2.3z" data-index="188"></path>
  <path d="M200 331.5 c0 -0.8 -0.4 -1.5 -1 -1.5 -0.5 0 -1 -1.3 -1 -3 0 -2.3 -0.4 -3 -2 -3 -1.3 0 -2 -0.7 -2 -2 0 -1.1 -0.7 -2 -1.5 -2 -1.1 0 -1.5 1.2 -1.5 4.5 0 3.3 -0.4 4.5 -1.5 4.5 -0.8 0 -1.5 -0.6 -1.6 -1.2 0 -0.7 -0.1 -3.5 -0.2 -6.3 l-0.2 -5 3.5 -0.3 c3.4 -0.2 3.7 0.1 9.3 8.3 l5.8 8.5 -3.1 0 c-2 0 -3 -0.5 -3 -1.5z" data-index="189"></path>
  <path d="M109.9 330.8 c-0.1 -0.2 -0.3 -2.9 -0.4 -6 -0.3 -5.1 -0.1 -5.8 1.6 -5.8 1.7 0 1.9 0.8 1.9 6 0 4.7 -0.3 6 -1.5 6 -0.8 0 -1.6 -0.1 -1.6 -0.2z" data-index="190"></path>
  <path d="M215 325.1 c0 -0.6 1.1 -2.3 2.5 -3.8 l2.4 -2.8 0.1 3.8 c0 3.3 -0.3 3.7 -2.5 3.7 -1.4 0 -2.5 -0.4 -2.5 -0.9z" data-index="191"></path>
  <path d="M342.6 323.5 c-0.8 -3.3 0.3 -7.5 2 -7.5 1 0 1.4 1.4 1.4 5 0 5.5 -2.3 7.1 -3.4 2.5z" data-index="192"></path>
  <path d="M258.8 322.3 c-1 -0.2 -1.8 -1.1 -1.8 -1.9 0 -1.1 1.7 -1.4 7.6 -1.4 6.6 0 7.5 0.2 7.2 1.8 -0.3 1.3 -1.4 1.7 -5.8 1.9 -3 0 -6.3 -0.1 -7.2 -0.4z" data-index="193"></path>
  <path d="M351 320.8 c0 -1.4 0.8 -1.8 3.5 -1.8 2.8 0 3.5 0.4 3.5 1.9 0 1.5 -0.7 1.8 -3.5 1.7 -2.6 -0.1 -3.5 -0.5 -3.5 -1.8z" data-index="194"></path>
  <path d="M137 318 c0 -1.3 0.7 -2 2 -2 1.3 0 2 0.7 2 2 0 1.3 -0.7 2 -2 2 -1.3 0 -2 -0.7 -2 -2z" data-index="195"></path>
  <path d="M408.7 318 c0.3 -1.1 1.4 -2 2.4 -2 1.2 0 1.9 0.7 1.9 2 0 1.4 -0.7 2 -2.4 2 -1.9 0 -2.3 -0.4 -1.9 -2z" data-index="196"></path>
  <path d="M178.4 281.5 c-15 -2.6 -30.7 -9.9 -40.9 -18.9 l-4 -3.5 3.8 -0.1 c2.4 0 4 0.5 4.3 1.5 0.4 0.8 1 1.5 1.5 1.5 0.4 0 2.9 1.3 5.5 3 5.7 3.6 18 7.7 25.4 8.6 6.6 0.7 24.9 -2.5 34.4 -6 20.1 -7.6 34.9 -18.2 64.1 -46 15 -14.3 26.5 -24.5 34 -30.2 13.6 -10.5 31 -16.3 44.3 -14.9 5.6 0.6 6.2 0.9 6.2 3 0 2.2 -0.2 2.3 -3.7 1.3 -6.2 -1.7 -15.1 -0.6 -22.3 2.8 -6.5 3.1 -15.3 9.4 -13.1 9.4 0.6 0 1.1 0.7 1.1 1.5 0 1.8 -1.7 2 -2.3 0.3 -0.5 -1.6 -5.6 2.5 -19 15.2 -7.7 7.3 -9.6 9.7 -9.1 11.2 0.5 1.6 0.2 1.9 -1.4 1.4 -1.5 -0.5 -3.4 1 -8.7 6.6 -18.7 20.2 -43.1 39.1 -59 45.8 -16.5 6.9 -28.2 8.7 -41.1 6.5z" data-index="197" style="opacity: 1;"></path>
  <path d="M270 266.2 c3.6 -3.1 8.2 -7.4 10.3 -9.6 l3.7 -3.8 0 3.6 c0 2.9 -0.4 3.6 -2 3.6 -1.3 0 -2 0.7 -2 1.8 0 2.2 -4 6.2 -6.2 6.2 -0.9 0 -1.8 0.9 -2.1 2 -0.4 1.6 -1.3 2 -4.4 2 l-3.8 -0.1 6.5 -5.7z" data-index="198"></path>
  <path d="M128.4 253.5 c-8.9 -11 -16.8 -26.5 -13.4 -26.5 1 0 8 10.4 8 12 0 0.6 0.5 1 1 1 0.6 0 1 1.1 1 2.5 0 1.6 0.6 2.5 1.5 2.5 0.9 0 1.5 0.9 1.5 2.5 0 1.8 0.5 2.5 2 2.5 2.4 0 3.3 1.7 2.8 5.6 -0.3 2.8 -0.3 2.8 -4.4 -2.1z" data-index="199"></path>
  <path d="M177.7 253.8 c2.9 -1.3 5.5 -2.7 5.9 -3.1 1.2 -1.2 4.6 -0.8 4.2 0.6 -0.5 1.4 -5.6 3.3 -11.4 4.2 -3.9 0.6 -3.8 0.6 1.3 -1.7z" data-index="200"></path>
  <path d="M381 250.5 c0.6 -1.6 1.5 -3.4 1.9 -4 0.4 -0.5 1.6 -3.2 2.7 -6 1.6 -4.1 1.9 -7.6 1.9 -19.5 0 -14.7 -0.6 -17.7 -6 -31.2 -1.6 -4.1 1.6 -1.4 4.5 3.7 6.5 11.3 8.8 27.3 5.6 39.2 -1.8 6.6 -6.4 15.7 -9.4 18.6 l-2.3 2.2 1.1 -3z" data-index="201"></path>
  <path d="M189 249.5 c0 -1.8 0.5 -2.5 1.9 -2.5 1.1 0 2.1 -0.4 2.3 -0.8 0.4 -1.1 16.2 -10.2 17.6 -10.2 0.7 0 1.2 -0.5 1.2 -1 0 -0.6 0.8 -1.4 1.7 -1.7 0.9 -0.4 2.5 -1.5 3.5 -2.5 1 -1 2.6 -1.8 3.7 -1.8 1 0 2.1 -0.9 2.4 -2 0.3 -1.2 1.4 -2 2.6 -2 1.2 0 2.1 -0.5 2.1 -1.1 0 -1.7 2.7 -3.9 4.9 -3.9 1.4 0 2.1 -0.6 2.1 -2 0 -1.6 0.7 -2 3 -2 2.5 0 3 -0.4 3 -2.4 0 -3.2 2.2 -4.8 6.2 -4.4 l3.3 0.3 -9 7.5 c-4.9 4.1 -9.9 8.3 -11 9.3 -7.1 6.5 -29.1 20.6 -37.7 24.2 -3.8 1.5 -3.8 1.5 -3.8 -1z" data-index="202"></path>
  <path d="M120.1 247.1 c-1 -0.6 -1 -1 -0.1 -1.6 1.3 -0.8 2.4 -0.1 1.9 1.4 -0.3 0.6 -1 0.7 -1.8 0.2z" data-index="203"></path>
  <path d="M299.2 237.2 c0.2 -0.5 2.2 -2.5 4.6 -4.6 l4.2 -3.8 0 3.4 c0 1.9 -0.5 3.9 -1.2 4.6 -1.3 1.3 -8.2 1.7 -7.6 0.4z" data-index="204"></path>
  <path d="M322.5 214.4 c7.5 -7 17.6 -14.1 21.2 -15 4.2 -1.1 4.5 0.2 0.7 2.7 -2.2 1.5 -7 5.7 -10.7 9.4 -6.6 6.7 -6.7 6.8 -6.8 3.9 -0.2 -2.7 -0.2 -2.7 -0.6 -0.4 -0.7 4 -3.2 6 -7.2 6 l-3.6 -0.1 7 -6.5z" data-index="205"></path>
  <path d="M252 204.1 c0 -2.9 0.3 -3.1 3.6 -3.1 3.9 0 3.8 0.9 -0.6 4 l-3 2.1 0 -3z" data-index="206"></path>
  <path d="M363.5 187.1 l-4.9 -5.1 3.2 0 c4.5 0 7.4 2.9 7 6.9 l-0.3 3.2 -5 -5z" data-index="207"></path>
  <path d="M277 181.9 c0 -2.7 0.9 -4.1 4.1 -7.1 2.4 -2.2 5.2 -3.8 6.5 -3.8 1.5 0 2.4 -0.6 2.4 -1.5 0 -0.8 0.9 -1.5 2 -1.5 1.1 0 2 -0.7 2 -1.5 0 -1 1.1 -1.5 3.5 -1.5 1.9 0 3.5 0.3 3.5 0.8 0 0.4 -3.1 2.7 -6.8 5.2 -3.7 2.4 -9.1 6.6 -11.9 9.4 l-5.3 4.9 0 -3.4z" data-index="208"></path>
 </g>
 <g fill="#03c398">
  <path d="M303.6 275.4 c-0.8 -2.2 -0.8 -2.4 0.8 -2.4 1 0 1.6 -1.4 1.8 -4.2 0.3 -4.1 0.4 -4.3 3.3 -4 12 1.2 15.7 1.3 17.2 0.6 1 -0.4 3.1 -0.9 4.6 -1.1 5.5 -0.6 19.6 -8.4 26.4 -14.6 3.8 -3.4 6.9 -5.5 7.1 -4.8 0.7 2 -5.7 10.7 -11.1 15.3 -11.4 9.6 -22.2 13.8 -35.9 13.8 -7.2 0 -8.8 0.3 -8.8 1.5 0 2 -4.6 2 -5.4 -0.1z" data-index="209"></path>
  <path d="M136.8 230.3 c-2 -4.7 -2.2 -22.3 -0.4 -27.8 2.7 -7.7 9.6 -19.2 9.6 -15.8 0 0.7 -0.4 1.5 -1 1.8 -0.5 0.3 -1 1.7 -1 3 0 1.2 -0.6 2.5 -1.2 2.8 -2.3 0.8 -5 16.6 -4.6 26.3 0.3 4.9 0.8 9.7 1.2 10.7 0.5 1 0.4 1.7 -0.3 1.7 -0.6 0 -1.7 -1.2 -2.3 -2.7z" data-index="210" style="opacity: 1;"></path>
  <path d="M120 211.6 c-0.5 -1.5 -1 -4.1 -1 -5.7 0 -2.2 0.5 -2.9 2 -2.9 1.7 0 1.9 0.6 1.7 5 -0.4 6 -1.3 7.2 -2.7 3.6z" data-index="211"></path>
  <path d="M120 194.1 c0 -31.4 21 -53.9 55.4 -59.2 4.2 -0.7 13.3 -0.9 22.1 -0.6 16.5 0.6 25.3 2.4 38.5 8 l7.5 3.2 0.6 5 c0.9 7.9 -0.5 8.5 -10.4 4.1 -15.5 -6.8 -32.8 -9.5 -48.9 -7.5 -18.6 2.2 -30.6 7.9 -41.9 19.6 -5.6 5.7 -7.7 9.1 -13.5 21 -3.8 7.8 -7.5 14.2 -8.1 14.2 -0.9 0.1 -1.3 -2.1 -1.3 -7.8z" data-index="212" style="opacity: 1;"></path>
  <path d="M262 173 c3.1 -4.4 4 -4.5 4 -0.6 0 3.3 -0.2 3.6 -3.1 3.6 l-3 0 2.1 -3z" data-index="213"></path>
  <path d="M120 159.4 c0 -1.2 6.5 -11.4 7.2 -11.4 0.5 0 0.8 1.6 0.8 3.5 0 2.4 -0.5 3.5 -1.5 3.5 -0.9 0 -1.5 0.9 -1.5 2.5 0 2 -0.5 2.5 -2.5 2.5 -1.4 0 -2.5 -0.3 -2.5 -0.6z" data-index="214"></path>
  <path d="M223.2 153.9 c0.2 -0.6 0.8 -1 1.3 -1 0.5 0 1.1 0.4 1.3 1 0.2 0.6 -0.4 1.1 -1.3 1.1 -0.9 0 -1.5 -0.5 -1.3 -1.1z" data-index="215"></path>
  <path d="M129.1 145.3 c0.7 -1 2.9 -3.3 4.8 -5.1 l3.6 -3.2 0.3 2.4 c0.4 3.5 -3.4 7.6 -7.1 7.6 -2.6 0 -2.8 -0.2 -1.6 -1.7z" data-index="216"></path>
  <path d="M147 131.1 c0 -0.8 14 -8.1 15.5 -8.1 0.3 0 0.5 1.1 0.5 2.5 0 2 -0.5 2.5 -2.5 2.5 -1.4 0 -2.5 0.5 -2.5 1 0 0.6 -0.9 1 -2 1 -1.1 0 -2 0.5 -2 1 0 0.6 -1.6 1 -3.5 1 -1.9 0 -3.5 -0.4 -3.5 -0.9z" data-index="217"></path>
  <path d="M165 123.6 c0 -1.3 2.8 -2.6 5.8 -2.6 0.6 0 1.2 0.9 1.2 2 0 1.6 -0.7 2 -3.5 2 -2.3 0 -3.5 -0.5 -3.5 -1.4z" data-index="218"></path>
  <path d="M173 121.6 c0 -1.3 2.8 -2.6 5.8 -2.6 0.6 0 1.2 0.9 1.2 2 0 1.6 -0.7 2 -3.5 2 -2.3 0 -3.5 -0.5 -3.5 -1.4z" data-index="219" style="opacity: 1;"></path>
  <path d="M185 120.6 c0 -1.6 5.3 -3.1 7 -2.1 0.5 0.3 1 1.3 1 2.1 0 1 -1.2 1.4 -4 1.4 -2.8 0 -4 -0.4 -4 -1.4z" data-index="220"></path>
 </g>
 <g fill="#d94b74">
  <path d="M343 351 c0 -1.3 0.7 -2 2 -2 1.3 0 2 0.7 2 2 0 1.3 -0.7 2 -2 2 -1.3 0 -2 -0.7 -2 -2z" data-index="221"></path>
  <path d="M224 318 c0 -1.3 0.7 -2 2 -2 1.3 0 2 0.7 2 2 0 1.3 -0.7 2 -2 2 -1.3 0 -2 -0.7 -2 -2z" data-index="222"></path>
  <path d="M168 276.3 c-1.4 -0.2 -6 -1.6 -10.3 -3 -16.2 -5.2 -29.7 -17.4 -38.9 -35 -5.9 -11.3 -12.4 -30.4 -9.8 -28.8 0.5 0.3 1 1.2 1 1.9 0 2.6 5.8 15.3 10 21.9 2.3 3.7 6.9 9.3 10.1 12.4 3.5 3.3 5.5 5.9 4.9 6.3 -0.7 0.5 -0.6 1.1 0.5 2 1.2 1 1.5 1 1.5 -0.4 0 -1.5 0.4 -1.5 3 0.4 4.9 3.5 17.1 8.7 23.3 10 4 0.8 5.7 1.6 5.7 2.7 0 1.3 -0.9 1.5 -5.7 0.9 -3.2 -0.4 -5.9 -1.1 -6.1 -1.6 -0.2 -0.6 -1.7 -1 -3.3 -1 -1.9 0 -2.9 -0.5 -2.9 -1.5 0 -1 -1 -1.5 -2.7 -1.5 -3.2 0 -2.6 0.6 4.7 4.4 8.9 4.7 18.4 6.9 27.3 6.4 9.7 -0.6 17.3 -3 32.4 -10.3 17.1 -8.4 32.4 -20.5 64.3 -51.3 12.2 -11.8 12.4 -12.1 9.3 -12.2 -4.3 0 -4.2 -1.3 0.2 -3.9 l3.5 -2 0 3 0 3 7.8 -6.7 c19 -16.2 27 -19.7 44.1 -19.2 7.7 0.2 11.1 0 11.1 -0.8 0 -0.6 -2.2 -1.4 -5 -1.8 -4.2 -0.6 -5 -1 -5 -2.7 0 -1.9 0.4 -2 3.7 -1.4 5.9 1.1 10.7 4 15.7 9.6 5.4 6.1 7.9 10.5 11.2 20.3 3.2 9.4 3 10.3 -0.7 3 -3.7 -7.5 -10.1 -14.5 -16 -17.5 -6.2 -3.1 -15.1 -3 -24.8 0.5 -16.1 5.7 -25.6 12.8 -56.6 42.2 -29.2 27.8 -44 38.4 -64.1 46 -12.4 4.6 -33.3 7.4 -43.4 5.7z m192 -100.8 c0 -1 -1 -1.5 -2.7 -1.5 l-2.8 0.1 2.5 1.4 c3.1 1.8 3 1.8 3 0z" data-index="223" style="opacity: 1;"></path>
  <path d="M174 267 c0 -1.7 0.7 -2 4 -2 3.3 0 4 0.3 4 2 0 1.7 -0.7 2 -4 2 -3.3 0 -4 -0.3 -4 -2z" data-index="224"></path>
  <path d="M183 266.7 c0 -0.9 3.2 -2.1 8.8 -3.5 15.5 -3.8 29.6 -12 53.2 -31.1 5.8 -4.6 11.1 -8.9 11.8 -9.4 0.9 -0.7 1.2 -0.2 1.2 2.2 0 2.6 -0.4 3.1 -2.4 3.1 -1.8 0 -2.5 0.6 -2.8 2.3 -0.2 1.6 -1.1 2.3 -3 2.5 -2 0.2 -2.8 0.9 -2.8 2.3 0 1.4 -0.7 1.9 -2.5 1.9 -1.8 0 -2.5 0.5 -2.5 2 0 1.5 -0.7 2 -2.5 2 -1.8 0 -2.5 0.5 -2.5 2 0 1.1 -0.7 2 -1.5 2 -0.8 0 -1.5 0.5 -1.5 1 0 0.6 -0.9 1 -2 1 -1.1 0 -2 0.7 -2 1.5 0 0.8 -0.9 1.5 -2 1.5 -1.1 0 -2 0.7 -2 1.5 0 0.9 -0.9 1.5 -2.5 1.5 -1.5 0 -2.5 0.6 -2.5 1.4 0 1.5 -2.1 2.6 -5.1 2.6 -1 0 -1.9 0.6 -1.9 1.3 0 1.6 -4.1 3.7 -7 3.7 -1.1 0 -2 0.4 -2 0.9 0 1.1 -14.6 5.1 -18.8 5.1 -2 0 -3.2 -0.5 -3.2 -1.3z" data-index="225"></path>
  <path d="M378.8 253.7 c4.2 -4.9 6.5 -9.6 9.2 -18.6 4.4 -14.5 1.3 -33.7 -7.8 -47.1 l-4.4 -6.5 3.6 3.5 c8.1 7.7 13.6 21.8 13.6 35 0 13.2 -4.8 25.6 -12.9 33.2 -4.4 4.2 -4.4 4.2 -1.3 0.5z" data-index="226"></path>
  <path d="M178.3 253.4 c1.6 -0.9 3.2 -1.3 3.5 -0.9 0.9 0.9 -1.9 2.5 -4.3 2.4 -1.6 0 -1.5 -0.2 0.8 -1.5z" data-index="227"></path>
  <path d="M119.2 246.8 c0.6 -1.8 2.8 -2.1 2.8 -0.4 0 0.9 -0.7 1.6 -1.6 1.6 -0.9 0 -1.4 -0.5 -1.2 -1.2z" data-index="228"></path>
  <path d="M193.5 245 c0.3 -0.5 1.9 -1.9 3.5 -3 l3 -2.1 0 3 c0 2.9 -0.3 3.1 -3.6 3.1 -2 0 -3.3 -0.4 -2.9 -1z" data-index="229"></path>
  <path d="M232.1 210.3 c0.8 -0.9 2.2 -2.5 3.2 -3.5 1.6 -1.7 1.7 -1.6 1.7 1.7 0 3.3 -0.2 3.5 -3.1 3.5 -2.8 0 -3 -0.2 -1.8 -1.7z" data-index="230"></path>
  <path d="M301 182.9 c6.1 -5.3 17 -11.8 25 -14.6 8 -2.8 10 -2.9 10 -0.4 0 1.5 -1.3 2.1 -6 3.2 -3.3 0.7 -6 1.6 -6 1.9 0 1.2 -5 3 -8 3 -2.3 0 -3 0.5 -3 2 0 1.1 -0.7 2 -1.5 2 -0.8 0 -1.5 0.5 -1.5 1 0 0.6 -1.3 1 -3 1 -2.5 0 -3 0.4 -3 2.5 0 2.2 -0.4 2.5 -3.7 2.5 l-3.8 -0.1 4.5 -4z" data-index="231"></path>
 </g>
 <g fill="#3fd5b2">
  <path d="M304.1 276.2 c-1.5 -2.8 -1.4 -3.5 0.4 -2.8 1 0.3 1.5 -0.1 1.5 -1.3 0 -1.7 0.7 -1.8 8.3 -1.4 14.8 1 26.7 -4.3 41.6 -18.3 5 -4.7 9.1 -8 9.1 -7.3 0 2.7 -8.6 14.3 -14.4 19.4 -3.4 3 -9.4 7.2 -13.5 9.2 -7.2 3.7 -7.8 3.8 -19.7 4.2 -11.5 0.3 -12.3 0.2 -13.3 -1.7z" data-index="232"></path>
  <path d="M138.9 234.3 c-3.1 -6 -3.4 -7.7 -3.7 -16.5 -0.3 -7.3 0.1 -11.1 1.3 -15 2.6 -7.7 8.1 -17.5 9.3 -16.4 0.2 0.3 -0.3 1.2 -1.2 2.1 -0.9 0.9 -1.3 2.1 -1 2.7 0.4 0.6 0 1.6 -0.9 2.3 -2 1.4 -4.9 8 -4 8.9 0.4 0.3 0.1 1.6 -0.5 2.9 -0.6 1.2 -1.3 3.8 -1.5 5.7 -0.5 4.3 1.1 18 2.3 19.5 1 1.2 4 9.8 3.6 10.2 -0.2 0.2 -1.8 -2.7 -3.7 -6.4z" data-index="233"></path>
  <path d="M118.7 207.8 c-2.9 -8.5 -4.1 -19 -2.9 -27 0.5 -3.2 0.5 -5.9 0.2 -6 -0.4 -0.2 0.3 -3.7 1.5 -7.8 2.3 -7.7 8.1 -18.4 11.6 -21.5 1.8 -1.8 1.9 -1.7 1.9 1.7 0 2 -0.8 4.3 -1.9 5.4 -1 1.1 -2.2 3 -2.5 4.2 -0.4 1.2 -1.1 2.2 -1.5 2.2 -0.4 0 -1.4 1.9 -2.1 4.3 -0.8 2.3 -1.8 4.5 -2.3 4.8 -0.5 0.4 -0.7 1.5 -0.5 2.5 0.5 1.8 0.5 1.8 1.2 -0.1 10.1 -26.6 32.1 -42.7 61.9 -45.2 6.3 -0.5 7.7 -0.3 7.7 0.8 0 1.2 1.4 1.4 7 1.1 9 -0.5 23.8 1.5 24.8 3.5 0.5 0.8 4 2.2 7.9 3.2 3.9 1 9 2.9 11.4 4.2 2.4 1.3 4.5 2.4 4.5 2.4 0.1 0 0.5 1.1 0.9 2.4 0.6 2.1 0.5 2.3 -1.4 1.8 -1.8 -0.4 -2.1 -0.1 -2.1 2.5 0 2 -0.4 2.8 -1.2 2.5 -0.7 -0.3 -4.9 -2.1 -9.3 -4.1 -12.1 -5.3 -22.4 -7.7 -36 -8.3 -24.6 -1.1 -43.1 4.8 -57.6 18.5 -12.1 11.4 -16.5 23.1 -17.1 45.9 -0.2 7.3 -0.6 13.3 -0.9 13.3 -0.4 0 -1.8 -3.3 -3.2 -7.2z" data-index="234" style="opacity: 1;"></path>
  <path d="M133.3 173.3 c-1.8 -0.6 -1.6 -3.3 0.1 -3.3 1.9 0 3.1 1.9 2 3 -0.5 0.4 -1.5 0.5 -2.1 0.3z" data-index="235"></path>
  <path d="M240.6 156.1 c-0.8 -1.2 0.3 -4.1 1.5 -4.1 0.5 0 0.9 1.1 0.9 2.5 0 2.5 -1.4 3.4 -2.4 1.6z" data-index="236"></path>
  <path d="M161.3 149.5 c-0.3 -0.9 -0.3 -1.8 0 -2.2 1 -1 3.7 0.6 3.7 2.2 0 2 -2.9 2 -3.7 0z" data-index="237"></path>
  <path d="M196 142.5 c0 -0.8 0.7 -1.5 1.5 -1.5 0.8 0 1.5 0.7 1.5 1.5 0 0.8 -0.7 1.5 -1.5 1.5 -0.8 0 -1.5 -0.7 -1.5 -1.5z" data-index="238"></path>
  <path d="M142.3 133.5 c3.6 -3.2 4.7 -3.1 4.7 0 0 2.2 -0.4 2.5 -3.7 2.5 l-3.8 -0.1 2.8 -2.4z" data-index="239"></path>
  <path d="M158 126.3 c0 -1.5 3.7 -3 12.4 -5.3 9.8 -2.5 10.6 -2.5 10.6 -0.1 0 1.6 -1 2.1 -5.7 2.7 -3.2 0.4 -6.1 1.1 -6.4 1.6 -0.8 1.2 -10.9 2.3 -10.9 1.1z" data-index="240"></path>
  <path d="M187 120.6 c0 -1.7 2 -2.2 8.5 -2.1 3.9 0 5 0.4 5.3 1.8 0.3 1.5 -0.5 1.7 -6.7 1.7 -5.4 0 -7.1 -0.3 -7.1 -1.4z" data-index="241"></path>
 </g>
 <g fill="#e06786">
  <path d="M248.7 352.3 c-1.6 -1.5 -0.6 -3.3 1.8 -3.3 1.8 0 2.5 0.5 2.5 2 0 2 -2.8 2.8 -4.3 1.3z" data-index="242"></path>
  <path d="M363 351 c0 -1.3 0.7 -2 2 -2 1.3 0 2 0.7 2 2 0 1.3 -0.7 2 -2 2 -1.3 0 -2 -0.7 -2 -2z" data-index="243"></path>
  <path d="M203.2 341 c-1.1 -1.8 -1 -2 1.8 -2 2.3 0 3 0.4 3 2 0 1.2 -0.7 2 -1.8 2 -0.9 0 -2.3 -0.9 -3 -2z" data-index="244"></path>
  <path d="M267 334 c0 -2.5 0.4 -3.1 1.8 -2.8 1.1 0.2 1.7 1.2 1.7 2.8 0 1.6 -0.6 2.6 -1.7 2.8 -1.4 0.3 -1.8 -0.3 -1.8 -2.8z" data-index="245"></path>
  <path d="M240.4 286.6 c2.3 -1.8 3.6 -2 3.6 -0.6 0 0.6 -0.4 1 -0.9 1 -0.5 0 -1.8 0.3 -2.8 0.6 -1.6 0.5 -1.6 0.4 0.1 -1z" data-index="246"></path>
  <path d="M269 282 c0 -1.6 0.7 -2 3.5 -2 3.9 0 4.6 1.4 1.6 3 -3.1 1.6 -5.1 1.2 -5.1 -1z" data-index="247"></path>
  <path d="M170.5 275.9 c-13 -1.6 -27 -8.5 -37 -18.4 -7.9 -7.8 -11.9 -13.7 -17.2 -25.5 -5.4 -12 -5.5 -14.8 -0.2 -5 8.1 14.9 18.2 24.9 32 31.7 9.3 4.6 16.9 6.3 27.9 6.4 13.9 0.1 25.5 -3.2 39.4 -11.3 11.5 -6.7 32.9 -23.3 44.9 -34.7 4.9 -4.7 6.7 -5.9 6.7 -4.6 0 1.6 0.5 1.4 3 -1 2.6 -2.5 2.8 -3 1.4 -3.5 -1.4 -0.5 -1.1 -1.1 1.7 -3.3 1.8 -1.4 3.6 -2.2 3.9 -1.6 0.4 0.5 1.9 -0.4 3.5 -2.1 1.6 -1.7 2.3 -3 1.6 -3 -1.8 0 0.3 -2.5 3.4 -4.3 1.3 -0.6 6.9 -5.1 12.5 -9.9 10.7 -9 21.5 -15.4 30.9 -18.2 6.6 -1.9 11.1 -2.1 11.1 -0.3 0 0.9 0.3 0.8 0.9 -0.2 1.1 -1.7 6.8 -0.8 12.8 2.1 4.3 2 11.3 9.4 14.9 15.8 2.5 4.3 5.7 14 5 14.8 -0.3 0.3 -0.6 0 -0.6 -0.7 0 -2.1 -6 -10.4 -10.4 -14.4 -7 -6.4 -12.8 -8.7 -21.8 -8.7 -17 0 -28.5 7.4 -65.3 42.4 -35.1 33.4 -45.7 41.3 -67.6 50.7 -14.4 6.3 -25.6 8.3 -37.4 6.8z" data-index="248" style="opacity: 1;"></path>
  <path d="M178.5 253.8 c3.3 -2.4 5.5 -2.9 5.5 -1.3 0 0.8 -0.6 1.5 -1.2 1.5 -0.7 0 -2.4 0.3 -3.8 0.6 -2.4 0.6 -2.4 0.6 -0.5 -0.8z" data-index="249"></path>
  <path d="M211.5 230 c0.3 -0.5 1.9 -1.9 3.5 -3 l3 -2.1 0 3 c0 2.9 -0.3 3.1 -3.6 3.1 -2 0 -3.3 -0.4 -2.9 -1z" data-index="250"></path>
  <path d="M326 215.6 c0 -3.3 0.2 -3.6 3.1 -3.6 l3 0 -2.1 3 c-3.1 4.4 -4 4.5 -4 0.6z" data-index="251"></path>
  <path d="M311 158.6 l0 -2.6 3.7 1.5 c4.6 1.9 5.2 2.5 2.7 2.5 -1 0 -2.9 0.3 -4.1 0.6 -2 0.5 -2.3 0.2 -2.3 -2z" data-index="252"></path>
  <path d="M300 154.5 c0 -2.4 0.1 -2.5 3.2 -1.2 4.6 1.9 4.8 3.7 0.4 3.7 -3.2 0 -3.6 -0.3 -3.6 -2.5z" data-index="253"></path>
  <path d="M280 154 c0 -1.2 3.3 -3 5.4 -3 0.9 0 1.6 0.9 1.6 2 0 1.6 -0.7 2 -3.5 2 -1.9 0 -3.5 -0.4 -3.5 -1z" data-index="254"></path>
 </g>
 <g fill="#e5859f">
  <path d="M89 351.1 c0 -1.6 0.6 -2.1 2.6 -2.1 3.3 0 3 3.3 -0.4 3.8 -1.7 0.3 -2.2 -0.2 -2.2 -1.7z" data-index="255"></path>
  <path d="M112.7 352.4 c-1.6 -1.6 -0.6 -3.4 1.9 -3.4 1.9 0 2.5 0.5 2.2 1.7 -0.3 1.9 -2.9 2.9 -4.1 1.7z" data-index="256"></path>
  <path d="M223 351.1 c0 -1.6 0.6 -2.1 2.6 -2.1 3.3 0 3 3.3 -0.4 3.8 -1.7 0.3 -2.2 -0.2 -2.2 -1.7z" data-index="257"></path>
  <path d="M268 351 c0 -1.4 0.7 -2 2.4 -2 1.9 0 2.3 0.4 1.9 2 -0.3 1.1 -1.4 2 -2.4 2 -1.2 0 -1.9 -0.7 -1.9 -2z" data-index="258"></path>
  <path d="M363 318 c0 -1.3 0.7 -2 2 -2 1.3 0 2 0.7 2 2 0 1.3 -0.7 2 -2 2 -1.3 0 -2 -0.7 -2 -2z" data-index="259"></path>
  <path d="M167.5 272 l-5 -0.7 6.7 -0.1 c3.7 -0.1 7 -0.6 7.3 -1.2 0.4 -0.6 -0.6 -1 -2.2 -1 -6.8 -0.1 -24.8 -6.1 -31.5 -10.5 -2.1 -1.4 -4.4 -2.5 -5.3 -2.5 -0.8 0 -1.5 -0.3 -1.5 -0.7 0 -0.5 -3.4 -4.3 -7.6 -8.7 -7.5 -7.8 -11.6 -13.4 -13.4 -18.1 -1.5 -4 -0.4 -2.9 2.9 2.9 1.7 3 6.7 9.3 11.1 13.9 6.7 6.9 9.6 9.1 17.3 13 13.8 6.9 26.3 9 40.5 6.7 14.5 -2.4 26 -8 43.7 -21.2 19.1 -14.3 23.8 -18.2 37.7 -31.9 7.8 -7.8 15.6 -14.8 17.2 -15.6 2.5 -1.3 6.8 -4.9 12.1 -10 4.4 -4.2 15.2 -11.4 22.2 -14.6 10 -4.7 19.2 -6.3 26.5 -4.7 6.3 1.3 14.2 6.1 16.5 10.1 1 1.6 2.1 2.9 2.6 2.9 0.8 0 4.1 7 3.5 7.6 -0.2 0.2 -1.9 -1.8 -3.8 -4.4 -3.1 -4.1 -10.3 -10.1 -12.2 -10.2 -0.5 0 -0.8 0.7 -0.8 1.5 0 0.8 -0.4 1.5 -1 1.5 -0.5 0 -1 -0.8 -1 -1.9 0 -1.4 -1 -2 -3.7 -2.5 -10.4 -1.7 -18.1 0.6 -30.4 9 -4.4 2.9 -8.5 5.1 -9.2 4.8 -0.9 -0.3 -10.9 8.8 -25.5 23.1 -13.3 12.9 -24.5 23.5 -24.9 23.5 -0.5 0 1.6 -2.9 3.7 -5 6.5 -6.7 2.3 -3.4 -8.5 6.4 -7.6 7 -17.8 15.7 -22.5 19.2 -9.1 6.9 -24.1 15 -25.8 14 -0.5 -0.3 -4.1 0.5 -7.9 1.8 -6.1 2.1 -9.1 2.7 -20.3 4 -1.4 0.2 -4.7 0 -7.5 -0.4z m144.6 -90.7 l3.4 -3.6 -4.2 3.3 c-2.4 1.8 -4.3 3.5 -4.3 3.7 0 1.2 2.1 -0.2 5.1 -3.4z" data-index="260" style="opacity: 1;"></path>
  <path d="M196.5 243 c0.3 -0.5 1.9 -1.9 3.5 -3 l3 -2.1 0 3 c0 2.9 -0.3 3.1 -3.6 3.1 -2 0 -3.3 -0.4 -2.9 -1z" data-index="261"></path>
  <path d="M210.5 231 c0.3 -0.5 1.9 -1.9 3.5 -3 l3 -2.1 0 3 c0 2.9 -0.3 3.1 -3.6 3.1 -2 0 -3.3 -0.4 -2.9 -1z" data-index="262"></path>
  <path d="M243 198 c3.1 -4.4 4 -4.5 4 -0.6 0 3.3 -0.2 3.6 -3.1 3.6 l-3 0 2.1 -3z" data-index="263"></path>
  <path d="M313 159 c0 -1.3 0.6 -1.7 2 -1.3 3.1 0.8 3.3 2 0.5 2.5 -1.9 0.4 -2.5 0.1 -2.5 -1.2z" data-index="264"></path>
 </g>
 <g fill="#fdc04f">
  <path d="M86.7 352.3 c-0.4 -0.3 -0.7 -8.7 -0.7 -18.5 l0 -17.8 3.3 0 c2.9 0 3.8 0.8 8.7 7.7 3 4.2 6.7 9.2 8.2 11 2.7 3.4 2.7 3.4 3.3 1.1 0.3 -1.2 0.4 -6.1 0.2 -10.8 l-0.2 -8.5 3.8 -0.3 3.7 -0.3 0 17.9 c0 15.1 -0.2 18.1 -1.5 18.6 -3.1 1.1 -6 -1.3 -12.9 -10.9 -3.9 -5.4 -7.6 -9.7 -8.1 -9.4 -0.6 0.2 -0.9 4.2 -0.6 9.8 0.2 7.1 0 9.5 -1 10.2 -1.7 1 -5.3 1.2 -6.2 0.2z" data-index="265" style="opacity: 1;"></path>
  <path d="M145.4 352.1 c-1.1 -0.5 -3.2 -2.3 -4.7 -4 -3 -3.7 -4 -9.5 -3.5 -22.6 l0.3 -9 3.7 -0.3 3.6 -0.3 0.4 13.1 c0.3 12.4 0.4 13.3 2.7 15.1 1.3 1 3.3 1.9 4.6 1.9 1.3 0 3.3 -0.9 4.6 -1.9 2.3 -1.8 2.4 -2.7 2.7 -15.1 l0.4 -13.1 3.6 0.3 3.7 0.3 0.3 11.3 c0.3 13.2 -0.7 17.8 -4.8 21.7 -2.6 2.5 -4 2.9 -9.3 3.2 -3.4 0.2 -7.1 -0.1 -8.3 -0.6z" data-index="266"></path>
  <path d="M188.7 352.4 c-0.4 -0.4 -0.7 -8.8 -0.7 -18.6 l0 -17.9 3.2 0.3 c2.9 0.3 4.1 1.5 9.7 9.5 3.5 5.1 6.7 9.1 7.1 8.8 0.4 -0.3 3.6 -4.6 7 -9.5 5.8 -8.5 6.4 -9.1 9.3 -8.8 l3.2 0.3 0.3 17.7 0.2 17.8 -2.5 0.6 c-5.1 1.3 -5.5 0.4 -5.5 -11.2 0 -12 -0.3 -12.2 -6 -3.3 -2.6 4 -3.7 4.9 -6.1 4.9 -2.3 0 -3.6 -1.1 -6.9 -5.5 -2.2 -3 -4.5 -5.5 -5 -5.5 -0.5 0 -1.1 4.6 -1.2 10.3 -0.3 10.1 -0.3 10.2 -2.8 10.5 -1.4 0.2 -2.9 0 -3.3 -0.4z" data-index="267" style="opacity: 1;"></path>
  <path d="M249.3 352.3 c-1 -0.3 -1.3 -5 -1.3 -18.4 l0 -17.9 12 0 12 0 0 3 c0 3.3 -0.2 3.3 -11 3.4 l-4.5 0.1 -0.3 4.3 -0.3 4.2 7 0 c7.1 0 8.3 0.7 7.3 4.2 -0.3 1.4 -1.8 1.8 -7.1 2 l-6.6 0.3 -0.3 4.3 -0.3 4.2 8.1 0 c8.7 0 10.2 0.9 8 4.9 -1 1.9 -1.9 2.1 -11.3 2 -5.6 0 -10.8 -0.3 -11.4 -0.6z" data-index="268" style="opacity: 1;"></path>
  <path d="M291.8 352.5 c-0.5 -0.5 -0.8 -8.9 -0.8 -18.8 l0 -17.9 10.8 0.3 c9 0.4 11.3 0.8 14.4 2.7 11.9 7.4 11.2 25.3 -1.3 31.7 -3.2 1.7 -21.9 3.3 -23.1 2z m15.5 -7.4 c7.8 -1.8 11.3 -8.4 8.3 -15.5 -1.8 -4.3 -6.2 -6.6 -12.6 -6.6 l-4 0 0 10.9 c0 12.7 0.2 13 8.3 11.2z" data-index="269" style="opacity: 1;"></path>
  <path d="M343.7 352.4 c-0.4 -0.4 -0.7 -8.8 -0.7 -18.6 l0 -17.9 11.8 0.3 11.7 0.3 0.3 2.8 c0.4 3.1 0.4 3 -8.8 3.1 l-6.5 0.1 -0.3 4.3 -0.3 4.2 7 0 7.1 0 0 3 0 3 -7 0 -7 0 0 4.5 0 4.5 8.1 0 8 0 -0.3 3.3 -0.3 3.2 -11.1 0.3 c-6 0.1 -11.3 -0.1 -11.7 -0.4z" data-index="270" style="opacity: 1;"></path>
  <path d="M396.2 351.7 c-1.4 -1.6 -13.2 -32.5 -13.2 -34.4 0 -1 1 -1.3 3.8 -1.1 l3.7 0.3 4.4 11.8 c2.5 6.4 4.8 11.7 5.2 11.7 0.3 0 2.1 -4.2 3.9 -9.2 5 -14.1 5.5 -14.8 9.5 -14.8 4.4 0 4.4 0.8 0.2 11.3 -1.9 4.5 -4.6 11.7 -6.2 16 -2.1 6 -3.3 8.1 -5.2 8.8 -3.3 1.2 -4.9 1.1 -6.1 -0.4z" data-index="271" style="opacity: 1;"></path>
  <path d="M246 283.5 c14.5 -7.9 29.6 -21 49.9 -43.6 2.4 -2.7 4.7 -4.9 5.1 -4.9 0.3 0 6.2 -5.4 12.9 -12 12.4 -12.1 28.4 -24 32.3 -24 1.5 0 0.4 1.3 -4.3 4.9 -12 9.1 -26.2 26.3 -43.5 52.6 -16.7 25.4 -21.7 28.6 -47.4 30 l-11.5 0.6 6.5 -3.6z" data-index="272" style="opacity: 1; visibility: visible;"></path>
  <path d="M181.3 252.1 c8.8 -4.6 17.5 -10.8 28.3 -20.2 19.5 -17 33.4 -33 59.3 -68.2 7.6 -10.3 17 -14.9 26.4 -12.7 9.5 2.2 25 9 20.7 9 -3.1 0.1 -12.9 4.8 -21.3 10.4 -5.1 3.4 -13.7 10.7 -20.5 17.3 -6.4 6.3 -13.3 12.7 -15.2 14.1 -1.9 1.5 -7.1 5.8 -11.5 9.7 -9.2 8.2 -23.4 19.6 -29.6 24 -9.3 6.4 -24.7 14.8 -31.5 17.1 -9.7 3.2 -11.8 3 -5.1 -0.5z" data-index="273" style="opacity: 1;"></path>
 </g>
 <g fill="#6fdfc5">
  <path d="M310.8 280.2 c-2.7 -0.3 -7.8 -4.3 -7.8 -6.1 0 -0.6 1.2 -0.6 3.3 0 6.4 1.7 19 0.4 28.5 -3 9.8 -3.5 16.6 -8.5 22.8 -16.4 4.8 -6.2 5.7 -5.2 1 1.2 -3.3 4.4 -5.8 7 -12.3 12.2 -9.3 7.5 -25.9 13.2 -35.5 12.1z" data-index="274" style="opacity: 1;"></path>
  <path d="M138.7 234 c-1 -1.6 -1.4 -3 -0.8 -3 1.2 0 3.4 3.7 2.9 5.1 -0.2 0.5 -1.1 -0.4 -2.1 -2.1z" data-index="275"></path>
  <path d="M121.5 215.3 c-7.3 -18.4 -9.2 -33.2 -5.6 -42.4 0.5 -1.3 1.6 -4.9 2.5 -7.9 2.4 -8.1 9.8 -19.1 17.4 -26 8.1 -7.5 22.6 -14.9 35.2 -17.9 9.8 -2.4 31.2 -3 39.5 -1.2 19.3 4.4 32.6 11.8 35.9 20.2 2 4.8 2 4.9 0.1 4.9 -0.8 0 -1.5 -0.5 -1.5 -1.2 0 -0.6 -0.3 -0.8 -0.6 -0.5 -0.4 0.3 -2.6 -0.5 -5 -1.9 -4.7 -2.7 -16.8 -6.3 -21.9 -6.5 -2.5 0 -2.7 -0.2 -1 -0.8 1.1 -0.5 2.4 -0.6 2.9 -0.3 0.5 0.3 0.6 0 0.3 -0.5 -0.4 -0.6 -4.6 -1.6 -9.3 -2.3 -11.7 -1.7 -30 0.7 -42.7 5.6 -2 0.8 -4.3 1.4 -5 1.4 -2.3 -0.1 12.6 -6.1 19.2 -7.7 9 -2.3 5.9 -2.9 -4.2 -0.8 -10.7 2.2 -17.8 4.7 -24.5 8.7 -13.7 8.4 -23.7 21 -28.9 36.7 l-3.2 9.6 -0.1 -5 c-0.2 -4.7 -0.2 -4.8 -1.1 -2 -1.8 5.4 -1.2 21.6 1.1 30.5 1.9 7.6 2.2 11.6 0.5 7.3z" data-index="276" style="opacity: 1;"></path>
 </g>
</svg>