<svg id="eZhkwuDKqpo1" xmlns="http://www.w3.org/2000/svg" xmlns:xlink="http://www.w3.org/1999/xlink" viewBox="0 0 500 500" shape-rendering="geometricPrecision" text-rendering="geometricPrecision" project-id="02fa3f9a16d54431a507314d10008592" export-id="e53ce43d16554cca885339ff51930f89" cached="false"><g><path d="M238.5,287c.3-.5,1.3-1,2.1-1s1.4.5,1.4,1c0,.6-.9,1-2.1,1-1.1,0-1.7-.4-1.4-1Z" fill="#045365"/><path d="M251,285c0-1.7.7-2,4-2c4.5,0,5.7,2.3,1.8,3.4-4.2,1.1-5.8.7-5.8-1.4Z" fill="#045365"/><path d="M262,284c0-1.6.7-2,3.5-2c4,0,4.9,2.4,1.3,3.4-3.8,1-4.8.7-4.8-1.4Z" fill="#045365"/><path d="M272,281.5c0-1.6.6-2.5,1.5-2.5.8,0,1.5-.4,1.5-1c0-.5.7-1,1.5-1s1.5-.4,1.5-1c0-.5,1.6-1,3.5-1c3.3,0,3.5-.2,3.5-3.5c0-1.9.3-3.5.8-3.5.4,0,4.3-5.6,8.7-12.5c4.4-6.8,8.6-12.5,9.3-12.5.6,0,1.2-1.1,1.2-2.5c0-1.6.6-2.5,1.5-2.5.8,0,1.5-.9,1.5-2c0-1.6.7-2,3.1-2h3l-4,5.7c-2.3,3.1-4.1,6-4.1,6.5c0,1.4,18,9.5,22.8,10.3c13.3,2.2,33.7-9,40.7-22.4c2.9-5.6,3.1-4.4.6,3.2-2.1,6.5-7.2,15.3-11.8,20.5l-3.2,3.7-.1-3.2v-3.2l-4.5,1.9c-7.5,3.2-16.8,4.3-30.1,3.6l-12.2-.6-2.1,2.7c-4.4,5.5-3.9,10.5,1.5,13c2,1,3.4,2.4,3.4,3.5c0,3.7-6.1,1.6-13.5-4.7-2.9-2.5-5.7-4.5-6.4-4.5-.6,0-2.6,1.6-4.3,3.6-3.1,3.5-9.8,8.5-13,9.7-1.4.5-1.8.1-1.8-1.8Z" fill="#045365"/><path d="M319,279.2c0-1.6,1.1-2.2,6-3.3c3.3-.7,6-1.6,6-2s2-1.5,4.5-2.6c2.5-1,4.5-2.1,4.5-2.5c0-.5.9-.8,2-.8s2-.7,2-1.5c0-1,1.1-1.5,3.5-1.5c1.9,0,3.5.2,3.5.5s-2.7,2.5-5.9,4.9c-6.1,4.5-15.9,8.9-22.4,10.1-3.3.6-3.7.5-3.7-1.3Z" fill="#045365"/><path d="M280.5,256c.4-.6-.1-3.3-1-6s-1.3-5.5-1-6.1c.6-.8.2-.8-1.4,0-1.8,1-2.1.9-2.1-1c0-1.4,3.2-5.4,8.7-11c6.9-7.1,9.2-8.9,11.5-8.9c1.6,0,2.7.4,2.3,1-1,1.7,2.6,11.2,4.1,10.6.9-.3,1.4.2,1.4,1.4c0,1.5-.7,2-2.9,2-3.4,0-4.8,1.5-5.3,5.5-.2,2.2-.9,3.1-2.5,3.3s-2.3,1-2.3,2.5c0,2.9-4.8,7.7-7.7,7.7-1.4,0-2.1-.4-1.8-1Z" fill="#045365"/><path d="M142.8,242.3c-4.1-4.4-6.2-7.9-5.3-9.3.3-.5-.3-1.8-1.4-2.9-2.3-2.3-3.6-11.6-2.6-19.7c1.5-12.3,7.1-22.3,15.2-27.4c2.6-1.7,4.9-2.8,5.1-2.5.4.4-6.5,9.4-8.3,10.7-.5.4-.7.8-.3.8.3,0-.5,3-1.8,6.8-1.3,3.7-2.4,8.3-2.4,10.2c0,5.1-1,7.8-2.9,8.3-1.5.4-1.5.5.1.6c1.7.1,2.1,1.6,3.3,10.6.4,2.8,2,7.6,3.6,10.8s2.9,6,2.9,6.2c0,1.4-2,.1-5.2-3.2Z" fill="#045365"/><path d="M207.5,233.4c3.8-3.4,4-3.4,4.3-1.4.6,3.8-.5,5-4.5,5l-3.8-.1l4-3.5Z" fill="#045365"/><path d="M216.5,225.4c3.8-3.4,4-3.4,4.3-1.4.6,3.8-.5,5-4.5,5l-3.8-.1l4-3.5Z" fill="#045365"/><path d="M320,222.6c0-3.3.2-3.6,3.1-3.6h3l-2.1,3c-3.1,4.4-4,4.5-4,.6Z" fill="#045365"/><path d="M121.9,217.8c-7.4-14.5-11.4-38.8-6.3-38.8c1,0,1.4,1.3,1.4,5c0,6.3,2.1,19,3.2,19c.4,0,.8-.9.8-2c0-1.2.7-2,1.8-2c1.5,0,1.7,1.2,1.7,11.5c0,6.3-.1,11.5-.2,11.5-.2,0-1.2-1.9-2.4-4.2Z" fill="#045365"/><path d="M262.5,217.1c.3-.5,0-4.2-.7-8.1-1-6-1.5-7.1-3-6.7-1.3.4-1.8-.1-1.8-1.7c0-2.1,3.9-6,17.4-17.3c2.6-2.3,7.3-3.2,6.1-1.3-.9,1.5,4.8,13.1,6.3,12.5.7-.3,1.2.5,1.2,1.9c0,3.5-19.7,21.6-23.4,21.6-1.5,0-2.5-.4-2.1-.9Z" fill="#045365"/><path d="M227.1,215.3c.7-1,3.8-4.5,7-7.8c5.3-5.7,14.9-17.2,14.9-17.9c0-1.7-13.3-12.8-20.7-17.2-13.5-8.2-21.3-10.6-35.5-11.2-10.7-.4-11.8-.6-11.8-2.3s.9-1.9,10.4-1.9c12.5,0,22.8,1.3,35.6,4.5c5.2,1.3,12.1,2.6,15.2,2.8c5,.5,5.8.3,7.1-1.6c4-6.3,2.6-14.5-3.7-20.9-6.4-6.6-9.7-9.1-14.3-11.2-2.4-1.1-4.3-2.3-4.3-2.8c0-.4-.8-.8-1.8-.8-1.1,0-4.4-.9-7.5-1.9-3.1-1.1-7.7-2.3-10.2-2.6-3.5-.6-4.5-1.1-4.5-2.6c0-2.4,1.5-2.4,11.3.1c10,2.5,19.9,6.7,27,11.4c8.3,5.5,25,24,27,29.9.3.9.8.8,2-.2c3.3-2.7,1.9,3.5-2,9.2-9.8,14.2-16.9,23.6-18,23.7-.7,0-1.3.9-1.3,2c0,1.3-.7,2-1.9,2-1.4,0-2.1.8-2.3,2.8-.2,2.1-.9,2.8-3,3-2.4.3-2.8.8-2.8,3.3c0,1.9-.5,2.9-1.5,2.9-.8,0-1.5.4-1.5,1c0,2.3-4.5,6-7.3,6-2.6,0-2.8-.2-1.6-1.7Z" fill="#045365"/><path d="M125,191.5c0-2.4.5-3.5,1.5-3.5.9,0,1.5-.9,1.5-2.5c0-2.1.5-2.5,2.9-2.5h2.9l-3.5,6c-2,3.3-4,6-4.5,6-.4,0-.8-1.6-.8-3.5Z" fill="#045365"/><path d="M138.2,175.9c.2-2.6.8-3.5,2.6-3.7c1.2-.2,2.2-.9,2.2-1.5c0-3.9,22.8-12.7,32.7-12.7c5.6,0,6,2.6.6,3.6-12.3,2.1-26.7,8.3-35.1,15.1l-3.4,2.7.4-3.5Z" fill="#045365"/><path d="M114,176.1c0-5.2,7.1-23.1,9.2-23.1c1.6,0,.8,5.6-1.7,11.5-1.4,3.3-2.8,7.7-3.1,9.8-.5,2.7-1.1,3.7-2.5,3.7-1.2,0-1.9-.7-1.9-1.9Z" fill="#045365"/><path d="M304.8,158.3c-1.1-.3-1.8-1.4-1.8-2.9v-2.4l4.7,1.8c5.7,2.1,6.9,4.2,2.1,4.1-1.8-.1-4.1-.3-5-.6Z" fill="#045365"/><path d="M277,155.1c0-1.1,5.9-3.9,9.9-4.7c2.7-.6,3.1-.4,3.1,1.5c0,1.7-.6,2.1-3,2.1-1.6,0-3,.5-3,1c0,.6-1.6,1-3.5,1s-3.5-.4-3.5-.9Z" fill="#045365"/><path d="M293.3,154.3c-1.5-.3-2.3-1.2-2.3-2.5c0-1.8.4-1.9,3.7-1.3c4.5.8,7.3,2.2,7.3,3.5c0,1-4.4,1.1-8.7.3Z" fill="#045365"/><path d="M127.2,146.3c7.6-10.7,26-22,42.7-26.2c10.6-2.6,12.1-2.7,12.1-.1c0,1.4-.7,2-2.3,2-1.2,0-5.4.9-9.2,2.1-3.9,1.1-8.1,2.3-9.5,2.6s-2.7.9-3,1.3c-.9,1.3-6.9,4-9,4-1.1,0-2,.7-2,1.5s-.8,1.5-1.9,1.5c-1,0-2.1.9-2.4,2-.3,1.2-1.4,2-2.6,2s-2.1.5-2.1,1.2c0,1.6-5.1,6.8-6.7,6.8-.7,0-1.3.9-1.3,2c0,1.6-.7,2-3.1,2h-3l3.3-4.7Z" fill="#045365"/></g><g><path d="M249,286c0-.5-.7-1-1.5-1-2.4,0-1.8-1.4,1.4-3.3c3.6-2.1,4.1-2.1,4.1-.2c0,.8.9,1.5,2,1.5c2.7,0,2.5,2.6-.2,3.4-3.4.9-5.8.7-5.8-.4Z" fill="#02676c"/><path d="M261,284.1c0-1.8,3.9-3.1,9.8-3.1c4.4,0,2.3,2.8-2.8,3.9-6.7,1.4-7,1.4-7-.8Z" fill="#02676c"/><path d="M305.1,279.1c-3.4-1.8-6-5.3-6.1-8.1c0-3.2,2.2-9.1,4.4-11.7l2.4-2.9l11.4.9c20.9,1.7,33.2-2,44.9-13.5c3.5-3.5,6.9-7.2,7.6-8.3c1-1.7,1.1-1.6.3,1-1.4,5.1-5.6,12.7-10.6,19.5l-4.9,6.5-.3-3.2c-.3-3.3-.3-3.3-3.2-1.8-1.6.8-3.7,1.5-4.8,1.5-1,0-2.2.4-2.7.9-1.9,1.6-13.7,3.2-23.1,3-6-.1-9.9.2-10.7,1-.6.6-2.4,1.1-3.9,1.1-2.7,0-2.8.2-2.8,4.5c0,3.3.4,4.5,1.5,4.5.8,0,1.5.7,1.5,1.5c0,1,1,1.5,3,1.5c2.3,0,3,.4,3,2c0,2.5-2.3,2.5-6.9.1Z" fill="#02676c"/><path d="M318,279c0-1.6.9-2.1,5-2.6c2.8-.4,5-1,5-1.5s1.6-.9,3.6-.9c5.4,0,3.8,2.2-3.7,4.7-8.1,2.8-9.9,2.9-9.9.3Z" fill="#02676c"/><path d="M259.5,275c.3-.5,1.9-1.9,3.5-3l3-2.1v3c0,2.9-.3,3.1-3.6,3.1-2,0-3.3-.4-2.9-1Z" fill="#02676c"/><path d="M338,271.5c0-1.6.6-2.5,1.5-2.5.8,0,1.5-.4,1.5-1c0-.5.9-1,2-1s2-.7,2-1.5c0-1,1.1-1.5,3.5-1.5c1.9,0,3.5.2,3.5.5c0,.8-12.1,9.5-13.1,9.5-.5,0-.9-1.1-.9-2.5Z" fill="#02676c"/><path d="M290,264.5c0-2.8.4-3.5,2-3.5s2-.7,2-3c0-2.5.4-3,2.5-3c1.4,0,2.5.3,2.5.6c0,1.1-7.5,12.4-8.2,12.4-.5,0-.8-1.6-.8-3.5Z" fill="#02676c"/><path d="M280.1,256.8c.6-1.3,2.5-3.8,4.2-5.5c2.9-3.1,3-3.4,1.4-5.1-.9-1-1.7-2.1-1.7-2.5c0-.3,2.4-2.4,5.3-4.6c6.3-4.7,13.7-6.1,13.7-2.6c0,3.2-11.9,14.5-15.3,14.5-2.5,0-2.7.3-2.7,4c0,3.8-.2,4-3,4-2.9,0-3-.2-1.9-2.2Z" fill="#02676c"/><path d="M179,254.1c0-1.4,7.3-5.1,10-5.1c3.1,0,2.4,1.9-1.3,3.5-5.3,2.2-8.7,2.8-8.7,1.6Z" fill="#02676c"/><path d="M300,249.8c0-3.4.3-3.8,2.5-3.8c3.1,0,3.2,1.1,0,4.7l-2.4,2.8-.1-3.7Z" fill="#02676c"/><path d="M142.4,241.3c-3.8-4.1-7-10.2-8-14.9-.5-2.8-.3-3.2,2.1-3.8c1.5-.4,2.9-.5,3.1-.3s.9,3,1.5,6.2c.9,4.8,3,10.7,5.6,15.8c1.1,1.9-1.3.3-4.3-3Z" fill="#02676c"/><path d="M203.5,237c.3-.5,1.9-1.9,3.5-3l3-2.1v3c0,2.9-.3,3.1-3.6,3.1-2,0-3.3-.4-2.9-1Z" fill="#02676c"/><path d="M313,230.8c0-3.4.3-3.8,2.4-3.8s2.5-.6,2.8-3.2c.3-2.9.7-3.3,3.7-3.6l3.3-.3-2.1,2.8c-1.1,1.5-3.9,4.8-6,7.3l-4,4.5-.1-3.7Z" fill="#02676c"/><path d="M121.2,215.5c-.7-1.4-1.2-3.9-1.2-5.4c0-1.6-.6-3.1-1.4-3.4-1.4-.5-3.6-6.4-3.6-9.4c0-.7.8-1.3,1.9-1.3c1.4,0,2.1,1,2.7,3.8.5,2.6.9,3.1,1.1,1.7c1-4.7,3.5-11.5,4.4-11.5.5,0,.9-.9.9-1.9c0-1.1.7-2.6,1.5-3.5.8-.8,1.5-1.9,1.5-2.3c0-1.8,6.7-7.3,8.8-7.3c1.5,0,2.2-.6,2.2-2c0-1.1.8-2.4,1.8-2.7.9-.4,2.1-1.2,2.5-2c.4-.7,1.5-1.3,2.2-1.3.8,0,1.5-.4,1.5-.9c0-.9,9.1-5.1,11.2-5.1.7,0,2.6-.7,4.2-1.5c1.7-.9,7.1-1.8,13.3-2.2c8.9-.5,10.3-.4,10.3.9c0,1.8-2.9,2.8-8.5,2.8-4.9,0-19.6,4.1-24.8,6.8-8,4.3-19.2,14-23.1,20.2-4.4,6.8-6.8,15-6.8,22.8.1,7.6-.7,8.9-2.6,4.7Z" fill="#02676c"/><path d="M137.3,206.5c.4-3.8.2-6.5-.3-6.5-2.6,0,5.3-12.4,9.9-15.5c3.8-2.6,5.5-1.7,2.7,1.4-3.5,3.9-9.6,20.8-9.6,26.8c0,.2-.7.3-1.6.3-1.5,0-1.6-.9-1.1-6.5Z" fill="#02676c"/><path d="M232.6,209.3c1-1,2.6-2.7,3.6-3.7c1.8-1.9,1.8-1.9,1.8,1.7s-.1,3.7-3.6,3.7c-3.4,0-3.5-.1-1.8-1.7Z" fill="#02676c"/><path d="M277.5,202.8c8.8-8.3,9.5-8.7,9.5-6.1c0,2.5-8.2,10.3-10.8,10.3-1.3,0-2.2.6-2.2,1.5s-.9,1.5-2.2,1.5c-1.7,0-.5-1.5,5.7-7.2Z" fill="#02676c"/><path d="M267.5,205c-.8-1.3.3-3,2-3c.7,0,1.5-.7,1.9-1.5.6-1.6,7.6-2.2,7.6-.7s-3.6,4.2-5.4,4.2c-.9,0-2.6.5-3.6,1-1.3.7-2.1.7-2.5,0Z" fill="#02676c"/><path d="M242,199c3.1-4.4,4-4.5,4-.6c0,3.3-.2,3.6-3.1,3.6h-3l2.1-3Z" fill="#02676c"/><path d="M279.4,197.5c-.7-1.8.5-4.6,2.3-5.2c2.1-.7,2.4,3,.4,5.1-1.9,1.9-2.1,1.9-2.7.1Z" fill="#02676c"/><path d="M265,193.2c0-2.3,1.2-4,5.9-8.1c3.8-3.2,6.9-5.1,8.5-5.1c2.5,0,2.5.1.9,2.8-.9,1.5-3.6,4.3-6.1,6.2s-5.5,4.3-6.8,5.3l-2.4,1.9v-3Z" fill="#02676c"/><path d="M249.7,188.8c.6-.7,4.4-6,8.6-11.8s8.5-11.6,9.6-13l2-2.5.1,3.7c0,2-.7,4.3-1.5,5.2-.8.8-1.5,1.9-1.5,2.5s-.7,1.1-1.5,1.1-1.5.9-1.5,2-.7,2.3-1.5,2.6c-.8.4-1.5,1.2-1.5,2s-.7,1.4-1.5,1.4-1.5.9-1.5,2-.7,2-1.5,2-1.5.9-1.5,2c0,1.6-.7,2-3.1,2s-2.9-.3-2.2-1.2Z" fill="#02676c"/><path d="M114,178c0-3.7,2.4-11,3.6-11c1.5,0,1.7,2.3.8,8.3-.5,2.7-1.1,3.7-2.5,3.7-1.1,0-1.9-.4-1.9-1Z" fill="#02676c"/><path d="M244.5,169c-1.9-1.3-3.9-1.8-5.6-1.5-1.4.3-6.5-.6-11.5-2-9.6-2.8-25.3-5.5-32.1-5.5-3.6,0-4.3-.3-4.3-1.9c0-2.6,2-3.2,14-3.8c11.3-.6,17.8.5,29.1,5.1c4.9,2,6,2.1,7,1c.7-.8,3-1.4,5.5-1.4c3.2,0,4.4-.4,4.4-1.5c0-.9.9-1.5,2.1-1.5c1.9,0,2,.4,1.4,3.6-.6,3.5-5.1,11.4-6.4,11.4-.3,0-1.9-.9-3.6-2Z" fill="#02676c"/><path d="M276.3,155.5c3.6-3.2,4.7-3.1,4.7,0c0,2.2-.4,2.5-3.7,2.5l-3.8-.1l2.8-2.4Z" fill="#02676c"/><path d="M121,156.2c0-.5,1.5-2.9,3.3-5.3l3.2-4.4.3,3.5c.2,1.9-.1,3.6-.7,3.8s-1.1,1-1.1,1.8-1,1.4-2.5,1.4c-1.4,0-2.5-.4-2.5-.8Z" fill="#02676c"/><path d="M251,150.5c0-1.9-.4-3.5-1-3.5-.5,0-1-.9-1-2s-.6-2-1.3-2c-1.7,0-5.7-4.6-5.7-6.5c0-.9-1-1.5-2.5-1.5-2.1,0-2.5-.5-2.5-3.1v-3l3.2,2.2c6.7,4.8,12.5,11.7,13.7,16.3c1.5,6,1.4,6.6-.9,6.6-1.6,0-2-.7-2-3.5Z" fill="#02676c"/><path d="M139,135.5c0-.7,8.1-6.5,9.2-6.5.4,0,.8,1.1.8,2.5c0,1.6-.6,2.5-1.5,2.5-.8,0-1.5.5-1.5,1c0,.6-1.6,1-3.5,1s-3.5-.2-3.5-.5Z" fill="#02676c"/><path d="M154,126.9c0-1.2,5.3-3.5,14-6c8.1-2.4,9-2.4,9,0c0,1.9-3.4,3.1-8.6,3.1-1.3,0-2.4.5-2.4,1c0,.6-1.1,1-2.5,1s-2.5.5-2.5,1c0,.6-1.6,1-3.5,1s-3.5-.5-3.5-1.1Z" fill="#02676c"/><path d="M224,125.5c0-2.4.1-2.5,3.2-1.2c4.6,1.9,4.8,3.7.4,3.7-3.2,0-3.6-.3-3.6-2.5Z" fill="#02676c"/><path d="M212,122c0-2.1,1-2.4,4.8-1.4c3.6,1,2.7,3.4-1.3,3.4-2.8,0-3.5-.4-3.5-2Z" fill="#02676c"/><path d="M202,120c0-2.1,1-2.4,4.8-1.4c3.6,1,2.7,3.4-1.3,3.4-2.8,0-3.5-.4-3.5-2Z" fill="#02676c"/></g><g><path d="M305.3,278.9c-4.2-2.1-7-6.7-5.9-10c.2-.8.7-2.6,1-4.1.5-2,1.3-2.8,2.8-2.8c1.2,0,3.2-1,4.4-2.1c2-1.9,2.7-2,5.5-1c5.7,2,24.4.6,27.4-2c.5-.5,1.8-.9,2.9-.9s4.3-1.3,7.3-3c2.9-1.6,5.6-3,5.9-3s.4,1.3.2,3c-.3,2,0,3,1,3.2c2.1.4-5.4,8.5-12.7,13.6l-6.1,4.3v-3c0-2.9.3-3.1,3.5-3.1c3.1,0,3.5-.3,3.5-2.5s.4-2.5,3.5-2.5c3.2,0,3.5-.2,3.5-3v-3l-3.7,1.7c-2.1.8-4.7,1.9-5.8,2.4-4.2,1.6-14.2,2.9-22.1,2.9-4.6,0-8.6.5-8.9,1-.3.6-1.5,1-2.5,1s-2.2.9-2.5,2-1.5,2-2.6,2c-3.6,0-1.5,4,2.9,5.4c1.5.5,2.2,1.5,2.2,3.2c0,1.3-.1,2.4-.2,2.4-.2,0-2.2-.9-4.5-2.1Z" fill="#027f7a"/><path d="M317,279c0-1.6.7-2,3.5-2c4,0,4.9,2.4,1.3,3.4-3.8,1-4.8.7-4.8-1.4Z" fill="#027f7a"/><path d="M279,277.1c0-2.9.3-3.1,3.6-3.1c3.9,0,3.8.9-.6,4l-3,2.1v-3Z" fill="#027f7a"/><path d="M325,277c0-1.5.7-2,2.5-2c1.4,0,2.5-.4,2.5-1c0-.5,1.6-1,3.5-1c4.8,0,4.4,1.7-1.1,4-5.8,2.5-7.4,2.5-7.4,0Z" fill="#027f7a"/><path d="M295,256.5c0-3.2.2-3.5,3-3.5h3l-2.2,3.5c-2.9,4.4-3.8,4.4-3.8,0Z" fill="#027f7a"/><path d="M280.8,256.3c.6-.2,1.2-1,1.2-1.7c0-1.2,10.1-11.6,11.3-11.6.4,0,.7,1.6.7,3.5c0,2.8-.4,3.5-2,3.5-1.1,0-2,.6-2,1.3c0,2.2-4.7,5.7-7.6,5.6-1.6,0-2.3-.3-1.6-.6Z" fill="#027f7a"/><path d="M359,251.3c0-3.1.6-4.5,2.8-6.4c1.5-1.4,4-4.1,5.6-6c2.5-3,2.7-3.1,2.1-.9-1,3.5-7.1,14.4-9,16-1.3,1.1-1.5.7-1.5-2.7Z" fill="#027f7a"/><path d="M303,244.5c0-3.1.3-3.5,2.5-3.5c3,0,3,.3.8,4.1-2.3,3.8-3.3,3.7-3.3-.6Z" fill="#027f7a"/><path d="M140.6,239c-1.4-1.7-2.8-4.6-3.2-6.5-.3-1.9-1-3.5-1.4-3.5-1.3,0-2.3-6.2-1.2-6.9.5-.3,1.2-3.4,1.3-6.9.3-4.8.1-6.2-1-6.2-1.8,0-.9-4.6,2.3-11.4c2.6-5.8,6.4-10.6,10.6-13.6c2.9-2,2.9-2-1.5,6.5-2.4,4.8-4.9,11.2-5.6,14.3-1.6,8.1-.7,24.4,1.9,31.5c2.3,6.4,1.6,7.2-2.2,2.7Z" fill="#027f7a"/><path d="M317,225.6c0-3.3.2-3.6,3.1-3.6h3l-2.1,3c-3.1,4.4-4,4.5-4,.6Z" fill="#027f7a"/><path d="M120.5,213.8c-1.3-2.9-2-5.5-1.6-5.8.5-.3,1.2-2.9,1.6-5.7.6-4.6,1-5.3,2.9-5.3c2.3,0,2.3,0,.9,5.3-.9,3.2-1.2,7.4-.9,11c.3,3.1.3,5.7,0,5.7s-1.6-2.3-2.9-5.2Z" fill="#027f7a"/><path d="M114.6,195.8c-1-3.8-.7-4.8,1.4-4.8c1.6,0,2,.7,2,3.5c0,4-2.4,4.9-3.4,1.3Z" fill="#027f7a"/><path d="M246,194c3.1-4.4,4-4.5,4-.6c0,3.3-.2,3.6-3.1,3.6h-3l2.1-3Z" fill="#027f7a"/><path d="M125,190.5c0-1.9.4-3.5.9-3.5s1.1-1,1.3-2.2c.2-1.8,1.1-2.4,3.5-2.6l3.2-.3-3.6,6c-2,3.4-4,6.1-4.5,6.1-.4,0-.8-1.6-.8-3.5Z" fill="#027f7a"/><path d="M256.1,180.6c1.7-2.5,4.4-6,6-7.8l2.8-3.3.1,3.8c0,2.6-.4,3.7-1.5,3.7-.8,0-1.5.9-1.5,2s-.7,2-1.5,2-1.5.9-1.5,2c0,1.6-.7,2-3.1,2h-3l3.2-4.4Z" fill="#027f7a"/><path d="M136.2,176.9c.2-2.9.7-3.4,3.1-3.7c1.9-.2,2.7-.9,2.7-2.3c0-1.2.7-1.9,2-1.9c1.1,0,2-.6,2-1.3c0-1.7,4.9-5.3,9.7-7.1c2.1-.8,7.9-3.2,12.8-5.3l9-3.8l20,.3c11,.2,20.2.7,20.5,1.2.3.4,2.5,1.1,5,1.4c2.5.4,5.4,1.1,6.5,1.5c6.3,2.6,7.3,2.9,8.1,2.1.5-.5,2.3-1,3.9-1.2c2.4-.2,3.1-.8,3.3-3c.2-1.6.8-2.8,1.3-2.8s.9-.9.9-2c0-1.2.7-2,1.8-2.1c1,0,1.2-.3.5-.6-.7-.2-1.3-2.1-1.3-4c0-3.1.2-3.4,1.6-2.2c4.1,3.4,6.5,14.1,4.4,20.3-1.2,3.8-2.8,4.4-6,2.4-1.6-1-2.3-.9-4.5,1.2-2.4,2.2-2.8,2.3-5.8,1.1-17.9-7.4-26.9-9.1-37.2-7.1-3.3.6-11.7,1.5-18.6,2-7.7.6-13.7,1.5-15.5,2.5-1.6.8-3.6,1.5-4.4,1.5-2.9,0-11.6,4.8-17.5,9.5-3.3,2.6-6.6,5.3-7.3,5.8-1.1.9-1.3.4-1-2.4Z" fill="#027f7a"/><path d="M116.3,168.1c1.6-7.9,5.7-13.3,5.7-7.5c0,5.1-2.2,10.4-4.3,10.4-1.6,0-1.9-.5-1.4-2.9Z" fill="#027f7a"/><path d="M266,167.1c0-.6,1.1-2.3,2.5-3.8l2.4-2.8.1,3.8c0,3.3-.3,3.7-2.5,3.7-1.4,0-2.5-.4-2.5-.9Z" fill="#027f7a"/><path d="M305,161.6c0-2.3.4-2.6,3.5-2.6c3.7,0,5,2.3,1.8,3.3-1,.2-2.6.8-3.5,1.2-1.5.6-1.8.2-1.8-1.9Z" fill="#027f7a"/><path d="M284,152.6c0-.8,1.4-1.7,3.1-2.1c4.2-.9,9.9.2,9.9,2c0,1.2-1.5,1.5-6.5,1.5-4.9,0-6.5-.3-6.5-1.4Z" fill="#027f7a"/><path d="M127,147c3.1-4.4,4-4.5,4-.6c0,3.3-.2,3.6-3.1,3.6h-3l2.1-3Z" fill="#027f7a"/><path d="M134.5,139c.3-.5,1.9-1.9,3.5-3l3-2.1v3c0,2.9-.3,3.1-3.6,3.1-2,0-3.3-.4-2.9-1Z" fill="#027f7a"/><path d="M234,130.5c0-3.1,1.1-3.2,4.7,0l2.8,2.4-3.7.1c-3.4,0-3.8-.3-3.8-2.5Z" fill="#027f7a"/><path d="M221,126c0-.5-1.3-1-3-1-2.4,0-3-.4-3-2.1c0-1.8.4-2.1,2.9-1.6c4.6.9,10.1,3.5,10.1,4.6c0,.6-1.6,1.1-3.5,1.1s-3.5-.4-3.5-1Z" fill="#027f7a"/><path d="M207,121c0-2.1,1-2.4,4.8-1.4c3.6,1,2.7,3.4-1.3,3.4-2.8,0-3.5-.4-3.5-2Z" fill="#027f7a"/><path d="M176,120.6c0-1.3,2.8-2.6,5.8-2.6.6,0,1.2.9,1.2,2c0,1.6-.7,2-3.5,2-2.3,0-3.5-.5-3.5-1.4Z" fill="#027f7a"/></g><g><path d="M169,292.6c-14.4-2.7-23.5-7.3-33.7-16.9-8.5-8.1-13.2-14.5-19.1-26.3-6.4-12.7-9.3-25.3-9.7-41.4-.3-11-.2-12.7.6-9c4,17.2,10.2,31.3,18,40.7c2.2,2.7,3.4,5,2.9,5.3-.6.4-.3,1.4.9,2.4c1.1,1,2,1.3,2.2.7s2.4.6,4.9,2.5c8.5,6.8,21,12,33.3,13.9c5.2.8,5.1,3.5-.3,3.5-6.2,0-13.9-2-22-5.6-8.6-3.9-6.9-2.1,4.6,5c11.6,7.1,27.1,11.9,38.4,11.7c5.8,0,16.4-2.9,26.5-7.1c15.9-6.7,40.3-25.6,59-45.7c3.7-4,7.4-7.3,8.1-7.3.8,0,1.4-.6,1.4-1.4c0-1.4,15.8-16.9,24-23.5c2.5-2,5.8-4.9,7.5-6.4c1.6-1.5,6.4-4.4,10.5-6.5c7.3-3.6,7.6-3.7,19.1-3.7c11.6,0,11.6,0,10.1-2.1-3.6-4.6-15.1-7.4-22.9-5.5-4.9,1.2-21.5,9-22.1,10.4-.2.4-.8.7-1.4.7s-1.9,1.1-3,2.5-2.8,2.5-3.9,2.5c-1,0-1.9.6-1.9,1.3c0,2-3.3,4.7-5.8,4.7-1.5,0-2.2.6-2.2,1.9c0,2.7-3.8,5.1-8,5h-3.5l3.9-3.2c2.2-1.8,7.6-6.4,12.1-10.3c28.1-24.3,53-26.7,67.9-6.4c5,6.7,10.1,18.9,11.1,26.5l.7,5-2.7-5.2c-5-9.9-15.1-16.3-25.4-16.3-7.6,0-11,1.2-20.6,7.6-8.5,5.6-27.5,21.9-30.1,25.9-4.1,6.3-41.9,40.5-54.9,49.7-15.5,10.9-30.3,17.2-48,20.2-10.4,1.8-17.3,1.9-26.5.2Z" fill="#a6194b"/><path d="M239,287.2c0-.7,5.7-3.2,7.3-3.2c1.8,0,.4,2.8-1.5,3.4-3.2.8-5.8.7-5.8-.2Z" fill="#a6194b"/><path d="M178,266.5c0-.9,1.4-1.6,3.8-2c17-2.5,29.6-7.8,45.2-19c10.5-7.6,23.7-18.2,31.6-25.4c8.6-7.9,8.4-7.8,8.4-4.2c0,2.1-.5,3.1-1.5,3.1-.8,0-1.5.6-1.5,1.3c0,1.8-5.2,6.7-7.2,6.7-.9,0-1.8.9-2.1,2s-1.3,2-2.4,2c-1,0-2.3,1-2.8,2.3-.6,1.2-2,2.3-3.1,2.5-1.2.2-2.4,1.2-2.7,2.3s-1.4,1.9-2.5,1.9-2.2.8-2.4,1.8c-.3.9-1.8,2.4-3.4,3.2s-3.3,2.1-3.7,2.7c-.4.7-1.5,1.3-2.2,1.3-.8,0-1.5.4-1.5.9c0,1.4-6.4,5.1-8.9,5.1-1.1,0-2.1.6-2.1,1.4c0,1.8-11.9,7.2-21.5,9.6-9.5,2.4-17.5,2.7-17.5.5Z" fill="#a6194b"/><path d="M370,260.6c0-.2,1.4-2.1,3.1-4.2c7.7-9.7,10.9-19.2,11.6-34.9.7-14.4-.7-21.2-6.8-32.9-2.2-4.3-3.8-8-3.5-8.3c1.2-1.2,10.9,9.5,13.6,15.1c9.7,19.7,7.6,41.5-5.3,56.3-4.5,5.2-12.7,10.9-12.7,8.9Z" fill="#a6194b"/><path d="M175.3,254.6c8.5-3.7,9.7-3.9,9.7-2.3c0,1.4-4.6,3.1-11.5,4.2-3.8.6-3.7.5,1.8-1.9Z" fill="#a6194b"/><path d="M189.3,247.5c3.6-3.2,4.7-3.1,4.7,0c0,2.2-.4,2.5-3.7,2.5l-3.8-.1l2.8-2.4Z" fill="#a6194b"/><path d="M200.5,239.4c3.8-3.4,4-3.4,4.3-1.4.6,3.8-.5,5-4.5,5l-3.8-.1l4-3.5Z" fill="#a6194b"/><path d="M212.5,229c.3-.5,1.9-1.9,3.5-3l3-2.1v3c0,2.9-.3,3.1-3.6,3.1-2,0-3.3-.4-2.9-1Z" fill="#a6194b"/><path d="M322.6,214.3c5.2-4.7,5.4-4.8,5.4-1.4c0,2.9-.2,3.1-3.7,3.1-3.6,0-3.6,0-1.7-1.7Z" fill="#a6194b"/><path d="M329,213c.1-4,1.1-5.6,5.8-8.9l3.2-2.2v2.8c-.1,1.9-1.4,4.2-4.5,7.3l-4.5,4.5v-3.5Z" fill="#a6194b"/><path d="M230.1,212.3c4.1-5.2,4.9-5.4,4.9-1.3c0,2.7-.3,3-3.1,3-2.9,0-3-.2-1.8-1.7Z" fill="#a6194b"/><path d="M339,203.6c0-2,.8-2.7,5.1-4.1c2.8-.9,5.2-1.5,5.4-1.3.3.2-2,2.1-5,4.1-5.5,3.7-5.5,3.7-5.5,1.3Z" fill="#a6194b"/><path d="M283,176.1c0-2.9.3-3.1,3.6-3.1c3.9,0,3.8.9-.6,4l-3,2.1v-3Z" fill="#a6194b"/><path d="M303,162.6c0-2.1.5-2.6,2.5-2.6c1.4,0,2.5-.4,2.5-.9c0-1.6,5.5-2.2,8.6-1l2.9,1.1-5,1.4c-4.3,1.3-6.3,2-10.7,4.2-.5.2-.8-.8-.8-2.2Z" fill="#a6194b"/></g><g><path d="M248,285c0-1.6.7-2,3.5-2c4,0,4.9,2.4,1.3,3.4-3.8,1-4.8.7-4.8-1.4Z" fill="#038b81"/><path d="M306.5,279.3c-5.4-2.8-6.5-4.3-6.5-9c0-3.9.2-4.4,1.9-3.8c1.4.4,2.1,0,2.6-1.5.3-1.1,1.4-2,2.4-2s2.4-.6,3-1.4c.8-1,2.9-1.2,8-.8c6.5.4,18.1-1,22.6-2.7c11.2-4.4,21.8-11.9,26.4-18.6c3.5-5.2,3.7-3.5.4,3.2-2.3,4.7-3.4,5.9-5.6,6.1-2.1.3-2.7.9-2.7,2.8c0,1.7-.5,2.4-2,2.4-2.5,0-2.7,2.7-.2,3.2c1.3.3.6,1.4-3.3,5.4-6.6,6.5-14.6,11.8-22.8,14.9L324,280v-2.4c0-2,.9-2.6,6-4.2c3.3-1.1,6-2.2,6-2.6c0-.5,1.4-.8,3-.8c2.3,0,3-.4,3-2c0-1.5.7-2,2.5-2c1.7,0,2.5-.5,2.5-1.8c0-1,.6-2.4,1.3-3.1.9-.9.2-.9-2.8.2-5.5,2-17.2,3.7-25.5,3.7-3.8,0-7.2.5-7.5,1-.3.6-1.4,1-2.3,1-2,0-4.2,4.3-3.5,6.9.3,1.1,1.7,2.1,3.4,2.5c2.1.4,2.9,1.1,2.9,2.6c0,2.4-2.3,2.6-6.5.3Z" fill="#038b81"/><path d="M280,276.1c0-2.4.4-3.1,2-3.1c1.3,0,2-.7,2-2s.7-2,2-2c1.5,0,2-.7,2-2.5c0-1.6.6-2.5,1.5-2.5s1.5-.9,1.5-2.5c0-1.4.5-2.5,1-2.5.6,0,1-.7,1-1.5s.9-1.5,2-1.5c1.6,0,2-.7,2-3c0-1.6.5-3,1-3c.6,0,1-.7,1-1.5c0-1,1-1.5,3-1.5h3l-6.5,9.8c-8.9,13.5-12.3,17.9-15.6,20.3l-2.9,2v-3Z" fill="#038b81"/><path d="M283.1,253.3c.8-.9,2.2-2.5,3.2-3.5c1.6-1.7,1.7-1.6,1.7,1.7s-.2,3.5-3.1,3.5c-2.8,0-3-.2-1.8-1.7Z" fill="#038b81"/><path d="M142.2,240.8c-4.8-5-7.3-11.6-6.6-17.2.4-2.7,1.2-4.6,2-4.6c1.3,0,1.8,1.8,2.9,10.5.4,2.7,1.8,7.1,3.1,9.7s2.3,4.8,2.1,4.8-1.7-1.5-3.5-3.2Z" fill="#038b81"/><path d="M121.7,216.5c-2.1-4.3-2.1-4.5-.3-4.5.8,0,1.7,1.5,2.1,3.6.9,4.8.2,5.1-1.8.9Z" fill="#038b81"/><path d="M136,211.5c0-2.5-.4-4.5-.9-4.5-1.4,0,2.2-9.9,5.2-14.6c2.3-3.7,4.7-6.1,9.1-9.4c1.5-1.1,1.3-.5-.7,2.5-3.6,5.3-8.7,18.6-8.7,22.7c0,4.8-1,7.8-2.6,7.8-1,0-1.4-1.3-1.4-4.5Z" fill="#038b81"/><path d="M116.6,203.2c-2.1-7.5-2-8.2.4-8.2c1.6,0,2,.7,2,3.5c0,2.6.3,3.3,1.5,2.9.8-.4,1.5-1.8,1.5-3.4c0-3.4,1.9-9,3.1-9c.5,0,.9-.9.9-2s.7-2,1.5-2c.9,0,1.5-.9,1.5-2.2c0-2.2,5.7-8.8,7.6-8.8.5,0,1.5-.9,2.2-2s1.8-2,2.5-2s1.8-.9,2.5-2s1.6-2,2.1-2s2.3-1.3,4.1-3c1.8-1.6,4-3,5-3s4-1.1,6.7-2.4c2.6-1.4,8.3-3.6,12.6-5.1c7.4-2.5,8.3-2.5,22.2-1.9c8,.4,14.5,1,14.5,1.4c0,.3,1.6.4,3.6.2c3.6-.4,7.4.4,17.1,3.9c3.1,1.1,5.5,1.4,5.8.9.4-.6,1.7-1,3.1-1c1.9,0,2.4-.5,2.4-2.4c0-1.3.6-2.6,1.4-2.9c1.5-.6.9-5.6-1-8.9-1.8-3-6.3-7.8-7.3-7.8-.6,0-1.1-1.4-1.1-3v-3.1l4.3,2.9c5.3,3.7,12.4,11.4,13.7,14.8c1.5,4,1.3,5.3-1,4.7-2.1-.6-2.9,2-1,3.2c2,1.2,1,2.6-1,1.5-1.7-.9-2-.8-2,1.2c0,3.4-1.5,5.1-3.7,4.4-1.1-.4-3.3,0-4.8.8-2.5,1.3-3.3,1.3-6.9,0-2.3-.9-4.8-1.9-5.7-2.4-.9-.4-4.1-1.1-7.2-1.5-3.5-.4-5.4-1.1-5-1.7.4-.7-4.3-.9-14-.6-8,.2-14.4.1-14.1-.3c1-1.7-7.6.4-15.6,3.7-4.7,2-10.3,4.2-12.5,5.1-4.2,1.5-14.8,9.5-22.8,17.2-5.4,5.1-10.2,14.4-12.2,23.6-.7,3-2,4.5-4.1,4.5-.6,0-1.9-2.6-2.8-5.8Z" fill="#038b81"/><path d="M250.1,188.5c5-6.9,5.9-7.4,5.9-3.1c0,2.5-.4,3.6-1.5,3.6-.8,0-1.5.9-1.5,2c0,1.6-.7,2-3.1,2h-3l3.2-4.5Z" fill="#038b81"/><path d="M114,179c0-3.7,2.4-11,3.6-11c1.5,0,1.7,2.3.8,8.3-.5,2.7-1.1,3.7-2.5,3.7-1.1,0-1.9-.4-1.9-1Z" fill="#038b81"/><path d="M268,164c3.1-4.4,4-4.5,4-.6c0,3.3-.2,3.6-3.1,3.6h-3l2.1-3Z" fill="#038b81"/><path d="M119.1,160.3c1.4-3.8,4.2-8.3,5.1-8.3.4,0,.8,1.6.8,3.5s-.4,3.5-1,3.5c-.5,0-1,.9-1,2c0,1.5-.7,2-2.5,2-2.2,0-2.4-.2-1.4-2.7Z" fill="#038b81"/><path d="M285,152.6c0-1.3,2.8-2.6,5.8-2.6.6,0,1.2.9,1.2,2c0,1.6-.7,2-3.5,2-2.3,0-3.5-.5-3.5-1.4Z" fill="#038b81"/><path d="M133.5,140c.3-.5,1.9-1.9,3.5-3l3-2.1v3c0,2.9-.3,3.1-3.6,3.1-2,0-3.3-.4-2.9-1Z" fill="#038b81"/><path d="M150,129c0-.6,1.9-2,4.3-3l4.2-1.9.3,2.1c.2,1.1-.2,2.5-1,2.9-1.9,1.2-7.8,1.1-7.8-.1Z" fill="#038b81"/><path d="M226,126.5c0-2.4.1-2.5,3.2-1.2c4.6,1.9,4.8,3.7.4,3.7-3.2,0-3.6-.3-3.6-2.5Z" fill="#038b81"/><path d="M160,124.7c0-1.2,6-3.7,8.9-3.7c2.1,0,1.1,3.8-1.1,4.4-4,1-7.8.7-7.8-.7Z" fill="#038b81"/><path d="M218,125c0-.5-1-1-2.1-1-1.2,0-5-.5-8.5-1.2-5.3-.9-6.4-1.5-6.4-3.1c0-1.7.5-1.8,3.8-1.3c6.3,1.2,16.6,3.8,18.5,4.8c2.8,1.4,2,2.8-1.8,2.8-1.9,0-3.5-.4-3.5-1Z" fill="#038b81"/><path d="M171,121.6c0-1.4,1.1-1.8,9.3-3.2c3.2-.5,3.7-.4,3.7,1.4c0,1.5-.9,2.1-4.6,2.6-6.9.9-8.4.8-8.4-.8Z" fill="#038b81"/></g><g><path d="M307.7,279.6c-1.6-.7-3.3-1.9-3.8-2.7-2.2-3.5.1-12.9,3.2-12.9.8,0,2.1-.6,2.7-1.2.8-.8,4.4-1.3,9.5-1.3c11.7-.1,19.4-1.4,25.5-4.2c6.7-3.1,16.5-10.9,21.5-16.9c4.5-5.6,4.6-5,.6,3-5.1,9.9-10.8,17.4-11.9,15.6-.3-.5-2.2.1-4.5,1.5l-4,2.4l2.9.1c2.9,0,2.9,0,1,2.1-9.1,10.1-34,18.6-42.7,14.5Zm19.8-6c11.2-4.7,15.3-6.9,16-8.5.4-.9,0-1.1-1.2-.6-8.5,3.6-10.3,3.9-21.5,4h-11.8v2.7c0,4.9.9,5.8,5.9,5.8c2.9,0,7.5-1.2,12.6-3.4Z" fill="#029e87"/><path d="M287,249c1.2-1.7,2.6-2.7,3.2-2.4.6.4.8.3.5-.3-.4-.6.5-2.1,1.8-3.3l2.5-2.3v3.5c0,4.2-3.4,7.8-7.4,7.8h-2.7l2.1-3Z" fill="#029e87"/><path d="M301,247.8c0-3.4.3-3.8,2.5-3.8c3.1,0,3.2,1.1,0,4.7l-2.4,2.8-.1-3.7Z" fill="#029e87"/><path d="M141,238.9c-9-12.4-9.5-29.4-1.4-45c1.9-3.7,7.3-9.9,8.7-9.9.5,0,.3.8-.6,1.8-1,1-1.7,2.5-1.7,3.3s-.4,1.9-.9,2.5c-.5.5-1.8,3.6-3.1,6.9-4.2,11.7-3.7,30.9,1.2,40.8c2.4,4.9,1.5,4.7-2.2-.4Z" fill="#029e87"/><path d="M120.6,213.8c-2.2-5.1-3.3-8.4-5.1-15.8-2-7.7-1.9-10,.4-10c1.5,0,2,1,2.6,5.5l.6,5.5l7.1-14.2c5.9-11.8,8.2-15.5,13.7-21.1c11.5-12,23.5-17.5,43.2-19.8c17.2-2,38.1.7,51.7,6.8c3,1.3,5.6,2.3,5.7,2.1s.5-4,.8-8.5l.6-8.3h-2.5c-1.7,0-2.8-.7-3.1-1.9-.3-1.1-1.7-2.1-3.3-2.4-1.5-.4-3.4-1.2-4.1-1.9-1.4-1.3-3.3-1.9-17.8-5.8-11-3-27.9-2.8-39.1.4-8.9,2.5-15.1,4.7-16,5.6-.3.3-2.7,1.7-5.5,3-2.7,1.4-5.6,3.3-6.3,4.3-.7.9-2.2,1.7-3.3,1.7-1,0-1.9.5-1.9,1.1c0,1.6-2.6,3.9-4.4,3.9-1,0-1.6.9-1.6,2.1s-.8,2.3-2,2.6c-1.1.3-2,1.4-2,2.4c0,1.1-.4,1.9-.9,1.9s-1.2,1.1-1.5,2.5c-.4,1.4-1.1,2.5-1.6,2.5-.6,0-1,.7-1,1.5s-.4,1.5-.9,1.5-1.1,1.5-1.4,3.3c-.2,1.7-1.3,6.5-2.3,10.4-1.5,5.8-2.3,7.3-3.8,7.3-1.6,0-1.7-.5-1.1-4.7c5-34.7,37.7-59.4,78.4-59.3c22.7.1,47.9,10,53.6,21c.8,1.6,1.8,5.3,2.1,8.4.6,4.6.4,5.7-1,6.2-.9.3-1.3,1-1,1.5s.2,1.9-.1,3c-.5,1.5-1.3,1.9-2.7,1.6-1.1-.3-3.1.1-4.4,1-2.2,1.4-2.9,1.3-9.1-1-12.5-4.6-15.4-5.1-28.4-5.2-7,0-12.5-.3-12.2-.7c1.6-2.7-15.3,1.9-25,6.8-2.7,1.3-5.6,2.4-6.5,2.4-1.9,0-18.8,13.2-23.9,18.5-6.3,6.7-10.3,16.7-11.2,28.3l-.6,8.3-1.9-4.3Z" fill="#029e87"/><path d="M256.2,180.8c1.4-1.8,5.3-7.2,8.7-12c3.3-4.8,6.6-9,7.1-9.3.6-.4,1,.9,1,2.9c0,2.5-.4,3.6-1.5,3.6-.8,0-1.5.9-1.5,2s-.4,2-1,2c-.5,0-1,.7-1,1.5c0,.9-.9,1.5-2.5,1.5-2.2,0-2.5.4-2.5,3.5c0,2.4-.5,3.5-1.5,3.5-.8,0-1.5.9-1.5,2c0,1.6-.7,2-3.1,2h-3.1l2.4-3.2Z" fill="#029e87"/></g><g><path d="M178.4,281.5c-15-2.6-30.7-9.9-40.9-18.9l-4-3.5l3.8-.1c2.4,0,4,.5,4.3,1.5.4.8,1,1.5,1.5,1.5.4,0,2.9,1.3,5.5,3c5.7,3.6,18,7.7,25.4,8.6c6.6.7,24.9-2.5,34.4-6c20.1-7.6,34.9-18.2,64.1-46c15-14.3,26.5-24.5,34-30.2c13.6-10.5,31-16.3,44.3-14.9c5.6.6,6.2.9,6.2,3c0,2.2-.2,2.3-3.7,1.3-6.2-1.7-15.1-.6-22.3,2.8-6.5,3.1-15.3,9.4-13.1,9.4.6,0,1.1.7,1.1,1.5c0,1.8-1.7,2-2.3.3-.5-1.6-5.6,2.5-19,15.2-7.7,7.3-9.6,9.7-9.1,11.2.5,1.6.2,1.9-1.4,1.4-1.5-.5-3.4,1-8.7,6.6-18.7,20.2-43.1,39.1-59,45.8-16.5,6.9-28.2,8.7-41.1,6.5Z" fill="#ce1e4e"/><path d="M270,266.2c3.6-3.1,8.2-7.4,10.3-9.6l3.7-3.8v3.6c0,2.9-.4,3.6-2,3.6-1.3,0-2,.7-2,1.8c0,2.2-4,6.2-6.2,6.2-.9,0-1.8.9-2.1,2-.4,1.6-1.3,2-4.4,2l-3.8-.1l6.5-5.7Z" fill="#ce1e4e"/><path d="M128.4,253.5c-8.9-11-16.8-26.5-13.4-26.5c1,0,8,10.4,8,12c0,.6.5,1,1,1c.6,0,1,1.1,1,2.5c0,1.6.6,2.5,1.5,2.5s1.5.9,1.5,2.5c0,1.8.5,2.5,2,2.5c2.4,0,3.3,1.7,2.8,5.6-.3,2.8-.3,2.8-4.4-2.1Z" fill="#ce1e4e"/><path d="M177.7,253.8c2.9-1.3,5.5-2.7,5.9-3.1c1.2-1.2,4.6-.8,4.2.6-.5,1.4-5.6,3.3-11.4,4.2-3.9.6-3.8.6,1.3-1.7Z" fill="#ce1e4e"/><path d="M381,250.5c.6-1.6,1.5-3.4,1.9-4c.4-.5,1.6-3.2,2.7-6c1.6-4.1,1.9-7.6,1.9-19.5c0-14.7-.6-17.7-6-31.2-1.6-4.1,1.6-1.4,4.5,3.7c6.5,11.3,8.8,27.3,5.6,39.2-1.8,6.6-6.4,15.7-9.4,18.6l-2.3,2.2l1.1-3Z" fill="#ce1e4e"/><path d="M189,249.5c0-1.8.5-2.5,1.9-2.5c1.1,0,2.1-.4,2.3-.8.4-1.1,16.2-10.2,17.6-10.2.7,0,1.2-.5,1.2-1c0-.6.8-1.4,1.7-1.7.9-.4,2.5-1.5,3.5-2.5s2.6-1.8,3.7-1.8c1,0,2.1-.9,2.4-2c.3-1.2,1.4-2,2.6-2s2.1-.5,2.1-1.1c0-1.7,2.7-3.9,4.9-3.9c1.4,0,2.1-.6,2.1-2c0-1.6.7-2,3-2c2.5,0,3-.4,3-2.4c0-3.2,2.2-4.8,6.2-4.4l3.3.3-9,7.5c-4.9,4.1-9.9,8.3-11,9.3-7.1,6.5-29.1,20.6-37.7,24.2-3.8,1.5-3.8,1.5-3.8-1Z" fill="#ce1e4e"/><path d="M120.1,247.1c-1-.6-1-1-.1-1.6c1.3-.8,2.4-.1,1.9,1.4-.3.6-1,.7-1.8.2Z" fill="#ce1e4e"/><path d="M299.2,237.2c.2-.5,2.2-2.5,4.6-4.6l4.2-3.8v3.4c0,1.9-.5,3.9-1.2,4.6-1.3,1.3-8.2,1.7-7.6.4Z" fill="#ce1e4e"/><path d="M322.5,214.4c7.5-7,17.6-14.1,21.2-15c4.2-1.1,4.5.2.7,2.7-2.2,1.5-7,5.7-10.7,9.4-6.6,6.7-6.7,6.8-6.8,3.9-.2-2.7-.2-2.7-.6-.4-.7,4-3.2,6-7.2,6l-3.6-.1l7-6.5Z" fill="#ce1e4e"/><path d="M252,204.1c0-2.9.3-3.1,3.6-3.1c3.9,0,3.8.9-.6,4l-3,2.1v-3Z" fill="#ce1e4e"/><path d="M363.5,187.1l-4.9-5.1h3.2c4.5,0,7.4,2.9,7,6.9l-.3,3.2-5-5Z" fill="#ce1e4e"/><path d="M277,181.9c0-2.7.9-4.1,4.1-7.1c2.4-2.2,5.2-3.8,6.5-3.8c1.5,0,2.4-.6,2.4-1.5c0-.8.9-1.5,2-1.5s2-.7,2-1.5c0-1,1.1-1.5,3.5-1.5c1.9,0,3.5.3,3.5.8c0,.4-3.1,2.7-6.8,5.2-3.7,2.4-9.1,6.6-11.9,9.4l-5.3,4.9v-3.4Z" fill="#ce1e4e"/></g><g><path d="M303.6,275.4c-.8-2.2-.8-2.4.8-2.4c1,0,1.6-1.4,1.8-4.2.3-4.1.4-4.3,3.3-4c12,1.2,15.7,1.3,17.2.6c1-.4,3.1-.9,4.6-1.1c5.5-.6,19.6-8.4,26.4-14.6c3.8-3.4,6.9-5.5,7.1-4.8.7,2-5.7,10.7-11.1,15.3-11.4,9.6-22.2,13.8-35.9,13.8-7.2,0-8.8.3-8.8,1.5c0,2-4.6,2-5.4-.1Z" fill="#03c398"/><path d="M136.8,230.3c-2-4.7-2.2-22.3-.4-27.8c2.7-7.7,9.6-19.2,9.6-15.8c0,.7-.4,1.5-1,1.8-.5.3-1,1.7-1,3c0,1.2-.6,2.5-1.2,2.8-2.3.8-5,16.6-4.6,26.3.3,4.9.8,9.7,1.2,10.7.5,1,.4,1.7-.3,1.7-.6,0-1.7-1.2-2.3-2.7Z" fill="#03c398"/><path d="M120,211.6c-.5-1.5-1-4.1-1-5.7c0-2.2.5-2.9,2-2.9c1.7,0,1.9.6,1.7,5-.4,6-1.3,7.2-2.7,3.6Z" fill="#03c398"/><path d="M120,194.1c0-31.4,21-53.9,55.4-59.2c4.2-.7,13.3-.9,22.1-.6c16.5.6,25.3,2.4,38.5,8l7.5,3.2.6,5c.9,7.9-.5,8.5-10.4,4.1-15.5-6.8-32.8-9.5-48.9-7.5-18.6,2.2-30.6,7.9-41.9,19.6-5.6,5.7-7.7,9.1-13.5,21-3.8,7.8-7.5,14.2-8.1,14.2-.9.1-1.3-2.1-1.3-7.8Z" fill="#03c398"/><path d="M262,173c3.1-4.4,4-4.5,4-.6c0,3.3-.2,3.6-3.1,3.6h-3l2.1-3Z" fill="#03c398"/><path d="M120,159.4c0-1.2,6.5-11.4,7.2-11.4.5,0,.8,1.6.8,3.5c0,2.4-.5,3.5-1.5,3.5-.9,0-1.5.9-1.5,2.5c0,2-.5,2.5-2.5,2.5-1.4,0-2.5-.3-2.5-.6Z" fill="#03c398"/><path d="M223.2,153.9c.2-.6.8-1,1.3-1s1.1.4,1.3,1-.4,1.1-1.3,1.1-1.5-.5-1.3-1.1Z" fill="#03c398"/><path d="M129.1,145.3c.7-1,2.9-3.3,4.8-5.1l3.6-3.2.3,2.4c.4,3.5-3.4,7.6-7.1,7.6-2.6,0-2.8-.2-1.6-1.7Z" fill="#03c398"/><path d="M147,131.1c0-.8,14-8.1,15.5-8.1.3,0,.5,1.1.5,2.5c0,2-.5,2.5-2.5,2.5-1.4,0-2.5.5-2.5,1c0,.6-.9,1-2,1s-2,.5-2,1c0,.6-1.6,1-3.5,1s-3.5-.4-3.5-.9Z" fill="#03c398"/><path d="M165,123.6c0-1.3,2.8-2.6,5.8-2.6.6,0,1.2.9,1.2,2c0,1.6-.7,2-3.5,2-2.3,0-3.5-.5-3.5-1.4Z" fill="#03c398"/><path d="M173,121.6c0-1.3,2.8-2.6,5.8-2.6.6,0,1.2.9,1.2,2c0,1.6-.7,2-3.5,2-2.3,0-3.5-.5-3.5-1.4Z" fill="#03c398"/><path d="M185,120.6c0-1.6,5.3-3.1,7-2.1.5.3,1,1.3,1,2.1c0,1-1.2,1.4-4,1.4s-4-.4-4-1.4Z" fill="#03c398"/></g><g><path d="M168,276.3c-1.4-.2-6-1.6-10.3-3-16.2-5.2-29.7-17.4-38.9-35-5.9-11.3-12.4-30.4-9.8-28.8.5.3,1,1.2,1,1.9c0,2.6,5.8,15.3,10,21.9c2.3,3.7,6.9,9.3,10.1,12.4c3.5,3.3,5.5,5.9,4.9,6.3-.7.5-.6,1.1.5,2c1.2,1,1.5,1,1.5-.4c0-1.5.4-1.5,3,.4c4.9,3.5,17.1,8.7,23.3,10c4,.8,5.7,1.6,5.7,2.7c0,1.3-.9,1.5-5.7.9-3.2-.4-5.9-1.1-6.1-1.6-.2-.6-1.7-1-3.3-1-1.9,0-2.9-.5-2.9-1.5s-1-1.5-2.7-1.5c-3.2,0-2.6.6,4.7,4.4c8.9,4.7,18.4,6.9,27.3,6.4c9.7-.6,17.3-3,32.4-10.3c17.1-8.4,32.4-20.5,64.3-51.3c12.2-11.8,12.4-12.1,9.3-12.2-4.3,0-4.2-1.3.2-3.9l3.5-2v3v3l7.8-6.7c19-16.2,27-19.7,44.1-19.2c7.7.2,11.1,0,11.1-.8c0-.6-2.2-1.4-5-1.8-4.2-.6-5-1-5-2.7c0-1.9.4-2,3.7-1.4c5.9,1.1,10.7,4,15.7,9.6c5.4,6.1,7.9,10.5,11.2,20.3c3.2,9.4,3,10.3-.7,3-3.7-7.5-10.1-14.5-16-17.5-6.2-3.1-15.1-3-24.8.5-16.1,5.7-25.6,12.8-56.6,42.2-29.2,27.8-44,38.4-64.1,46-12.4,4.6-33.3,7.4-43.4,5.7ZM360,175.5c0-1-1-1.5-2.7-1.5l-2.8.1l2.5,1.4c3.1,1.8,3,1.8,3,0Z" fill="#d94b74"/><path d="M174,267c0-1.7.7-2,4-2s4,.3,4,2-.7,2-4,2-4-.3-4-2Z" fill="#d94b74"/><path d="M183,266.7c0-.9,3.2-2.1,8.8-3.5c15.5-3.8,29.6-12,53.2-31.1c5.8-4.6,11.1-8.9,11.8-9.4.9-.7,1.2-.2,1.2,2.2c0,2.6-.4,3.1-2.4,3.1-1.8,0-2.5.6-2.8,2.3-.2,1.6-1.1,2.3-3,2.5-2,.2-2.8.9-2.8,2.3s-.7,1.9-2.5,1.9-2.5.5-2.5,2-.7,2-2.5,2-2.5.5-2.5,2c0,1.1-.7,2-1.5,2s-1.5.5-1.5,1c0,.6-.9,1-2,1s-2,.7-2,1.5-.9,1.5-2,1.5-2,.7-2,1.5c0,.9-.9,1.5-2.5,1.5-1.5,0-2.5.6-2.5,1.4c0,1.5-2.1,2.6-5.1,2.6-1,0-1.9.6-1.9,1.3c0,1.6-4.1,3.7-7,3.7-1.1,0-2,.4-2,.9c0,1.1-14.6,5.1-18.8,5.1-2,0-3.2-.5-3.2-1.3Z" fill="#d94b74"/><path d="M378.8,253.7c4.2-4.9,6.5-9.6,9.2-18.6c4.4-14.5,1.3-33.7-7.8-47.1l-4.4-6.5l3.6,3.5c8.1,7.7,13.6,21.8,13.6,35s-4.8,25.6-12.9,33.2c-4.4,4.2-4.4,4.2-1.3.5Z" fill="#d94b74"/><path d="M178.3,253.4c1.6-.9,3.2-1.3,3.5-.9.9.9-1.9,2.5-4.3,2.4-1.6,0-1.5-.2.8-1.5Z" fill="#d94b74"/><path d="M119.2,246.8c.6-1.8,2.8-2.1,2.8-.4c0,.9-.7,1.6-1.6,1.6s-1.4-.5-1.2-1.2Z" fill="#d94b74"/><path d="M193.5,245c.3-.5,1.9-1.9,3.5-3l3-2.1v3c0,2.9-.3,3.1-3.6,3.1-2,0-3.3-.4-2.9-1Z" fill="#d94b74"/><path d="M232.1,210.3c.8-.9,2.2-2.5,3.2-3.5c1.6-1.7,1.7-1.6,1.7,1.7s-.2,3.5-3.1,3.5c-2.8,0-3-.2-1.8-1.7Z" fill="#d94b74"/><path d="M301,182.9c6.1-5.3,17-11.8,25-14.6s10-2.9,10-.4c0,1.5-1.3,2.1-6,3.2-3.3.7-6,1.6-6,1.9c0,1.2-5,3-8,3-2.3,0-3,.5-3,2c0,1.1-.7,2-1.5,2s-1.5.5-1.5,1c0,.6-1.3,1-3,1-2.5,0-3,.4-3,2.5c0,2.2-.4,2.5-3.7,2.5l-3.8-.1l4.5-4Z" fill="#d94b74"/></g><g><path d="M304.1,276.2c-1.5-2.8-1.4-3.5.4-2.8c1,.3,1.5-.1,1.5-1.3c0-1.7.7-1.8,8.3-1.4c14.8,1,26.7-4.3,41.6-18.3c5-4.7,9.1-8,9.1-7.3c0,2.7-8.6,14.3-14.4,19.4-3.4,3-9.4,7.2-13.5,9.2-7.2,3.7-7.8,3.8-19.7,4.2-11.5.3-12.3.2-13.3-1.7Z" fill="#3fd5b2"/><path d="M138.9,234.3c-3.1-6-3.4-7.7-3.7-16.5-.3-7.3.1-11.1,1.3-15c2.6-7.7,8.1-17.5,9.3-16.4.2.3-.3,1.2-1.2,2.1s-1.3,2.1-1,2.7c.4.6,0,1.6-.9,2.3-2,1.4-4.9,8-4,8.9.4.3.1,1.6-.5,2.9-.6,1.2-1.3,3.8-1.5,5.7-.5,4.3,1.1,18,2.3,19.5c1,1.2,4,9.8,3.6,10.2-.2.2-1.8-2.7-3.7-6.4Z" fill="#3fd5b2"/><path d="M118.7,207.8c-2.9-8.5-4.1-19-2.9-27c.5-3.2.5-5.9.2-6-.4-.2.3-3.7,1.5-7.8c2.3-7.7,8.1-18.4,11.6-21.5c1.8-1.8,1.9-1.7,1.9,1.7c0,2-.8,4.3-1.9,5.4-1,1.1-2.2,3-2.5,4.2-.4,1.2-1.1,2.2-1.5,2.2s-1.4,1.9-2.1,4.3c-.8,2.3-1.8,4.5-2.3,4.8-.5.4-.7,1.5-.5,2.5.5,1.8.5,1.8,1.2-.1c10.1-26.6,32.1-42.7,61.9-45.2c6.3-.5,7.7-.3,7.7.8c0,1.2,1.4,1.4,7,1.1c9-.5,23.8,1.5,24.8,3.5.5.8,4,2.2,7.9,3.2s9,2.9,11.4,4.2s4.5,2.4,4.5,2.4c.1,0,.5,1.1.9,2.4.6,2.1.5,2.3-1.4,1.8-1.8-.4-2.1-.1-2.1,2.5c0,2-.4,2.8-1.2,2.5-.7-.3-4.9-2.1-9.3-4.1-12.1-5.3-22.4-7.7-36-8.3-24.6-1.1-43.1,4.8-57.6,18.5-12.1,11.4-16.5,23.1-17.1,45.9-.2,7.3-.6,13.3-.9,13.3-.4,0-1.8-3.3-3.2-7.2Z" fill="#3fd5b2"/><path d="M133.3,173.3c-1.8-.6-1.6-3.3.1-3.3c1.9,0,3.1,1.9,2,3-.5.4-1.5.5-2.1.3Z" fill="#3fd5b2"/><path d="M240.6,156.1c-.8-1.2.3-4.1,1.5-4.1.5,0,.9,1.1.9,2.5c0,2.5-1.4,3.4-2.4,1.6Z" fill="#3fd5b2"/><path d="M161.3,149.5c-.3-.9-.3-1.8,0-2.2c1-1,3.7.6,3.7,2.2c0,2-2.9,2-3.7,0Z" fill="#3fd5b2"/><path d="M196,142.5c0-.8.7-1.5,1.5-1.5s1.5.7,1.5,1.5-.7,1.5-1.5,1.5-1.5-.7-1.5-1.5Z" fill="#3fd5b2"/><path d="M142.3,133.5c3.6-3.2,4.7-3.1,4.7,0c0,2.2-.4,2.5-3.7,2.5l-3.8-.1l2.8-2.4Z" fill="#3fd5b2"/><path d="M158,126.3c0-1.5,3.7-3,12.4-5.3c9.8-2.5,10.6-2.5,10.6-.1c0,1.6-1,2.1-5.7,2.7-3.2.4-6.1,1.1-6.4,1.6-.8,1.2-10.9,2.3-10.9,1.1Z" fill="#3fd5b2"/><path d="M187,120.6c0-1.7,2-2.2,8.5-2.1c3.9,0,5,.4,5.3,1.8.3,1.5-.5,1.7-6.7,1.7-5.4,0-7.1-.3-7.1-1.4Z" fill="#3fd5b2"/></g><g><path d="M240.4,286.6c2.3-1.8,3.6-2,3.6-.6c0,.6-.4,1-.9,1s-1.8.3-2.8.6c-1.6.5-1.6.4.1-1Z" fill="#e06786"/><path d="M269,282c0-1.6.7-2,3.5-2c3.9,0,4.6,1.4,1.6,3-3.1,1.6-5.1,1.2-5.1-1Z" fill="#e06786"/><path d="M170.5,275.9c-13-1.6-27-8.5-37-18.4-7.9-7.8-11.9-13.7-17.2-25.5-5.4-12-5.5-14.8-.2-5c8.1,14.9,18.2,24.9,32,31.7c9.3,4.6,16.9,6.3,27.9,6.4c13.9.1,25.5-3.2,39.4-11.3c11.5-6.7,32.9-23.3,44.9-34.7c4.9-4.7,6.7-5.9,6.7-4.6c0,1.6.5,1.4,3-1c2.6-2.5,2.8-3,1.4-3.5s-1.1-1.1,1.7-3.3c1.8-1.4,3.6-2.2,3.9-1.6.4.5,1.9-.4,3.5-2.1s2.3-3,1.6-3c-1.8,0,.3-2.5,3.4-4.3c1.3-.6,6.9-5.1,12.5-9.9c10.7-9,21.5-15.4,30.9-18.2c6.6-1.9,11.1-2.1,11.1-.3c0,.9.3.8.9-.2c1.1-1.7,6.8-.8,12.8,2.1c4.3,2,11.3,9.4,14.9,15.8c2.5,4.3,5.7,14,5,14.8-.3.3-.6,0-.6-.7c0-2.1-6-10.4-10.4-14.4-7-6.4-12.8-8.7-21.8-8.7-17,0-28.5,7.4-65.3,42.4-35.1,33.4-45.7,41.3-67.6,50.7-14.4,6.3-25.6,8.3-37.4,6.8Z" fill="#e06786"/><path d="M178.5,253.8c3.3-2.4,5.5-2.9,5.5-1.3c0,.8-.6,1.5-1.2,1.5-.7,0-2.4.3-3.8.6-2.4.6-2.4.6-.5-.8Z" fill="#e06786"/><path d="M211.5,230c.3-.5,1.9-1.9,3.5-3l3-2.1v3c0,2.9-.3,3.1-3.6,3.1-2,0-3.3-.4-2.9-1Z" fill="#e06786"/><path d="M326,215.6c0-3.3.2-3.6,3.1-3.6h3l-2.1,3c-3.1,4.4-4,4.5-4,.6Z" fill="#e06786"/><path d="M311,158.6v-2.6l3.7,1.5c4.6,1.9,5.2,2.5,2.7,2.5-1,0-2.9.3-4.1.6-2,.5-2.3.2-2.3-2Z" fill="#e06786"/><path d="M300,154.5c0-2.4.1-2.5,3.2-1.2c4.6,1.9,4.8,3.7.4,3.7-3.2,0-3.6-.3-3.6-2.5Z" fill="#e06786"/><path d="M280,154c0-1.2,3.3-3,5.4-3c.9,0,1.6.9,1.6,2c0,1.6-.7,2-3.5,2-1.9,0-3.5-.4-3.5-1Z" fill="#e06786"/></g><g><path d="M167.5,272l-5-.7l6.7-.1c3.7-.1,7-.6,7.3-1.2.4-.6-.6-1-2.2-1-6.8-.1-24.8-6.1-31.5-10.5-2.1-1.4-4.4-2.5-5.3-2.5-.8,0-1.5-.3-1.5-.7c0-.5-3.4-4.3-7.6-8.7-7.5-7.8-11.6-13.4-13.4-18.1-1.5-4-.4-2.9,2.9,2.9c1.7,3,6.7,9.3,11.1,13.9c6.7,6.9,9.6,9.1,17.3,13c13.8,6.9,26.3,9,40.5,6.7c14.5-2.4,26-8,43.7-21.2c19.1-14.3,23.8-18.2,37.7-31.9c7.8-7.8,15.6-14.8,17.2-15.6c2.5-1.3,6.8-4.9,12.1-10c4.4-4.2,15.2-11.4,22.2-14.6c10-4.7,19.2-6.3,26.5-4.7c6.3,1.3,14.2,6.1,16.5,10.1c1,1.6,2.1,2.9,2.6,2.9.8,0,4.1,7,3.5,7.6-.2.2-1.9-1.8-3.8-4.4-3.1-4.1-10.3-10.1-12.2-10.2-.5,0-.8.7-.8,1.5s-.4,1.5-1,1.5c-.5,0-1-.8-1-1.9c0-1.4-1-2-3.7-2.5-10.4-1.7-18.1.6-30.4,9-4.4,2.9-8.5,5.1-9.2,4.8-.9-.3-10.9,8.8-25.5,23.1-13.3,12.9-24.5,23.5-24.9,23.5-.5,0,1.6-2.9,3.7-5c6.5-6.7,2.3-3.4-8.5,6.4-7.6,7-17.8,15.7-22.5,19.2-9.1,6.9-24.1,15-25.8,14-.5-.3-4.1.5-7.9,1.8-6.1,2.1-9.1,2.7-20.3,4-1.4.2-4.7,0-7.5-.4Zm144.6-90.7l3.4-3.6-4.2,3.3c-2.4,1.8-4.3,3.5-4.3,3.7c0,1.2,2.1-.2,5.1-3.4Z" fill="#e5859f"/><path d="M196.5,243c.3-.5,1.9-1.9,3.5-3l3-2.1v3c0,2.9-.3,3.1-3.6,3.1-2,0-3.3-.4-2.9-1Z" fill="#e5859f"/><path d="M210.5,231c.3-.5,1.9-1.9,3.5-3l3-2.1v3c0,2.9-.3,3.1-3.6,3.1-2,0-3.3-.4-2.9-1Z" fill="#e5859f"/><path d="M243,198c3.1-4.4,4-4.5,4-.6c0,3.3-.2,3.6-3.1,3.6h-3l2.1-3Z" fill="#e5859f"/><path d="M313,159c0-1.3.6-1.7,2-1.3c3.1.8,3.3,2,.5,2.5-1.9.4-2.5.1-2.5-1.2Z" fill="#e5859f"/></g><g><path d="M246,283.5c14.5-7.9,29.6-21,49.9-43.6c2.4-2.7,4.7-4.9,5.1-4.9.3,0,6.2-5.4,12.9-12c12.4-12.1,28.4-24,32.3-24c1.5,0,.4,1.3-4.3,4.9-12,9.1-26.2,26.3-43.5,52.6-16.7,25.4-21.7,28.6-47.4,30l-11.5.6l6.5-3.6Z" fill="#fdc04f"/><path d="M181.3,252.1c8.8-4.6,17.5-10.8,28.3-20.2c19.5-17,33.4-33,59.3-68.2c7.6-10.3,17-14.9,26.4-12.7c9.5,2.2,25,9,20.7,9-3.1.1-12.9,4.8-21.3,10.4-5.1,3.4-13.7,10.7-20.5,17.3-6.4,6.3-13.3,12.7-15.2,14.1-1.9,1.5-7.1,5.8-11.5,9.7-9.2,8.2-23.4,19.6-29.6,24-9.3,6.4-24.7,14.8-31.5,17.1-9.7,3.2-11.8,3-5.1-.5Z" fill="#fdc04f"/></g><g><path d="M310.8,280.2c-2.7-.3-7.8-4.3-7.8-6.1c0-.6,1.2-.6,3.3,0c6.4,1.7,19,.4,28.5-3c9.8-3.5,16.6-8.5,22.8-16.4c4.8-6.2,5.7-5.2,1,1.2-3.3,4.4-5.8,7-12.3,12.2-9.3,7.5-25.9,13.2-35.5,12.1Z" fill="#6fdfc5"/><path d="M138.7,234c-1-1.6-1.4-3-.8-3c1.2,0,3.4,3.7,2.9,5.1-.2.5-1.1-.4-2.1-2.1Z" fill="#6fdfc5"/><path d="M121.5,215.3c-7.3-18.4-9.2-33.2-5.6-42.4.5-1.3,1.6-4.9,2.5-7.9c2.4-8.1,9.8-19.1,17.4-26c8.1-7.5,22.6-14.9,35.2-17.9c9.8-2.4,31.2-3,39.5-1.2c19.3,4.4,32.6,11.8,35.9,20.2c2,4.8,2,4.9.1,4.9-.8,0-1.5-.5-1.5-1.2c0-.6-.3-.8-.6-.5-.4.3-2.6-.5-5-1.9-4.7-2.7-16.8-6.3-21.9-6.5-2.5,0-2.7-.2-1-.8c1.1-.5,2.4-.6,2.9-.3s.6,0,.3-.5c-.4-.6-4.6-1.6-9.3-2.3-11.7-1.7-30,.7-42.7,5.6-2,.8-4.3,1.4-5,1.4-2.3-.1,12.6-6.1,19.2-7.7c9-2.3,5.9-2.9-4.2-.8-10.7,2.2-17.8,4.7-24.5,8.7-13.7,8.4-23.7,21-28.9,36.7l-3.2,9.6-.1-5c-.2-4.7-.2-4.8-1.1-2-1.8,5.4-1.2,21.6,1.1,30.5c1.9,7.6,2.2,11.6.5,7.3Z" fill="#6fdfc5"/></g></svg>
